<svg width="31" height="35" viewBox="0 0 31 35" fill="none" xmlns="http://www.w3.org/2000/svg">
<path fill-rule="evenodd" clip-rule="evenodd" d="M2.4978 2.08639C3.54265 1.04155 4.95976 0.454559 6.4374 0.454559H24.7231C26.2007 0.454559 27.6179 1.04155 28.6627 2.08639C29.7076 3.13124 30.2945 4.54835 30.2945 6.02599V28.8831C30.2945 30.3608 29.7076 31.7779 28.6627 32.8227C27.6179 33.8676 26.2007 34.4546 24.7231 34.4546H6.4374C4.95976 34.4546 3.54265 33.8676 2.4978 32.8227C1.45295 31.7779 0.865967 30.3608 0.865967 28.8831V6.02599C0.865967 4.54835 1.45295 3.13124 2.4978 2.08639ZM6.4374 2.45456C5.49019 2.45456 4.58179 2.83083 3.91201 3.50061C3.24224 4.17038 2.86597 5.07879 2.86597 6.02599V28.8831C2.86597 29.8303 3.24224 30.7387 3.91201 31.4085C4.58179 32.0783 5.49019 32.4546 6.4374 32.4546H24.7231C25.6703 32.4546 26.5787 32.0783 27.2485 31.4085C27.9183 30.7387 28.2945 29.8303 28.2945 28.8831V6.02599C28.2945 5.07879 27.9183 4.17038 27.2485 3.50061C26.5787 2.83083 25.6703 2.45456 24.7231 2.45456H6.4374ZM7.72311 10.5974C7.72311 10.0451 8.17083 9.59742 8.72311 9.59742H22.4374C22.9897 9.59742 23.4374 10.0451 23.4374 10.5974C23.4374 11.1497 22.9897 11.5974 22.4374 11.5974H8.72311C8.17083 11.5974 7.72311 11.1497 7.72311 10.5974ZM7.72311 17.4546C7.72311 16.9023 8.17083 16.4546 8.72311 16.4546H22.4374C22.9897 16.4546 23.4374 16.9023 23.4374 17.4546C23.4374 18.0068 22.9897 18.4546 22.4374 18.4546H8.72311C8.17083 18.4546 7.72311 18.0068 7.72311 17.4546ZM7.72311 24.3117C7.72311 23.7594 8.17083 23.3117 8.72311 23.3117H22.4374C22.9897 23.3117 23.4374 23.7594 23.4374 24.3117C23.4374 24.864 22.9897 25.3117 22.4374 25.3117H8.72311C8.17083 25.3117 7.72311 24.864 7.72311 24.3117Z" fill="#751A20"/>
</svg>
