<svg width="72" height="72" viewBox="0 0 72 72" fill="none" xmlns="http://www.w3.org/2000/svg">
<rect x="1" y="1" width="70" height="70" rx="35" fill="white"/>
<rect x="1" y="1" width="70" height="70" rx="35" fill="black" fill-opacity="0.2"/>
<rect x="1" y="1" width="70" height="70" rx="35" fill="black" fill-opacity="0.2"/>
<path d="M27.09 38.82C27.5518 38.9324 28.0248 38.9928 28.5 39C29.6915 38.9997 30.856 38.6446 31.845 37.98L36.675 42.285C36.2924 43.0116 36.0678 43.8109 36.0161 44.6304C35.9644 45.4499 36.0867 46.2711 36.375 47.04C36.6778 47.9112 37.1773 48.7009 37.8349 49.3476C38.4924 49.9944 39.2902 50.4809 40.1662 50.7693C41.0423 51.0577 41.973 51.1403 42.8862 51.0106C43.7993 50.8809 44.6703 50.5424 45.4314 50.0215C46.1925 49.5006 46.8233 48.8112 47.2747 48.0069C47.7261 47.2026 47.986 46.305 48.0342 45.384C48.0825 44.4629 47.9177 43.5432 47.5528 42.6961C47.1878 41.8491 46.6325 41.0976 45.93 40.5L49.74 32.865C50.4837 33.0327 51.2535 33.0488 52.0035 32.9122C52.7535 32.7756 53.4682 32.4891 54.105 32.07C55.1864 31.4101 56.0311 30.4248 56.5182 29.2553C57.0052 28.0859 57.1097 26.7923 56.8165 25.5598C56.5233 24.3274 55.8475 23.2194 54.886 22.3945C53.9245 21.5697 52.7266 21.0703 51.4639 20.968C50.2012 20.8657 48.9386 21.1657 47.8568 21.825C46.7751 22.4843 45.9297 23.4691 45.442 24.6382C44.9542 25.8074 44.849 27.1009 45.1414 28.3335C45.4339 29.5662 46.109 30.6746 47.07 31.5L43.26 39.135C42.8462 39.044 42.4237 38.9988 42 39C40.8085 39.0003 39.644 39.3554 38.655 40.02L33.825 35.715C34.2076 34.9884 34.4322 34.1891 34.4839 33.3696C34.5356 32.5501 34.4133 31.7289 34.125 30.96C33.8244 30.0951 33.3299 29.3105 32.6794 28.6663C32.0288 28.022 31.2394 27.5352 30.3716 27.2431C29.5039 26.951 28.5808 26.8614 27.6731 26.9811C26.7653 27.1008 25.897 27.4266 25.1346 27.9337C24.3723 28.4408 23.7361 29.1156 23.2747 29.9065C22.8134 30.6973 22.5392 31.5833 22.4731 32.4965C22.407 33.4097 22.5508 34.326 22.8935 35.175C23.2361 36.0241 23.7686 36.7835 24.45 37.395L18 49.5V15H15V54C15 54.7957 15.3161 55.5587 15.8787 56.1213C16.4413 56.6839 17.2044 57 18 57H57V54H19.005L27.09 38.82ZM51 24C51.5933 24 52.1734 24.1759 52.6667 24.5056C53.1601 24.8352 53.5446 25.3038 53.7716 25.8519C53.9987 26.4001 54.0581 27.0033 53.9424 27.5853C53.8266 28.1672 53.5409 28.7018 53.1213 29.1213C52.7018 29.5409 52.1672 29.8266 51.5853 29.9424C51.0033 30.0581 50.4001 29.9987 49.8519 29.7716C49.3038 29.5446 48.8352 29.1601 48.5056 28.6667C48.1759 28.1734 48 27.5933 48 27C48 26.2044 48.3161 25.4413 48.8787 24.8787C49.4413 24.3161 50.2043 24 51 24ZM45 45C45 45.5933 44.8241 46.1734 44.4944 46.6667C44.1648 47.1601 43.6962 47.5446 43.1481 47.7716C42.5999 47.9987 41.9967 48.0581 41.4147 47.9424C40.8328 47.8266 40.2982 47.5409 39.8787 47.1213C39.4591 46.7018 39.1734 46.1672 39.0576 45.5853C38.9419 45.0033 39.0013 44.4001 39.2284 43.8519C39.4554 43.3038 39.8399 42.8352 40.3333 42.5056C40.8266 42.1759 41.4067 42 42 42C42.7956 42 43.5587 42.3161 44.1213 42.8787C44.6839 43.4413 45 44.2044 45 45ZM28.5 30C29.0933 30 29.6734 30.1759 30.1667 30.5056C30.6601 30.8352 31.0446 31.3038 31.2716 31.8519C31.4987 32.4001 31.5581 33.0033 31.4424 33.5853C31.3266 34.1672 31.0409 34.7018 30.6213 35.1213C30.2018 35.5409 29.6672 35.8266 29.0853 35.9424C28.5033 36.0581 27.9001 35.9987 27.3519 35.7716C26.8038 35.5446 26.3352 35.1601 26.0056 34.6667C25.6759 34.1734 25.5 33.5933 25.5 33C25.5 32.2044 25.8161 31.4413 26.3787 30.8787C26.9413 30.3161 27.7044 30 28.5 30Z" fill="#9A281E"/>
<rect x="1" y="1" width="70" height="70" rx="35" stroke="#9A281E" stroke-width="2"/>
</svg>
