<svg width="72" height="72" viewBox="0 0 72 72" fill="none" xmlns="http://www.w3.org/2000/svg">
<rect x="1" y="1" width="70" height="70" rx="35" fill="white"/>
<rect x="1" y="1" width="70" height="70" rx="35" fill="black" fill-opacity="0.2"/>
<rect x="1" y="1" width="70" height="70" rx="35" fill="black" fill-opacity="0.2"/>
<path d="M45.7635 31.0335L36.7635 25.7085C36.5323 25.5715 36.2685 25.4994 35.9998 25.4997C35.7311 25.4999 35.4674 25.5726 35.2365 25.71L26.2365 31.035C26.0121 31.1673 25.8261 31.356 25.697 31.5822C25.5678 31.8084 25.4999 32.0645 25.5 32.325V42.675C25.5 43.206 25.7805 43.6965 26.2365 43.965L35.2365 49.29C35.4671 49.4284 35.731 49.5016 36 49.5016C36.269 49.5016 36.5329 49.4284 36.7635 49.29L45.7635 43.965C45.9879 43.8327 46.1739 43.644 46.303 43.4178C46.4322 43.1916 46.5001 42.9355 46.5 42.675V32.325C46.5001 32.0643 46.4322 31.8081 46.303 31.5816C46.1739 31.3551 45.9879 31.1662 45.7635 31.0335ZM43.5 41.82L36 46.257L28.5 41.82V33.18L36 28.743L43.5 33.18V41.82Z" fill="#9A281E"/>
<path d="M21 42.276V28.605L30.3 23.109L28.7745 20.526L18.7365 26.4585C18.5121 26.5912 18.3261 26.7801 18.197 27.0066C18.0678 27.2331 17.9999 27.4893 18 27.75V42.276C17.1252 42.5844 16.3672 43.1559 15.83 43.9122C15.2929 44.6684 15.003 45.5724 15 46.5C15 48.981 17.019 51 19.5 51C21.981 51 24 48.981 24 46.5C23.997 45.5724 23.7071 44.6684 23.17 43.9122C22.6328 43.1559 21.8748 42.5844 21 42.276ZM19.5 48C19.1138 47.9827 18.7491 47.8171 18.4819 47.5377C18.2147 47.2583 18.0656 46.8866 18.0656 46.5C18.0656 46.1134 18.2147 45.7417 18.4819 45.4623C18.7491 45.1829 19.1138 45.0173 19.5 45C19.8862 45.0173 20.2509 45.1829 20.5181 45.4623C20.7853 45.7417 20.9344 46.1134 20.9344 46.5C20.9344 46.8866 20.7853 47.2583 20.5181 47.5377C20.2509 47.8171 19.8862 47.9827 19.5 48ZM52.5 42C50.019 42 48 44.019 48 46.5C48 47.0295 48.108 47.5305 48.2775 48.003L36 55.257L26.394 49.581L24.8685 52.164L35.2365 58.29C35.4674 58.4274 35.7311 58.5001 35.9998 58.5003C36.2685 58.5006 36.5323 58.4285 36.7635 58.2915L50.2035 50.349C50.8785 50.7525 51.6585 51 52.5 51C54.981 51 57 48.981 57 46.5C57 44.019 54.981 42 52.5 42ZM52.5 48C52.1138 47.9827 51.7491 47.8171 51.4819 47.5377C51.2147 47.2583 51.0656 46.8866 51.0656 46.5C51.0656 46.1134 51.2147 45.7417 51.4819 45.4623C51.7491 45.1829 52.1138 45.0173 52.5 45C52.8862 45.0173 53.2509 45.1829 53.5181 45.4623C53.7853 45.7417 53.9344 46.1134 53.9344 46.5C53.9344 46.8866 53.7853 47.2583 53.5181 47.5377C53.2509 47.8171 52.8862 47.9827 52.5 48ZM36 22.5C37.0965 22.5 38.088 22.0905 38.8695 21.438L51 28.6065V39H54V27.75C54.0001 27.4893 53.9322 27.2331 53.803 27.0066C53.6739 26.7801 53.4879 26.5912 53.2635 26.4585L40.413 18.8655C40.467 18.585 40.5 18.297 40.5 18C40.5 15.519 38.481 13.5 36 13.5C33.519 13.5 31.5 15.519 31.5 18C31.5 20.481 33.519 22.5 36 22.5ZM36 16.5C36.2971 16.4997 36.5876 16.5876 36.8348 16.7524C37.0819 16.9173 37.2746 17.1518 37.3884 17.4262C37.5022 17.7006 37.5321 18.0027 37.4742 18.2941C37.4163 18.5855 37.2733 18.8531 37.0632 19.0632C36.8531 19.2733 36.5855 19.4163 36.2941 19.4742C36.0027 19.5321 35.7006 19.5022 35.4262 19.3884C35.1518 19.2746 34.9173 19.0819 34.7524 18.8348C34.5876 18.5876 34.4997 18.2971 34.5 18C34.5 17.172 35.1735 16.5 36 16.5Z" fill="#9A281E"/>
<rect x="1" y="1" width="70" height="70" rx="35" stroke="#9A281E" stroke-width="2"/>
</svg>
