<svg width="117" height="117" viewBox="0 0 117 117" fill="none" xmlns="http://www.w3.org/2000/svg">
<path d="M75.1133 44.7799L90.7474 36.0635L89.78 54.9959L58.2329 54.9959L75.1124 44.7804L75.1133 44.7799Z" fill="#F07F1B" stroke="#1B0D0D" stroke-width="0.0555"/>
<path d="M75.2279 27.6888L58.0934 30.7439L58.0934 54.7657L70.2401 35.5716L75.2279 27.6888Z" fill="#FFCD00"/>
<path d="M90.7397 36.0164L75.0609 27.6914L57.856 55.1639L68.4009 48.7814L73.8122 45.4514L79.2234 42.3989L90.7397 36.0164Z" fill="#FFEE00"/>
<path d="M57.9947 92.6264L72.9287 81.6025L57.9947 55.0252L57.9947 80.5552C57.9947 85.2727 57.9947 92.6264 57.9947 92.6264Z" fill="#FFEE00"/>
<path d="M72.841 81.5264L77.281 67.0964L57.7172 54.4702L64.6943 67.3616L72.841 81.5264Z" fill="#FFCD00"/>
<path d="M89.9073 54.6821L77.281 67.0964L57.9928 54.6821L79.6397 54.7477L89.9073 54.6821Z" fill="#F08144"/>
<path d="M43.8598 81.5224L58.1203 54.6954L58.1203 80.3097L58.1203 88.1143L58.1203 91.1582L58.1203 92.0557L58.1203 92.2972L58.1203 92.3539L43.8598 81.5224Z" fill="#F07F1B" stroke="black" stroke-width="0.02775"/>
<path d="M41.3447 27.2751L58.1594 30.7439L58.1594 54.5167L46.2534 35.3226L41.3447 27.2751Z" fill="#F08144"/>
<path d="M26.1233 35.829L27.0754 54.8377L58.2722 54.7477L41.4914 44.5702L26.1233 35.829Z" fill="#FFEE00"/>
<path d="M37.289 42.6424L26.1097 35.8781L41.3399 27.2938L58.3576 54.8349L37.2893 42.6425L37.289 42.6424Z" fill="#F07F1B" stroke="black" stroke-width="0.02775"/>
<path d="M43.8422 81.5264L39.1247 67.0964L58.6716 54.4215L52.1048 67.3129L43.8422 81.5264Z" fill="#F08144"/>
<path d="M27.1497 54.8208L39.1639 67.2351L58.6119 54.7552L37.394 54.8208L27.1497 54.8208Z" fill="#FFCD00"/>
<rect x="13.8225" y="13.8225" width="89.355" height="89.355" rx="44.6775" stroke="black" stroke-width="2.22"/>
<rect x="9.24375" y="9.24375" width="98.5125" height="98.5125" rx="49.2562" stroke="#942A20" stroke-width="12.4875"/>
<rect x="1.89" y="1.89" width="113.22" height="113.22" rx="56.61" stroke="black" stroke-width="2.22"/>
</svg>
