<svg width="418" height="100" viewBox="0 0 418 100" fill="none" xmlns="http://www.w3.org/2000/svg">
<path d="M86.036 62.1848C78.7094 82.7284 56.627 94.8591 36.7508 89.3537C16.8746 83.8483 6.63739 62.7655 13.964 42.2219C21.2906 21.6783 43.373 9.54761 63.2492 15.053C83.1254 20.5584 93.3626 41.6412 86.036 62.1848Z" fill="#ED0E0E" stroke="black" stroke-width="1.1"/>
<path d="M51.073 78.0826L38.2291 47.719L75.6429 39.1747C75.6824 39.242 75.7254 39.3167 75.7717 39.3985C76.0231 39.8428 76.3683 40.4945 76.737 41.314C77.4754 42.9551 78.3029 45.2576 78.666 47.9086C79.3885 53.1836 78.2827 59.8656 70.8605 65.5278C63.2512 71.3327 58.1179 74.5307 54.9005 76.2737C53.2923 77.1449 52.1654 77.6512 51.4496 77.9376C51.3081 77.9942 51.1827 78.0422 51.073 78.0826Z" fill="#F5F6F2" stroke="black" stroke-width="1.375"/>
<path d="M54.0552 17.3915L54.0552 17.3915C56.5158 13.3094 60.0405 8.19324 63.9792 4.69568C67.9464 1.1729 72.0819 -0.506477 75.9467 1.64896L75.9468 1.64899C77.1119 2.29857 78.1865 3.26183 79.1598 4.39481L79.16 4.39503C79.439 4.71953 79.7085 5.05691 79.9684 5.40371L79.9685 5.40381C82.3462 8.57525 81.9532 12.3718 79.7825 15.6731L79.1807 16.5883L80.2665 16.7324C82.2115 16.9904 83.7626 18.2898 84.1192 19.9668L84.1192 19.967C84.5359 21.9229 83.2089 23.9556 80.8615 24.6157L80.8615 24.6157C77.7524 25.4901 73.4827 26.763 69.3401 28.2342C65.2122 29.7003 61.1563 31.3818 58.5079 33.0834L58.4542 33.118L58.4077 33.1618C56.4145 35.0426 54.8567 36.8122 54.2422 38.2398C54.0445 38.6988 53.8791 38.9439 53.767 39.0587C53.733 39.024 53.6857 38.9688 53.6268 38.8821C53.4839 38.6716 53.3277 38.3569 53.1651 37.9357C52.5095 36.2363 51.9409 33.319 51.5059 30.4946C50.8112 25.9839 51.6361 21.404 54.0552 17.3915Z" fill="#ED0E0E" stroke="black" stroke-width="1.375"/>
<path d="M51.5018 42.3427C45.0702 48.304 35.7332 49.483 30.6365 45.2122C25.5398 40.9415 26.4054 32.6641 32.837 26.7028C39.2687 20.7415 48.6056 19.5625 53.7023 23.8332C58.799 28.1039 57.9334 36.3814 51.5018 42.3427Z" fill="white" stroke="black" stroke-width="0.6875"/>
<path d="M37.5169 64.8945L43.8645 54.3239L47.9934 55.3234L44.2244 67.4162C43.6265 69.3343 41.5589 70.506 39.6062 70.0333C37.3091 69.4773 36.282 66.951 37.5169 64.8945Z" fill="#ED0E0E" stroke="black" stroke-width="1.375"/>
<path d="M47.9394 64.4814L48.1184 55.5583L55.4807 53.3495L59.3165 63.2794C60.4594 66.2381 58.9232 69.3756 55.8851 70.287C51.9972 71.4535 47.8602 68.4307 47.9394 64.4814Z" fill="#ED0E0E" stroke="black" stroke-width="1.375"/>
<path d="M38.6246 57.195L38.6469 57.1968C43.1609 57.5495 47.9256 57.9218 52.0445 57.6627C56.1774 57.4028 59.618 56.5089 61.5109 54.3641C62.4653 53.2826 62.5354 52.5459 62.2236 52.0355C62.0612 51.7697 61.7841 51.5425 61.4201 51.3506C61.057 51.1591 60.6167 51.0076 60.1409 50.8885C59.1892 50.6503 58.1144 50.5462 57.274 50.5021C56.8545 50.4801 56.495 50.4731 56.2405 50.4716C56.1132 50.4708 56.0123 50.4715 55.9433 50.4723C55.9089 50.4727 55.8824 50.4731 55.8646 50.4735L55.8445 50.4739L55.842 50.4739L22.2499 53.3859C22.5259 53.4765 22.8858 53.5931 23.3157 53.729C24.3757 54.0641 25.8604 54.5166 27.5592 54.9857C30.9592 55.9247 35.2078 56.9281 38.6246 57.195Z" fill="#FFCA8A"/>
<path d="M38.6246 57.195L38.6469 57.1968C43.1609 57.5495 47.9256 57.9218 52.0445 57.6627C56.1774 57.4028 59.618 56.5089 61.5109 54.3641C62.4653 53.2826 62.5354 52.5459 62.2236 52.0355C62.0612 51.7697 61.7841 51.5425 61.4201 51.3506C61.057 51.1591 60.6167 51.0076 60.1409 50.8885C59.1892 50.6503 58.1144 50.5462 57.274 50.5021C56.8545 50.4801 56.495 50.4731 56.2405 50.4716C56.1132 50.4708 56.0123 50.4715 55.9433 50.4723C55.9089 50.4727 55.8824 50.4731 55.8646 50.4735L55.8445 50.4739L55.842 50.4739L22.2499 53.3859C22.5259 53.4765 22.8858 53.5931 23.3157 53.729C24.3757 54.0641 25.8604 54.5166 27.5592 54.9857C30.9592 55.9247 35.2078 56.9281 38.6246 57.195Z" fill="#FFCA8A"/>
<path d="M38.6246 57.195L38.6469 57.1968C43.1609 57.5495 47.9256 57.9218 52.0445 57.6627C56.1774 57.4028 59.618 56.5089 61.5109 54.3641C62.4653 53.2826 62.5354 52.5459 62.2236 52.0355C62.0612 51.7697 61.7841 51.5425 61.4201 51.3506C61.057 51.1591 60.6167 51.0076 60.1409 50.8885C59.1892 50.6503 58.1144 50.5462 57.274 50.5021C56.8545 50.4801 56.495 50.4731 56.2405 50.4716C56.1132 50.4708 56.0123 50.4715 55.9433 50.4723C55.9089 50.4727 55.8824 50.4731 55.8646 50.4735L55.8445 50.4739L55.842 50.4739L22.2499 53.3859C22.5259 53.4765 22.8858 53.5931 23.3157 53.729C24.3757 54.0641 25.8604 54.5166 27.5592 54.9857C30.9592 55.9247 35.2078 56.9281 38.6246 57.195Z" stroke="black" stroke-width="0.275"/>
<path d="M34.9387 46.8807L48.983 39.4381L50.3987 51.0637L21.9722 53.7521L34.9387 46.8807Z" fill="#FFCA8A"/>
<path d="M34.9387 46.8807L48.983 39.4381L50.3987 51.0637L21.9722 53.7521L34.9387 46.8807Z" fill="#FFCA8A"/>
<path d="M34.9387 46.8807L48.983 39.4381L50.3987 51.0637L21.9722 53.7521L34.9387 46.8807Z" stroke="black" stroke-width="0.6875"/>
<ellipse cx="38.9949" cy="29.6591" rx="2.75856" ry="2.43106" fill="black"/>
<path d="M76.7195 39.3829C76.7195 47.4984 69.7298 54.1118 61.0637 54.1118C52.3975 54.1118 45.4078 47.4984 45.4078 39.3829C45.4078 31.2674 52.3975 24.6541 61.0637 24.6541C69.7298 24.6541 76.7195 31.2674 76.7195 39.3829Z" fill="white" stroke="black" stroke-width="0.6875"/>
<ellipse cx="63.2701" cy="38.4106" rx="2.75856" ry="2.43106" fill="black"/>
<path d="M134.156 72.5V57.4688C131.677 59.4271 128.656 60.4062 125.094 60.4062C121.094 60.4062 117.792 59.3125 115.188 57.125C112.604 54.9375 111.312 51.3646 111.312 46.4062V29.8438H124.406V46.6562C124.406 48.1771 124.646 49.2604 125.125 49.9062C125.625 50.5521 126.677 50.875 128.281 50.875C130.219 50.875 132.177 50.4479 134.156 49.5938V29.8438H147.25V72.5H134.156ZM166.75 69.5V72.5H154.281V40.9375H166.75V51.0312C166.75 52.9062 166.635 55.4688 166.406 58.7188C167.719 55.8229 168.833 53.5104 169.75 51.7812L173.469 44.75V40.9375H185.938V72.5H173.469V63.25C173.469 60.9375 173.583 58.375 173.812 55.5625C172.5 58.4792 171.385 60.7917 170.469 62.5L166.75 69.5ZM216.562 51.6562L227.25 72.5H214.375L208.406 59.7812L204.938 63.75V72.5H192.531V40.9375H204.938V52.8125C205.646 51.75 206.385 50.7812 207.156 49.9062L215.125 40.9375H226.156L216.562 51.6562ZM249.594 61.0938L261.219 61.875C260.531 65 258.771 67.6667 255.938 69.875C253.125 72.0625 249.312 73.1562 244.5 73.1562C239.146 73.1562 234.875 71.6146 231.688 68.5312C228.5 65.4271 226.906 61.5833 226.906 57C226.906 52.25 228.479 48.2396 231.625 44.9688C234.771 41.6979 238.969 40.0625 244.219 40.0625C249.302 40.0625 253.406 41.6042 256.531 44.6875C259.677 47.7708 261.25 51.9688 261.25 57.2812C261.25 57.7188 261.24 58.3229 261.219 59.0938H239.938C239.979 61.0938 240.333 62.5833 241 63.5625C241.667 64.5208 242.938 65 244.812 65C247.521 65 249.115 63.6979 249.594 61.0938ZM248.781 52.8438C248.76 50.6979 248.323 49.2604 247.469 48.5312C246.635 47.7812 245.594 47.4062 244.344 47.4062C241.385 47.4062 239.906 49.2188 239.906 52.8438H248.781ZM266.156 72.5V40.9375H278.625V52.2188H284.5V40.9375H296.969V72.5H284.5V59.625H278.625V72.5H266.156ZM303.969 72.5V29.8438H335.438V38.7812H316.688V46.5H323.781C327.74 46.5 330.823 46.9375 333.031 47.8125C335.26 48.6875 337.031 50.1146 338.344 52.0938C339.656 54.0521 340.312 56.4375 340.312 59.25C340.312 61.5833 339.781 63.8542 338.719 66.0625C337.656 68.2708 335.844 69.8958 333.281 70.9375C330.719 71.9792 328.125 72.5 325.5 72.5H303.969ZM316.688 63H323.062C325.688 63 327 61.6875 327 59.0625C327 56.5208 325.396 55.25 322.188 55.25H316.688V63ZM357.812 82.5312H345.344V40.7188H356.812V45.2188C358.417 41.7812 361.406 40.0625 365.781 40.0625C369.573 40.0625 372.542 41.5417 374.688 44.5C376.833 47.4375 377.906 51.4479 377.906 56.5312C377.906 61.6146 376.802 65.6562 374.594 68.6562C372.406 71.6562 369.51 73.1562 365.906 73.1562C362.365 73.1562 359.667 71.8021 357.812 69.0938V82.5312ZM357.812 60.875C357.812 62.2917 358.135 63.3958 358.781 64.1875C359.427 64.9583 360.229 65.3438 361.188 65.3438C362.688 65.3438 363.719 64.6562 364.281 63.2812C364.844 61.8854 365.125 59.75 365.125 56.875C365.125 53.5625 364.802 51.2396 364.156 49.9062C363.51 48.5521 362.542 47.875 361.25 47.875C360.479 47.875 359.708 48.1771 358.938 48.7812C358.188 49.3854 357.812 50.375 357.812 51.75V60.875ZM398.438 73.1562C393.167 73.1562 388.979 71.5208 385.875 68.25C382.771 64.9583 381.219 61.1042 381.219 56.6875C381.219 51.9375 382.833 47.9792 386.062 44.8125C389.312 41.6458 393.531 40.0625 398.719 40.0625C403.948 40.0625 408.146 41.625 411.312 44.75C414.5 47.875 416.094 51.7917 416.094 56.5C416.094 61.25 414.479 65.2188 411.25 68.4062C408.042 71.5729 403.771 73.1562 398.438 73.1562ZM398.625 65.5938C400.562 65.5938 401.74 64.5938 402.156 62.5938C402.594 60.5729 402.812 58.4688 402.812 56.2812C402.812 53.3021 402.51 51.1562 401.906 49.8438C401.302 48.5312 400.219 47.875 398.656 47.875C397.219 47.875 396.167 48.5521 395.5 49.9062C394.833 51.2604 394.5 53.4896 394.5 56.5938C394.5 60.2396 394.844 62.6562 395.531 63.8438C396.219 65.0104 397.25 65.5938 398.625 65.5938Z" fill="black"/>
</svg>
