<svg width="100" height="100" viewBox="0 0 100 100" fill="none" xmlns="http://www.w3.org/2000/svg">
<path d="M86.036 62.1848C78.7094 82.7284 56.627 94.8591 36.7508 89.3537C16.8746 83.8483 6.63739 62.7655 13.964 42.2219C21.2906 21.6784 43.373 9.54761 63.2492 15.053C83.1254 20.5584 93.3626 41.6412 86.036 62.1848Z" fill="#ED0E0E" stroke="black" stroke-width="1.1"/>
<path d="M51.073 78.0826L38.2291 47.719L75.6429 39.1747C75.6824 39.242 75.7254 39.3167 75.7717 39.3985C76.0231 39.8428 76.3683 40.4945 76.737 41.314C77.4754 42.9551 78.3029 45.2576 78.666 47.9086C79.3885 53.1836 78.2827 59.8656 70.8605 65.5278C63.2513 71.3327 58.1179 74.5307 54.9005 76.2737C53.2923 77.1449 52.1654 77.6512 51.4496 77.9376C51.3081 77.9942 51.1827 78.0422 51.073 78.0826Z" fill="#F5F6F2" stroke="black" stroke-width="1.375"/>
<path d="M54.0552 17.3915L54.0552 17.3915C56.5158 13.3094 60.0405 8.19324 63.9792 4.69568C67.9464 1.1729 72.0819 -0.506477 75.9467 1.64896L75.9468 1.64899C77.1119 2.29857 78.1865 3.26183 79.1598 4.39481L79.16 4.39503C79.439 4.71953 79.7085 5.05691 79.9684 5.40371L79.9685 5.40381C82.3462 8.57525 81.9532 12.3718 79.7825 15.6731L79.1807 16.5883L80.2665 16.7324C82.2115 16.9904 83.7626 18.2898 84.1192 19.9668L84.1192 19.967C84.5359 21.9229 83.2089 23.9556 80.8615 24.6157L80.8615 24.6157C77.7524 25.4901 73.4827 26.763 69.3401 28.2342C65.2122 29.7003 61.1563 31.3818 58.5079 33.0834L58.4542 33.118L58.4077 33.1618C56.4146 35.0425 54.8569 36.812 54.2423 38.2396C54.0445 38.6987 53.8791 38.9439 53.767 39.0587C53.733 39.024 53.6857 38.9688 53.6268 38.8821C53.4839 38.6716 53.3277 38.3569 53.1651 37.9357C52.5095 36.2363 51.9409 33.319 51.5059 30.4946C50.8112 25.9839 51.6361 21.404 54.0552 17.3915Z" fill="#ED0E0E" stroke="black" stroke-width="1.375"/>
<path d="M51.5018 42.3427C45.0702 48.304 35.7332 49.483 30.6365 45.2122C25.5398 40.9415 26.4054 32.6641 32.837 26.7028C39.2687 20.7415 48.6056 19.5625 53.7023 23.8332C58.799 28.1039 57.9334 36.3814 51.5018 42.3427Z" fill="white" stroke="black" stroke-width="0.6875"/>
<path d="M37.5169 64.8945L43.8645 54.3239L47.9934 55.3234L44.2244 67.4162C43.6265 69.3343 41.5589 70.506 39.6062 70.0333C37.3091 69.4773 36.282 66.951 37.5169 64.8945Z" fill="#ED0E0E" stroke="black" stroke-width="1.375"/>
<path d="M47.9394 64.4814L48.1184 55.5583L55.4807 53.3495L59.3165 63.2794C60.4594 66.2381 58.9232 69.3756 55.8851 70.287C51.9972 71.4535 47.8602 68.4307 47.9394 64.4814Z" fill="#ED0E0E" stroke="black" stroke-width="1.375"/>
<path d="M38.6246 57.195L38.6469 57.1968C43.1609 57.5495 47.9256 57.9218 52.0445 57.6627C56.1774 57.4028 59.618 56.5089 61.5109 54.3641C62.4653 53.2826 62.5354 52.5459 62.2236 52.0355C62.0612 51.7697 61.7841 51.5425 61.4201 51.3506C61.057 51.1591 60.6167 51.0076 60.1409 50.8885C59.1892 50.6503 58.1144 50.5462 57.274 50.5021C56.8545 50.4801 56.495 50.4731 56.2405 50.4716C56.1132 50.4708 56.0123 50.4715 55.9433 50.4723C55.9089 50.4727 55.8824 50.4731 55.8646 50.4735L55.8445 50.4739L55.842 50.4739L22.2499 53.3859C22.5259 53.4765 22.8858 53.5931 23.3157 53.729C24.3757 54.0641 25.8604 54.5166 27.5592 54.9857C30.9592 55.9247 35.2078 56.9281 38.6246 57.195Z" fill="#FFCA8A"/>
<path d="M38.6246 57.195L38.6469 57.1968C43.1609 57.5495 47.9256 57.9218 52.0445 57.6627C56.1774 57.4028 59.618 56.5089 61.5109 54.3641C62.4653 53.2826 62.5354 52.5459 62.2236 52.0355C62.0612 51.7697 61.7841 51.5425 61.4201 51.3506C61.057 51.1591 60.6167 51.0076 60.1409 50.8885C59.1892 50.6503 58.1144 50.5462 57.274 50.5021C56.8545 50.4801 56.495 50.4731 56.2405 50.4716C56.1132 50.4708 56.0123 50.4715 55.9433 50.4723C55.9089 50.4727 55.8824 50.4731 55.8646 50.4735L55.8445 50.4739L55.842 50.4739L22.2499 53.3859C22.5259 53.4765 22.8858 53.5931 23.3157 53.729C24.3757 54.0641 25.8604 54.5166 27.5592 54.9857C30.9592 55.9247 35.2078 56.9281 38.6246 57.195Z" fill="#FFCA8A"/>
<path d="M38.6246 57.195L38.6469 57.1968C43.1609 57.5495 47.9256 57.9218 52.0445 57.6627C56.1774 57.4028 59.618 56.5089 61.5109 54.3641C62.4653 53.2826 62.5354 52.5459 62.2236 52.0355C62.0612 51.7697 61.7841 51.5425 61.4201 51.3506C61.057 51.1591 60.6167 51.0076 60.1409 50.8885C59.1892 50.6503 58.1144 50.5462 57.274 50.5021C56.8545 50.4801 56.495 50.4731 56.2405 50.4716C56.1132 50.4708 56.0123 50.4715 55.9433 50.4723C55.9089 50.4727 55.8824 50.4731 55.8646 50.4735L55.8445 50.4739L55.842 50.4739L22.2499 53.3859C22.5259 53.4765 22.8858 53.5931 23.3157 53.729C24.3757 54.0641 25.8604 54.5166 27.5592 54.9857C30.9592 55.9247 35.2078 56.9281 38.6246 57.195Z" stroke="black" stroke-width="0.275"/>
<path d="M34.9387 46.8807L48.983 39.4381L50.3987 51.0637L21.9722 53.7521L34.9387 46.8807Z" fill="#FFCA8A"/>
<path d="M34.9387 46.8807L48.983 39.4381L50.3987 51.0637L21.9722 53.7521L34.9387 46.8807Z" fill="#FFCA8A"/>
<path d="M34.9387 46.8807L48.983 39.4381L50.3987 51.0637L21.9722 53.7521L34.9387 46.8807Z" stroke="black" stroke-width="0.6875"/>
<ellipse cx="38.9949" cy="29.6591" rx="2.75856" ry="2.43106" fill="black"/>
<path d="M76.7195 39.3829C76.7195 47.4984 69.7298 54.1118 61.0637 54.1118C52.3975 54.1118 45.4078 47.4984 45.4078 39.3829C45.4078 31.2674 52.3975 24.6541 61.0637 24.6541C69.7298 24.6541 76.7195 31.2674 76.7195 39.3829Z" fill="white" stroke="black" stroke-width="0.6875"/>
<ellipse cx="63.2701" cy="38.4106" rx="2.75856" ry="2.43106" fill="black"/>
</svg>
