<svg width="70" height="70" viewBox="0 0 70 70" fill="none" xmlns="http://www.w3.org/2000/svg">
<path fill-rule="evenodd" clip-rule="evenodd" d="M51 44.1429V28.1429L39.5714 16.7144H28.1429C26.9304 16.7144 25.7677 17.196 24.9104 18.0533C24.0531 18.9106 23.5714 20.0734 23.5714 21.2858V44.1429C23.5714 45.3553 24.0531 46.5181 24.9104 47.3754C25.7677 48.2327 26.9304 48.7144 28.1429 48.7144H46.4286C47.641 48.7144 48.8037 48.2327 49.6611 47.3754C50.5184 46.5181 51 45.3553 51 44.1429Z" stroke="#FF9A62" stroke-width="2.28571" stroke-linecap="round" stroke-linejoin="round"/>
<path d="M19 21.2858V44.1429C19 46.5678 19.9633 48.8933 21.6779 50.6079C23.3925 52.3225 25.718 53.2858 28.1429 53.2858H46.4286M39.5714 16.7144V23.5715C39.5714 24.7839 40.0531 25.9467 40.9104 26.804C41.7677 27.6613 42.9304 28.1429 44.1429 28.1429H51" stroke="#FF9A62" stroke-width="2.28571" stroke-linecap="round" stroke-linejoin="round"/>
<rect x="2.5" y="2.5" width="65" height="65" rx="27.5" stroke="#FF9A62" stroke-width="5"/>
</svg>
