<svg width="610" height="107" viewBox="0 0 610 107" fill="none" xmlns="http://www.w3.org/2000/svg">
<path d="M45.8125 86V55.9375C40.8542 59.8542 34.8125 61.8125 27.6875 61.8125C19.6875 61.8125 13.0833 59.625 7.875 55.25C2.70833 50.875 0.125 43.7292 0.125 33.8125V0.6875H26.3125V34.3125C26.3125 37.3542 26.7917 39.5208 27.75 40.8125C28.75 42.1042 30.8542 42.75 34.0625 42.75C37.9375 42.75 41.8542 41.8958 45.8125 40.1875V0.6875H72V86H45.8125ZM111 80V86H86.0625V22.875H111V43.0625C111 46.8125 110.771 51.9375 110.312 58.4375C112.938 52.6458 115.167 48.0208 117 44.5625L124.438 30.5V22.875H149.375V86H124.438V67.5C124.438 62.875 124.667 57.75 125.125 52.125C122.5 57.9583 120.271 62.5833 118.438 66L111 80ZM210.625 44.3125L232 86H206.25L194.312 60.5625L187.375 68.5V86H162.562V22.875H187.375V46.625C188.792 44.5 190.271 42.5625 191.812 40.8125L207.75 22.875H229.812L210.625 44.3125ZM276.688 63.1875L299.938 64.75C298.562 71 295.042 76.3333 289.375 80.75C283.75 85.125 276.125 87.3125 266.5 87.3125C255.792 87.3125 247.25 84.2292 240.875 78.0625C234.5 71.8542 231.312 64.1667 231.312 55C231.312 45.5 234.458 37.4792 240.75 30.9375C247.042 24.3958 255.438 21.125 265.938 21.125C276.104 21.125 284.312 24.2083 290.562 30.375C296.854 36.5417 300 44.9375 300 55.5625C300 56.4375 299.979 57.6458 299.938 59.1875H257.375C257.458 63.1875 258.167 66.1667 259.5 68.125C260.833 70.0417 263.375 71 267.125 71C272.542 71 275.729 68.3958 276.688 63.1875ZM275.062 46.6875C275.021 42.3958 274.146 39.5208 272.438 38.0625C270.771 36.5625 268.688 35.8125 266.188 35.8125C260.271 35.8125 257.312 39.4375 257.312 46.6875H275.062ZM309.812 86V22.875H334.75V45.4375H346.5V22.875H371.438V86H346.5V60.25H334.75V86H309.812ZM385.438 86V0.6875H448.375V18.5625H410.875V34H425.062C432.979 34 439.146 34.875 443.562 36.625C448.021 38.375 451.562 41.2292 454.188 45.1875C456.812 49.1042 458.125 53.875 458.125 59.5C458.125 64.1667 457.062 68.7083 454.938 73.125C452.812 77.5417 449.188 80.7917 444.062 82.875C438.938 84.9583 433.75 86 428.5 86H385.438ZM410.875 67H423.625C428.875 67 431.5 64.375 431.5 59.125C431.5 54.0417 428.292 51.5 421.875 51.5H410.875V67ZM493.125 106.062H468.188V22.4375H491.125V31.4375C494.333 24.5625 500.312 21.125 509.062 21.125C516.646 21.125 522.583 24.0833 526.875 30C531.167 35.875 533.312 43.8958 533.312 54.0625C533.312 64.2292 531.104 72.3125 526.688 78.3125C522.312 84.3125 516.521 87.3125 509.312 87.3125C502.229 87.3125 496.833 84.6042 493.125 79.1875V106.062ZM493.125 62.75C493.125 65.5833 493.771 67.7917 495.062 69.375C496.354 70.9167 497.958 71.6875 499.875 71.6875C502.875 71.6875 504.938 70.3125 506.062 67.5625C507.188 64.7708 507.75 60.5 507.75 54.75C507.75 48.125 507.104 43.4792 505.812 40.8125C504.521 38.1042 502.583 36.75 500 36.75C498.458 36.75 496.917 37.3542 495.375 38.5625C493.875 39.7708 493.125 41.75 493.125 44.5V62.75ZM574.375 87.3125C563.833 87.3125 555.458 84.0417 549.25 77.5C543.042 70.9167 539.938 63.2083 539.938 54.375C539.938 44.875 543.167 36.9583 549.625 30.625C556.125 24.2917 564.562 21.125 574.938 21.125C585.396 21.125 593.792 24.25 600.125 30.5C606.5 36.75 609.688 44.5833 609.688 54C609.688 63.5 606.458 71.4375 600 77.8125C593.583 84.1458 585.042 87.3125 574.375 87.3125ZM574.75 72.1875C578.625 72.1875 580.979 70.1875 581.812 66.1875C582.688 62.1458 583.125 57.9375 583.125 53.5625C583.125 47.6042 582.521 43.3125 581.312 40.6875C580.104 38.0625 577.938 36.75 574.812 36.75C571.938 36.75 569.833 38.1042 568.5 40.8125C567.167 43.5208 566.5 47.9792 566.5 54.1875C566.5 61.4792 567.188 66.3125 568.562 68.6875C569.938 71.0208 572 72.1875 574.75 72.1875Z" fill="black"/>
</svg>
