<svg width="574" height="168" viewBox="0 0 574 168" fill="none" xmlns="http://www.w3.org/2000/svg">
<path d="M115.498 157L116.358 153.23H117.237C118.396 153.23 119.125 153.074 119.424 152.762C119.737 152.449 120.004 151.798 120.225 150.809L123.565 135.887C123.734 135.145 123.819 134.702 123.819 134.559C123.819 134.207 123.682 133.947 123.409 133.777C123.135 133.608 122.608 133.523 121.827 133.523H120.83L121.709 129.754H134.834L133.955 133.523H132.92C131.996 133.523 131.364 133.673 131.026 133.973C130.7 134.272 130.42 134.969 130.186 136.062L126.905 150.535C126.761 151.134 126.69 151.551 126.69 151.785C126.69 152.423 127.432 152.742 128.916 152.742H132.686C133.597 152.742 134.216 152.586 134.541 152.273C134.867 151.948 135.166 151.206 135.44 150.047L138.643 135.887C138.773 135.288 138.838 134.858 138.838 134.598C138.838 134.22 138.708 133.947 138.448 133.777C138.2 133.608 137.718 133.523 137.002 133.523H135.928L136.787 129.754H149.893L148.994 133.523H147.959C147.035 133.523 146.41 133.673 146.084 133.973C145.759 134.272 145.472 134.969 145.225 136.062L141.944 150.535C141.8 151.134 141.729 151.551 141.729 151.785C141.729 152.423 142.471 152.742 143.955 152.742H147.764C148.675 152.742 149.294 152.586 149.619 152.273C149.958 151.948 150.257 151.206 150.518 150.047L153.721 135.887C153.864 135.288 153.936 134.858 153.936 134.598C153.936 134.22 153.806 133.947 153.545 133.777C153.285 133.608 152.803 133.523 152.1 133.523H151.026L151.866 129.754H165.01L164.151 133.523H163.369C162.263 133.523 161.547 133.667 161.221 133.953C160.896 134.227 160.603 134.93 160.342 136.062L157.002 150.672C156.807 151.505 156.709 152.052 156.709 152.312C156.709 152.651 156.846 152.892 157.119 153.035C157.406 153.165 157.953 153.23 158.76 153.23H159.737L158.916 157H115.498ZM181.162 139.207L182.393 137.508H186.885L183.897 150.594C183.702 151.492 183.604 152.065 183.604 152.312C183.604 152.547 183.688 152.742 183.858 152.898C184.027 153.042 184.242 153.113 184.502 153.113C184.776 153.113 185.134 153.003 185.577 152.781C186.032 152.56 186.514 152.215 187.022 151.746L189.268 154.324C188.083 155.444 186.924 156.251 185.791 156.746C184.672 157.228 183.526 157.469 182.354 157.469C181.534 157.469 180.785 157.319 180.108 157.02C179.444 156.733 178.877 156.329 178.409 155.809C177.953 155.288 177.634 154.695 177.452 154.031C176.879 154.734 176.188 155.359 175.381 155.906C174.587 156.453 173.812 156.85 173.057 157.098C172.315 157.345 171.488 157.469 170.577 157.469C169.17 157.469 167.933 157.143 166.866 156.492C165.811 155.841 164.978 154.93 164.366 153.758C163.767 152.573 163.467 151.16 163.467 149.52C163.467 146.134 164.672 143.211 167.08 140.75C169.489 138.276 172.25 137.039 175.362 137.039C176.494 137.039 177.497 137.202 178.369 137.527C179.242 137.84 180.173 138.4 181.162 139.207ZM179.561 142.449C178.845 141.902 178.239 141.531 177.744 141.336C177.25 141.141 176.742 141.043 176.221 141.043C174.515 141.043 173.09 141.961 171.944 143.797C170.811 145.633 170.244 147.618 170.244 149.754C170.244 150.652 170.472 151.388 170.928 151.961C171.384 152.521 171.931 152.801 172.569 152.801C173.285 152.801 173.988 152.547 174.678 152.039C175.629 151.323 176.54 150.145 177.412 148.504C178.298 146.863 179.014 144.845 179.561 142.449ZM194.151 142.449H191.065L191.983 138.719C194.47 138.549 197.009 137.99 199.6 137.039H201.573L198.682 149.754C198.474 150.678 198.369 151.303 198.369 151.629C198.369 151.993 198.493 152.28 198.741 152.488C198.988 152.697 199.346 152.801 199.815 152.801C200.388 152.801 201.013 152.54 201.69 152.02C202.692 151.238 203.604 150.047 204.424 148.445C205.244 146.844 205.915 144.845 206.436 142.449L207.51 137.508H213.682L209.659 155.359C208.851 158.875 207.36 161.473 205.186 163.152C202.777 165.001 199.717 165.926 196.006 165.926C193.415 165.926 191.475 165.483 190.186 164.598C188.897 163.712 188.252 162.69 188.252 161.531C188.252 160.75 188.539 160.079 189.112 159.52C189.685 158.96 190.375 158.68 191.182 158.68C191.664 158.68 192.139 158.797 192.608 159.031C192.933 159.214 193.382 159.65 193.955 160.34C194.476 160.965 194.971 161.395 195.44 161.629C195.909 161.863 196.455 161.98 197.08 161.98C197.81 161.98 198.552 161.811 199.307 161.473C200.062 161.147 200.746 160.672 201.358 160.047C201.97 159.422 202.484 158.66 202.901 157.762C203.33 156.876 203.669 155.73 203.916 154.324C203.213 155.132 202.543 155.743 201.905 156.16C201.28 156.577 200.583 156.896 199.815 157.117C199.047 157.352 198.226 157.469 197.354 157.469C196.208 157.469 195.271 157.28 194.541 156.902C193.812 156.512 193.207 155.939 192.725 155.184C192.256 154.415 192.022 153.647 192.022 152.879C192.022 152.267 192.159 151.342 192.432 150.105L194.151 142.449ZM218.643 142.488H215.596L216.475 138.777C219.431 138.452 221.911 137.872 223.916 137.039H225.791L224.971 140.789C225.752 139.799 226.475 139.07 227.139 138.602C227.803 138.12 228.558 137.742 229.405 137.469C230.264 137.182 231.143 137.039 232.041 137.039C233.369 137.039 234.541 137.352 235.557 137.977C236.573 138.589 237.373 139.493 237.959 140.691C238.558 141.876 238.858 143.257 238.858 144.832C238.858 146.98 238.291 149.083 237.159 151.141C236.026 153.185 234.567 154.754 232.784 155.848C231 156.928 229.073 157.469 227.002 157.469C226.026 157.469 225.14 157.345 224.346 157.098C223.565 156.85 222.718 156.421 221.807 155.809L220.889 159.988C220.759 160.561 220.694 160.926 220.694 161.082C220.694 161.408 220.856 161.642 221.182 161.785C221.416 161.889 221.983 161.941 222.881 161.941H223.799L222.881 165.711H210.342L211.162 161.941H211.866C212.738 161.941 213.311 161.889 213.584 161.785C213.858 161.694 214.079 161.518 214.248 161.258C214.418 161.01 214.6 160.47 214.795 159.637L218.643 142.488ZM222.725 151.961C223.728 152.977 224.821 153.484 226.006 153.484C226.892 153.484 227.777 153.159 228.662 152.508C229.561 151.844 230.342 150.776 231.006 149.305C231.67 147.82 232.002 146.31 232.002 144.773C232.002 143.771 231.787 143.016 231.358 142.508C230.928 141.987 230.362 141.727 229.659 141.727C228.89 141.727 228.044 142.098 227.119 142.84C226.208 143.582 225.303 144.852 224.405 146.648C223.78 147.911 223.311 149.253 222.998 150.672L222.725 151.961ZM251.866 157L250.85 146.59L247.354 153.035C245.739 155.991 243.597 157.469 240.928 157.469C238.858 157.469 237.823 156.557 237.823 154.734C237.823 154.083 237.985 153.536 238.311 153.094C238.636 152.651 239.014 152.358 239.444 152.215C239.886 152.059 240.739 151.896 242.002 151.727C242.992 151.609 243.669 151.375 244.034 151.023C244.411 150.659 244.919 149.839 245.557 148.562L248.643 142.469H245.557L246.416 138.699C248.487 138.621 250.772 138.068 253.272 137.039H255.928L256.944 148.406L265.303 137.508H271.221L268.33 150.477C268.122 151.414 268.018 151.98 268.018 152.176C268.018 152.775 268.317 153.074 268.916 153.074C269.672 153.074 270.518 152.612 271.455 151.688L273.662 154.246C271.436 156.395 269.151 157.469 266.807 157.469C265.284 157.469 264.066 157.046 263.155 156.199C262.243 155.353 261.787 154.37 261.787 153.25C261.787 152.781 261.872 152.117 262.041 151.258L262.979 146.727L255.362 157H251.866ZM292.842 139.207L294.073 137.508H298.565L295.577 150.594C295.381 151.492 295.284 152.065 295.284 152.312C295.284 152.547 295.368 152.742 295.537 152.898C295.707 153.042 295.922 153.113 296.182 153.113C296.455 153.113 296.813 153.003 297.256 152.781C297.712 152.56 298.194 152.215 298.702 151.746L300.948 154.324C299.763 155.444 298.604 156.251 297.471 156.746C296.351 157.228 295.205 157.469 294.034 157.469C293.213 157.469 292.465 157.319 291.787 157.02C291.123 156.733 290.557 156.329 290.088 155.809C289.632 155.288 289.313 154.695 289.131 154.031C288.558 154.734 287.868 155.359 287.061 155.906C286.267 156.453 285.492 156.85 284.737 157.098C283.994 157.345 283.168 157.469 282.256 157.469C280.85 157.469 279.613 157.143 278.545 156.492C277.491 155.841 276.657 154.93 276.045 153.758C275.446 152.573 275.147 151.16 275.147 149.52C275.147 146.134 276.351 143.211 278.76 140.75C281.169 138.276 283.929 137.039 287.041 137.039C288.174 137.039 289.177 137.202 290.049 137.527C290.922 137.84 291.853 138.4 292.842 139.207ZM291.241 142.449C290.524 141.902 289.919 141.531 289.424 141.336C288.929 141.141 288.422 141.043 287.901 141.043C286.195 141.043 284.769 141.961 283.623 143.797C282.491 145.633 281.924 147.618 281.924 149.754C281.924 150.652 282.152 151.388 282.608 151.961C283.063 152.521 283.61 152.801 284.248 152.801C284.965 152.801 285.668 152.547 286.358 152.039C287.308 151.323 288.22 150.145 289.092 148.504C289.978 146.863 290.694 144.845 291.241 142.449ZM322.119 144.207L321.123 148.523H300.655L301.651 144.207H322.119ZM326.475 129.754H347.08L349.639 138.016L346.045 139.168C345.59 137.788 344.815 136.596 343.721 135.594C342.64 134.591 340.733 134.09 337.998 134.09H335.459L333.897 140.828H336.514C339.574 140.828 341.911 141.082 343.526 141.59C345.153 142.098 346.371 142.866 347.178 143.895C347.998 144.923 348.409 146.206 348.409 147.742C348.409 149.37 348.005 150.848 347.198 152.176C346.403 153.504 345.134 154.643 343.389 155.594C341.644 156.531 338.48 157 333.897 157H320.303L321.143 153.23H321.846C322.927 153.23 323.662 153.113 324.053 152.879C324.444 152.645 324.737 152.111 324.932 151.277L328.467 135.711C328.571 135.255 328.623 134.904 328.623 134.656C328.623 134.214 328.493 133.914 328.233 133.758C327.972 133.602 327.484 133.523 326.768 133.523H325.616L326.475 129.754ZM332.998 144.754L331.514 151.18C331.41 151.635 331.358 151.948 331.358 152.117C331.358 152.391 331.436 152.566 331.592 152.645C331.748 152.71 332.126 152.742 332.725 152.742H334.952C336.371 152.742 337.504 152.605 338.35 152.332C339.196 152.059 339.932 151.512 340.557 150.691C341.195 149.858 341.514 148.973 341.514 148.035C341.514 147.163 341.195 146.401 340.557 145.75C339.932 145.086 338.519 144.754 336.319 144.754H332.998ZM368.897 139.207L370.127 137.508H374.619L371.631 150.594C371.436 151.492 371.338 152.065 371.338 152.312C371.338 152.547 371.423 152.742 371.592 152.898C371.761 153.042 371.976 153.113 372.237 153.113C372.51 153.113 372.868 153.003 373.311 152.781C373.767 152.56 374.248 152.215 374.756 151.746L377.002 154.324C375.817 155.444 374.659 156.251 373.526 156.746C372.406 157.228 371.26 157.469 370.088 157.469C369.268 157.469 368.519 157.319 367.842 157.02C367.178 156.733 366.612 156.329 366.143 155.809C365.687 155.288 365.368 154.695 365.186 154.031C364.613 154.734 363.923 155.359 363.116 155.906C362.321 156.453 361.547 156.85 360.791 157.098C360.049 157.345 359.222 157.469 358.311 157.469C356.905 157.469 355.668 157.143 354.6 156.492C353.545 155.841 352.712 154.93 352.1 153.758C351.501 152.573 351.202 151.16 351.202 149.52C351.202 146.134 352.406 143.211 354.815 140.75C357.224 138.276 359.984 137.039 363.096 137.039C364.229 137.039 365.231 137.202 366.104 137.527C366.976 137.84 367.907 138.4 368.897 139.207ZM367.295 142.449C366.579 141.902 365.974 141.531 365.479 141.336C364.984 141.141 364.476 141.043 363.955 141.043C362.25 141.043 360.824 141.961 359.678 143.797C358.545 145.633 357.979 147.618 357.979 149.754C357.979 150.652 358.207 151.388 358.662 151.961C359.118 152.521 359.665 152.801 360.303 152.801C361.019 152.801 361.722 152.547 362.412 152.039C363.363 151.323 364.274 150.145 365.147 148.504C366.032 146.863 366.748 144.845 367.295 142.449ZM382.354 142.488H379.307L380.186 138.777C383.142 138.452 385.622 137.872 387.627 137.039H389.502L388.682 140.789C389.463 139.799 390.186 139.07 390.85 138.602C391.514 138.12 392.269 137.742 393.116 137.469C393.975 137.182 394.854 137.039 395.752 137.039C397.08 137.039 398.252 137.352 399.268 137.977C400.284 138.589 401.084 139.493 401.67 140.691C402.269 141.876 402.569 143.257 402.569 144.832C402.569 146.98 402.002 149.083 400.869 151.141C399.737 153.185 398.278 154.754 396.494 155.848C394.711 156.928 392.784 157.469 390.713 157.469C389.737 157.469 388.851 157.345 388.057 157.098C387.276 156.85 386.429 156.421 385.518 155.809L384.6 159.988C384.47 160.561 384.405 160.926 384.405 161.082C384.405 161.408 384.567 161.642 384.893 161.785C385.127 161.889 385.694 161.941 386.592 161.941H387.51L386.592 165.711H374.053L374.873 161.941H375.577C376.449 161.941 377.022 161.889 377.295 161.785C377.569 161.694 377.79 161.518 377.959 161.258C378.129 161.01 378.311 160.47 378.506 159.637L382.354 142.488ZM386.436 151.961C387.438 152.977 388.532 153.484 389.717 153.484C390.603 153.484 391.488 153.159 392.373 152.508C393.272 151.844 394.053 150.776 394.717 149.305C395.381 147.82 395.713 146.31 395.713 144.773C395.713 143.771 395.498 143.016 395.069 142.508C394.639 141.987 394.073 141.727 393.369 141.727C392.601 141.727 391.755 142.098 390.83 142.84C389.919 143.582 389.014 144.852 388.116 146.648C387.491 147.911 387.022 149.253 386.709 150.672L386.436 151.961Z" fill="black"/>
<g filter="url(#filter0_d_21_353)">
<path d="M91.0006 75.2832C90.0436 75.7936 85.6572 78.2181 77.8414 82.5566C75.0979 84.0879 71.9078 85.4437 68.2711 86.624C64.6344 87.7725 61.3645 88.3467 58.4615 88.3467C54.1549 88.3467 50.7734 87.1025 48.317 84.6143C45.8925 82.0941 44.6803 76.1445 44.6803 66.7656C44.6803 62.778 45.2864 57.8333 46.4987 51.9316C47.7109 45.998 49.4655 42.5368 51.7623 41.5479C54.0911 40.527 55.8138 40.0166 56.9303 40.0166C58.1106 40.0166 59.0677 40.7025 59.8014 42.0742C60.567 43.446 60.9498 45.1846 60.9498 47.29C60.9498 48.0238 60.1842 51.4212 58.653 57.4824C57.0898 63.7031 56.3082 68.4564 56.3082 71.7422C56.3082 74.1029 56.6432 75.6979 57.3131 76.5273C58.0149 77.3249 59.0996 77.7236 60.567 77.7236C62.5768 77.7236 66.8515 76.2881 73.3912 73.417C79.9628 70.5459 84.3014 68.2171 86.4069 66.4307C88.5442 64.6442 90.0276 63.3363 90.8571 62.5068C91.6865 61.6455 92.1012 59.2051 92.1012 55.1855C92.1012 53.5586 92.0214 51.82 91.8619 49.9697C91.6067 46.9072 92.3086 44.5306 93.9674 42.8398C95.6582 41.1172 97.6839 40.2559 100.045 40.2559C101.48 40.2559 102.82 40.8141 104.064 41.9307C105.34 43.0153 105.978 44.4668 105.978 46.2852C105.978 47.306 105.675 49.5231 105.069 52.9365C104.367 56.9242 103.346 65.4098 102.006 78.3936C100.699 91.3773 99.9329 100.214 99.7096 104.903C99.5501 108.253 99.3906 110.933 99.2311 112.942C99.0716 114.92 98.2421 116.499 96.7428 117.68C95.2434 118.892 93.4889 119.498 91.4791 119.498C89.7884 119.498 88.4804 118.685 87.5553 117.058C86.6302 115.463 86.1676 113.564 86.1676 111.363C86.1676 108.62 86.8694 103.484 88.2731 95.9551C88.7516 93.2116 89.6608 86.321 91.0006 75.2832ZM153.83 97.4863C150.767 103.069 147.21 107.503 143.159 110.789C139.139 114.075 135.056 115.718 130.909 115.718C128.452 115.718 125.964 114.426 123.444 111.842C120.956 109.258 119.712 105.286 119.712 99.9268C119.712 96.1305 120.669 90.4043 122.583 82.748C124.241 76.4316 125.071 71.6305 125.071 68.3447C126.347 65.665 128.341 64.3252 131.052 64.3252C132.903 64.3252 134.37 64.9473 135.455 66.1914C136.571 67.4036 137.13 68.6318 137.13 69.876C137.13 72.141 136.332 75.363 134.737 79.542C133.812 82.0303 132.807 85.5553 131.722 90.1172C130.67 94.6471 130.143 97.5501 130.143 98.8262C130.143 103.069 131.02 105.19 132.775 105.19C135.55 105.19 139.299 102.527 144.02 97.1992C148.741 91.8717 151.82 86.4167 153.255 80.834C154.691 75.3789 155.967 71.806 157.084 70.1152C158.2 68.4245 159.779 67.5791 161.821 67.5791C165.139 67.5791 166.797 69.4294 166.797 73.1299C166.797 73.6722 166.526 74.7568 165.984 76.3838C164.102 82.0303 163.161 88.3945 163.161 95.4766C163.161 103.771 164.564 108.731 167.372 110.358C168.297 110.901 168.759 111.571 168.759 112.368C168.759 113.517 167.946 114.601 166.319 115.622C164.692 116.643 163.145 117.153 161.677 117.153C159.157 117.153 157.211 115.383 155.839 111.842C154.5 108.269 153.83 103.484 153.83 97.4863ZM205.222 90.5957C206.658 90.9466 207.998 91.5687 209.242 92.4619C210.486 93.3551 211.969 94.9821 213.692 97.3428C217.01 101.937 219.626 104.951 221.54 106.387C223.454 107.822 225.543 108.54 227.808 108.54C230.169 108.54 231.349 109.274 231.349 110.741C231.349 112.145 230.536 113.564 228.909 115C227.282 116.436 224.714 117.153 221.205 117.153C215.813 117.153 210.342 112.703 204.792 103.803C201.57 98.571 198.874 95.9551 196.705 95.9551C196.418 95.9551 195.636 96.1624 194.36 96.5771C193.116 96.9919 192.302 97.3747 191.92 97.7256C191.537 98.0446 191.218 100.07 190.963 103.803L190.436 112.607C190.372 114.043 189.782 115.271 188.666 116.292C187.549 117.345 186.161 117.871 184.503 117.871C182.748 117.871 181.376 117.377 180.387 116.388C179.398 115.431 178.904 114.458 178.904 113.469C178.904 112.257 179.303 109.657 180.1 105.669C182.014 95.6201 183.53 83.3382 184.646 68.8232C184.774 66.973 185.539 65.2822 186.943 63.751C188.347 62.2197 189.99 61.4541 191.872 61.4541C193.18 61.4541 194.264 62.0124 195.126 63.1289C195.987 64.2454 196.418 65.5374 196.418 67.0049C196.418 68.1533 196.226 69.3177 195.843 70.498C195.365 71.8698 194.679 74.6771 193.786 78.9199C192.924 83.1628 192.398 86.4007 192.207 88.6338C196.003 87.4854 198.954 85.8903 201.059 83.8486C203.165 81.807 205.781 78.5371 208.907 74.0391C211.523 70.3385 213.979 67.611 216.276 65.8564C218.573 64.07 221.093 63.1768 223.837 63.1768C225.336 63.1768 226.724 63.8148 228 65.0908C229.308 66.335 229.962 67.6589 229.962 69.0625C229.962 70.2428 229.595 71.1361 228.861 71.7422C228.159 72.3164 226.915 72.8747 225.129 73.417C222.864 74.0869 220.439 75.9053 217.855 78.8721C212.496 85.029 208.285 88.9368 205.222 90.5957ZM280.397 98.5391C280.397 101.857 277.606 105.828 272.023 110.454C266.44 115.048 260.14 117.345 253.122 117.345C247.73 117.345 243.488 115.654 240.393 112.272C237.299 108.859 235.752 104.122 235.752 98.0605C235.752 89.1283 238.91 80.7542 245.226 72.9385C251.543 65.1227 258.29 61.2148 265.467 61.2148C269.04 61.2148 271.911 62.3473 274.081 64.6123C276.25 66.8773 277.335 69.5729 277.335 72.6992C277.335 78.25 274.671 83.5456 269.343 88.5859C264.016 93.5944 257.189 97.0557 248.863 98.9697C247.906 99.193 247.427 99.7673 247.427 100.692C247.427 102.224 248.097 103.691 249.437 105.095C250.809 106.466 252.627 107.152 254.892 107.152C261.304 107.152 267.669 103.851 273.985 97.2471C275.197 95.971 276.378 95.333 277.526 95.333C279.44 95.333 280.397 96.4017 280.397 98.5391ZM248.289 90.0693C253.329 89.0485 257.763 86.8952 261.591 83.6094C265.451 80.3236 267.381 77.3408 267.381 74.6611C267.381 73.6084 267.078 72.7311 266.472 72.0293C265.898 71.2956 265.148 70.9287 264.223 70.9287C261.448 70.9287 258.369 72.9704 254.988 77.0537C251.606 81.137 249.373 85.4756 248.289 90.0693ZM332.364 95.4766C332.46 102.75 333.608 107.28 335.809 109.066C337.085 110.151 337.723 111.172 337.723 112.129C337.723 113.277 336.91 114.362 335.283 115.383C333.656 116.404 332.109 116.914 330.641 116.914C327.77 116.914 325.553 115.191 323.99 111.746C322.459 108.269 321.693 103.244 321.693 96.6729V93.3232C321.693 93.1956 320.975 93.1318 319.54 93.1318C316.158 93.1318 312.282 93.4189 307.912 93.9932C303.541 94.5355 301.356 95.1735 301.356 95.9072C301.356 97.0238 301.021 98.7305 300.351 101.027C300 102.144 299.825 103.308 299.825 104.521L300.016 108.54C300.016 110.741 299.458 112.639 298.341 114.234C297.225 115.829 295.614 116.627 293.508 116.627C289.776 116.627 287.91 114.521 287.91 110.311L288.101 106.291C288.101 105.334 288.436 102.846 289.106 98.8262C289.999 93.4987 290.685 86.6559 291.164 78.2979L291.929 67.9619C291.993 66.9411 292.711 65.8724 294.083 64.7559C295.486 63.6393 297.033 63.0811 298.724 63.0811C302.17 63.0811 303.892 64.373 303.892 66.957C303.892 66.9889 303.844 67.3558 303.749 68.0576C302.313 76.9899 301.595 82.7002 301.595 85.1885C301.595 85.3799 301.611 85.4915 301.643 85.5234C301.898 85.7148 306.221 85.4118 314.611 84.6143C318.822 84.1995 321.294 83.8646 322.028 83.6094C322.443 83.4818 322.873 80.6585 323.32 75.1396C323.735 70.0355 324.564 66.6221 325.808 64.8994C327.084 63.1449 328.807 62.2676 330.976 62.2676C333.082 62.2676 334.629 62.762 335.618 63.751C336.607 64.708 336.974 66 336.718 67.627L335.905 71.2158C335.777 71.8219 335.522 72.7949 335.139 74.1348C333.257 80.5469 332.316 86.6081 332.316 92.3184L332.364 95.4766ZM393.231 59.1572C393.231 54.404 393.885 50.3047 395.193 46.8594C396.501 43.4141 398.399 41.6914 400.887 41.6914C401.685 41.6914 402.754 41.9147 404.093 42.3613C407.443 43.6374 410.825 44.2754 414.238 44.2754C415.865 44.2754 418.991 43.9723 423.617 43.3662C428.242 42.792 431.528 42.5049 433.474 42.5049C435.165 42.5049 436.616 42.8079 437.829 43.4141C439.073 44.0202 439.695 44.8656 439.695 45.9502C439.695 48.917 437.845 51.166 434.144 52.6973C430.444 54.1966 426.009 54.9463 420.841 54.9463C418.162 54.9463 414.972 54.8346 411.271 54.6113L405.96 54.2764H405.864C405.832 54.2764 405.816 54.3561 405.816 54.5156C405.816 54.6432 405.784 54.8665 405.72 55.1855C405.688 55.4727 405.577 56.0309 405.385 56.8604C405.226 57.6579 405.05 58.4873 404.859 59.3486C404.093 62.6025 403.264 67.0049 402.371 72.5557C404.189 71.3753 407.539 70.2907 412.42 69.3018C417.332 68.3128 420.698 67.8184 422.516 67.8184C429.407 67.8184 434.655 69.3656 438.259 72.46C441.864 75.5225 443.667 80.0205 443.667 85.9541C443.667 92.0791 441.178 97.5661 436.202 102.415C431.225 107.264 420.953 111.714 405.385 115.766C402.833 116.404 400.441 117.488 398.208 119.02C396.038 120.487 394.172 121.221 392.609 121.221C391.301 121.221 389.818 120.631 388.159 119.45C386.5 118.27 385.671 117.233 385.671 116.34C385.671 115.479 386.005 114.266 386.675 112.703C387.282 111.204 387.585 109.976 387.585 109.019C387.585 102.479 387.808 96.8164 388.255 92.0312C388.701 87.2461 390.36 76.2881 393.231 59.1572ZM399.165 106.817C405.29 105.988 411.494 104.217 417.779 101.506C424.095 98.7624 428.083 96.1465 429.742 93.6582C431.433 91.138 432.278 89.1602 432.278 87.7246C432.278 81.2487 429.311 78.0107 423.378 78.0107C417.986 78.0107 413.313 78.5531 409.357 79.6377C405.401 80.7223 402.913 81.7751 401.892 82.7959C400.903 83.8167 400.154 86.2572 399.643 90.1172C399.133 93.9772 398.878 97.6777 398.878 101.219C398.878 104.441 398.973 106.307 399.165 106.817ZM465.152 111.89C464.514 114.474 463.716 119.227 462.759 126.149C461.802 133.104 461.228 137.761 461.037 140.122C460.845 142.515 460.016 144.54 458.548 146.199C457.113 147.858 455.821 148.688 454.672 148.688C453.237 148.688 451.817 148.145 450.414 147.061C449.01 145.976 448.308 144.796 448.308 143.52C448.308 140.936 448.707 137.953 449.505 134.571C454.29 115.463 456.906 95.7637 457.352 75.4746V74.5176C457.352 70.5618 457.48 67.8981 457.735 66.5264C457.99 65.1227 458.788 63.7829 460.128 62.5068C461.467 61.2308 463.047 60.5928 464.865 60.5928C466.396 60.5928 467.64 61.2786 468.597 62.6504C469.586 64.0221 470.081 66 470.081 68.584C470.081 71.1999 469.602 75.7777 468.645 82.3174C472.186 76.4157 476.413 71.5348 481.326 67.6748C486.27 63.7829 490.769 61.8369 494.82 61.8369C498.393 61.8369 501.423 63.113 503.912 65.665C506.432 68.2171 507.692 71.4232 507.692 75.2832C507.692 85.5872 503.688 94.9661 495.681 103.42C487.706 111.842 479.811 116.053 471.995 116.053C468.358 116.053 466.077 114.665 465.152 111.89ZM492.954 72.6992C489.062 72.6992 484.005 76.4954 477.785 84.0879C471.596 91.6803 468.502 97.6458 468.502 101.984C468.502 103.101 469.044 104.106 470.129 104.999C471.245 105.86 472.537 106.291 474.005 106.291C478.056 106.291 482.698 103.117 487.929 96.7686C493.193 90.3883 495.825 84.2314 495.825 78.2979C495.825 76.32 495.522 74.9004 494.916 74.0391C494.31 73.1458 493.656 72.6992 492.954 72.6992Z" fill="#ED0E0E"/>
</g>
<g filter="url(#filter1_d_21_353)">
<ellipse rx="23.0288" ry="30.8276" transform="matrix(0.963403 0.268057 -0.334569 0.942371 541.5 87.7761)" fill="#ED0E0E"/>
<path d="M563.406 93.8711C560.577 101.84 555.552 108.357 549.729 112.457C543.905 116.556 537.301 118.227 531.283 116.553C525.265 114.878 520.929 110.163 518.802 103.852C516.675 97.5402 516.765 89.6499 519.594 81.681C522.423 73.7121 527.448 67.1947 533.271 63.0955C539.095 58.9962 545.699 57.3248 551.717 58.9992C557.735 60.6737 562.071 65.3891 564.198 71.7005C566.325 78.012 566.235 85.9022 563.406 93.8711Z" stroke="black" stroke-width="0.581924"/>
</g>
<path d="M541.556 109.053L533.258 86.2786L557.305 79.9033C557.343 79.9762 557.387 80.065 557.438 80.1688C557.601 80.5023 557.823 80.9903 558.061 81.6034C558.537 82.8307 559.07 84.5533 559.304 86.5375C559.771 90.4972 559.049 95.4873 554.291 99.701C549.429 104.006 546.149 106.379 544.091 107.673C543.063 108.32 542.341 108.696 541.882 108.91C541.753 108.97 541.645 109.017 541.556 109.053Z" fill="#F5F6F2" stroke="black" stroke-width="0.727405"/>
<path d="M543.441 63.7995L543.441 63.7995C545.015 60.7677 547.274 56.9598 549.802 54.3537C551.067 53.05 552.374 52.0729 553.672 51.6285C554.952 51.1903 556.23 51.2655 557.492 52.0827L557.493 52.0828C558.246 52.5705 558.941 53.2938 559.569 54.1427L559.569 54.1429C559.749 54.386 559.923 54.6386 560.091 54.8982L560.091 54.8982C561.658 57.3244 561.387 60.2314 559.977 62.7217L559.717 63.1802L560.238 63.2605C561.475 63.4509 562.522 64.4231 562.768 65.764L562.768 65.7641C563.059 67.3519 562.122 68.9066 560.621 69.3964L560.734 69.7421L560.621 69.3964C558.636 70.0446 555.91 70.9881 553.265 72.0785C550.628 73.1658 548.042 74.4107 546.358 75.6672L546.33 75.6879L546.307 75.7135C545.031 77.1108 544.055 78.4045 543.676 79.4281C543.542 79.7894 543.424 79.9932 543.337 80.0926C543.326 80.1044 543.317 80.1137 543.31 80.1208C543.282 80.0946 543.234 80.0401 543.171 79.932C543.071 79.7618 542.967 79.5152 542.861 79.1964C542.435 77.9154 542.07 75.7331 541.792 73.6402C541.342 70.2508 541.877 66.8097 543.441 63.7995ZM543.281 80.144C543.281 80.1437 543.283 80.1426 543.286 80.1413C543.283 80.1437 543.281 80.1443 543.281 80.144Z" fill="#ED0E0E" stroke="black" stroke-width="0.727405"/>
<path d="M541.901 82.4324C537.781 86.8657 531.783 87.7574 528.499 84.5632C525.215 81.369 525.783 75.1956 529.904 70.7624C534.024 66.3291 540.022 65.4373 543.306 68.6315C546.589 71.8257 546.021 77.9991 541.901 82.4324Z" fill="white" stroke="black" stroke-width="0.363702"/>
<path d="M532.638 99.5024L536.969 91.129L539.735 91.9062L537.204 101.332C536.851 102.65 535.499 103.419 534.185 103.05C532.667 102.623 531.915 100.899 532.638 99.5024Z" fill="#ED0E0E" stroke="black" stroke-width="0.727405"/>
<path d="M539.487 99.5484L539.616 92.0785L544.438 90.3992L547.064 98.289C547.745 100.336 546.645 102.57 544.608 103.279C542.063 104.166 539.44 102.256 539.487 99.5484Z" fill="#ED0E0E" stroke="black" stroke-width="0.727405"/>
<path d="M533.64 93.4367L533.655 93.438C536.538 93.6995 539.581 93.9756 542.212 93.7835C544.851 93.5908 547.052 92.9287 548.265 91.333C548.875 90.5309 548.933 89.9663 548.722 89.565C548.506 89.1545 547.993 88.8811 547.38 88.703C546.771 88.5262 546.084 88.4491 545.547 88.4164C545.279 88.4 545.05 88.3948 544.887 88.3937C544.806 88.3931 544.741 88.3936 544.697 88.3942L544.647 88.3951L544.634 88.3954L544.632 88.3955L523.06 90.5662C523.062 90.5669 523.064 90.5676 523.065 90.5682C523.251 90.6396 523.522 90.7421 523.861 90.8664C524.538 91.1149 525.486 91.4504 526.571 91.7983C528.743 92.4946 531.457 93.2387 533.64 93.4367Z" fill="#FFCA8A"/>
<path d="M533.64 93.4367L533.655 93.438C536.538 93.6995 539.581 93.9756 542.212 93.7835C544.851 93.5908 547.052 92.9287 548.265 91.333C548.875 90.5309 548.933 89.9663 548.722 89.565C548.506 89.1545 547.993 88.8811 547.38 88.703C546.771 88.5262 546.084 88.4491 545.547 88.4164C545.279 88.4 545.05 88.3948 544.887 88.3937C544.806 88.3931 544.741 88.3936 544.697 88.3942L544.647 88.3951L544.634 88.3954L544.632 88.3955L523.06 90.5662C523.062 90.5669 523.064 90.5676 523.065 90.5682C523.251 90.6396 523.522 90.7421 523.861 90.8664C524.538 91.1149 525.486 91.4504 526.571 91.7983C528.743 92.4946 531.457 93.2387 533.64 93.4367Z" fill="#FFCA8A"/>
<path d="M533.64 93.4367L533.655 93.438C536.538 93.6995 539.581 93.9756 542.212 93.7835C544.851 93.5908 547.052 92.9287 548.265 91.333C548.875 90.5309 548.933 89.9663 548.722 89.565C548.506 89.1545 547.993 88.8811 547.38 88.703C546.771 88.5262 546.084 88.4491 545.547 88.4164C545.279 88.4 545.05 88.3948 544.887 88.3937C544.806 88.3931 544.741 88.3936 544.697 88.3942L544.647 88.3951L544.634 88.3954L544.632 88.3955L523.06 90.5662C523.062 90.5669 523.064 90.5676 523.065 90.5682C523.251 90.6396 523.522 90.7421 523.861 90.8664C524.538 91.1149 525.486 91.4504 526.571 91.7983C528.743 92.4946 531.457 93.2387 533.64 93.4367Z" stroke="black" stroke-width="0.145481"/>
<path d="M531.271 85.6897L540.282 80.1461L541.204 88.9293L522.703 90.9605L531.271 85.6897Z" fill="#FFCA8A"/>
<path d="M531.271 85.6897L540.282 80.1461L541.204 88.9293L522.703 90.9605L531.271 85.6897Z" fill="#FFCA8A"/>
<path d="M531.271 85.6897L540.282 80.1461L541.204 88.9293L522.703 90.9605L531.271 85.6897Z" stroke="black" stroke-width="0.363702"/>
<ellipse cx="535.753" cy="72.991" rx="1.76192" ry="1.80253" fill="black"/>
<path d="M558.008 80.2008C558.008 86.2882 553.499 91.1946 547.97 91.1946C542.442 91.1946 537.933 86.2882 537.933 80.2008C537.933 74.1134 542.442 69.207 547.97 69.207C553.499 69.207 558.008 74.1134 558.008 80.2008Z" fill="white" stroke="black" stroke-width="0.363702"/>
<ellipse cx="549.38" cy="79.4795" rx="1.76192" ry="1.80253" fill="black"/>
<defs>
<filter id="filter0_d_21_353" x="44.6803" y="40.0166" width="472.012" height="116.671" filterUnits="userSpaceOnUse" color-interpolation-filters="sRGB">
<feFlood flood-opacity="0" result="BackgroundImageFix"/>
<feColorMatrix in="SourceAlpha" type="matrix" values="0 0 0 0 0 0 0 0 0 0 0 0 0 0 0 0 0 0 127 0" result="hardAlpha"/>
<feOffset dx="5" dy="4"/>
<feGaussianBlur stdDeviation="2"/>
<feComposite in2="hardAlpha" operator="out"/>
<feColorMatrix type="matrix" values="0 0 0 0 0 0 0 0 0 0 0 0 0 0 0 0 0 0 1 0"/>
<feBlend mode="normal" in2="BackgroundImageFix" result="effect1_dropShadow_21_353"/>
<feBlend mode="normal" in="SourceGraphic" in2="effect1_dropShadow_21_353" result="shape"/>
</filter>
<filter id="filter1_d_21_353" x="516.3" y="57.3429" width="56.2183" height="66.6855" filterUnits="userSpaceOnUse" color-interpolation-filters="sRGB">
<feFlood flood-opacity="0" result="BackgroundImageFix"/>
<feColorMatrix in="SourceAlpha" type="matrix" values="0 0 0 0 0 0 0 0 0 0 0 0 0 0 0 0 0 0 127 0" result="hardAlpha"/>
<feOffset dx="2.90962" dy="2.90962"/>
<feGaussianBlur stdDeviation="1.81851"/>
<feComposite in2="hardAlpha" operator="out"/>
<feColorMatrix type="matrix" values="0 0 0 0 0 0 0 0 0 0 0 0 0 0 0 0 0 0 1 0"/>
<feBlend mode="normal" in2="BackgroundImageFix" result="effect1_dropShadow_21_353"/>
<feBlend mode="normal" in="SourceGraphic" in2="effect1_dropShadow_21_353" result="shape"/>
</filter>
</defs>
</svg>
