<svg width="147" height="151" viewBox="0 0 147 151" fill="none" xmlns="http://www.w3.org/2000/svg">
<path d="M145.608 35.1177C146.026 35.842 146.433 36.5734 146.829 37.3116C146.11 36.8411 145.629 36.0362 145.608 35.1177Z" fill="black"/>
<path d="M113.688 4.17075C114.427 4.56682 115.158 4.97401 115.882 5.39211C114.964 5.37067 114.159 4.88997 113.688 4.17075Z" fill="black"/>
<path d="M35.1177 5.39211C35.842 4.97401 36.5734 4.56682 37.3116 4.17075C36.8411 4.88997 36.0362 5.37067 35.1177 5.39211Z" fill="black"/>
<path d="M16.5019 20.1564C17.681 18.8999 18.8999 17.681 20.1564 16.5019C20.999 16.9579 21.5714 17.8496 21.5714 18.875C21.5714 20.3642 20.3642 21.5714 18.875 21.5714C17.8496 21.5714 16.9579 20.999 16.5019 20.1564Z" fill="black"/>
<path d="M4.17075 37.3116C4.56682 36.5734 4.97401 35.842 5.39211 35.1177C5.37067 36.0362 4.88997 36.8411 4.17075 37.3116Z" fill="black"/>
<path d="M146.829 113.688C146.433 114.427 146.026 115.158 145.608 115.882C145.629 114.964 146.11 114.159 146.829 113.688Z" fill="black"/>
<path d="M115.882 145.608C114.964 145.629 114.159 146.11 113.688 146.829C114.427 146.433 115.158 146.026 115.882 145.608Z" fill="black"/>
<path d="M37.3116 146.829C36.8411 146.11 36.0362 145.629 35.1177 145.608C35.842 146.026 36.5734 146.433 37.3116 146.829Z" fill="black"/>
<path d="M20.1564 134.498C20.999 134.042 21.5714 133.15 21.5714 132.125C21.5714 130.636 20.3642 129.429 18.875 129.429C17.8496 129.429 16.9579 130.001 16.5019 130.844C17.681 132.1 18.8999 133.319 20.1564 134.498Z" fill="black"/>
<path d="M5.39211 115.882C5.37067 114.964 4.88997 114.159 4.17075 113.688C4.56682 114.427 4.97401 115.158 5.39211 115.882Z" fill="black"/>
<path d="M53.9286 2.69643C53.9286 4.18563 52.7213 5.39286 51.2321 5.39286C49.7429 5.39286 48.5357 4.18563 48.5357 2.69643C48.5357 1.20723 49.7429 0 51.2321 0C52.7213 0 53.9286 1.20723 53.9286 2.69643Z" fill="black"/>
<path d="M70.1071 2.69643C70.1071 4.18563 68.8999 5.39286 67.4107 5.39286C65.9215 5.39286 64.7143 4.18563 64.7143 2.69643C64.7143 1.20723 65.9215 0 67.4107 0C68.8999 0 70.1071 1.20723 70.1071 2.69643Z" fill="black"/>
<path d="M86.2857 2.69643C86.2857 4.18563 85.0785 5.39286 83.5893 5.39286C82.1001 5.39286 80.8929 4.18563 80.8929 2.69643C80.8929 1.20723 82.1001 0 83.5893 0C85.0785 0 86.2857 1.20723 86.2857 2.69643Z" fill="black"/>
<path d="M37.75 18.875C37.75 20.3642 36.5428 21.5714 35.0536 21.5714C33.5644 21.5714 32.3571 20.3642 32.3571 18.875C32.3571 17.3858 33.5644 16.1786 35.0536 16.1786C36.5428 16.1786 37.75 17.3858 37.75 18.875Z" fill="black"/>
<path d="M53.9286 18.875C53.9286 20.3642 52.7213 21.5714 51.2321 21.5714C49.7429 21.5714 48.5357 20.3642 48.5357 18.875C48.5357 17.3858 49.7429 16.1786 51.2321 16.1786C52.7213 16.1786 53.9286 17.3858 53.9286 18.875Z" fill="black"/>
<path d="M70.1071 18.875C70.1071 20.3642 68.8999 21.5714 67.4107 21.5714C65.9215 21.5714 64.7143 20.3642 64.7143 18.875C64.7143 17.3858 65.9215 16.1786 67.4107 16.1786C68.8999 16.1786 70.1071 17.3858 70.1071 18.875Z" fill="black"/>
<path d="M86.2857 18.875C86.2857 20.3642 85.0785 21.5714 83.5893 21.5714C82.1001 21.5714 80.8929 20.3642 80.8929 18.875C80.8929 17.3858 82.1001 16.1786 83.5893 16.1786C85.0785 16.1786 86.2857 17.3858 86.2857 18.875Z" fill="black"/>
<path d="M21.5714 35.0536C21.5714 36.5428 20.3642 37.75 18.875 37.75C17.3858 37.75 16.1786 36.5428 16.1786 35.0536C16.1786 33.5644 17.3858 32.3571 18.875 32.3571C20.3642 32.3571 21.5714 33.5644 21.5714 35.0536Z" fill="black"/>
<path d="M37.75 35.0536C37.75 36.5428 36.5428 37.75 35.0536 37.75C33.5644 37.75 32.3571 36.5428 32.3571 35.0536C32.3571 33.5644 33.5644 32.3571 35.0536 32.3571C36.5428 32.3571 37.75 33.5644 37.75 35.0536Z" fill="black"/>
<path d="M53.9286 35.0536C53.9286 36.5428 52.7213 37.75 51.2321 37.75C49.7429 37.75 48.5357 36.5428 48.5357 35.0536C48.5357 33.5644 49.7429 32.3571 51.2321 32.3571C52.7213 32.3571 53.9286 33.5644 53.9286 35.0536Z" fill="black"/>
<path d="M70.1071 35.0536C70.1071 36.5428 68.8999 37.75 67.4107 37.75C65.9215 37.75 64.7143 36.5428 64.7143 35.0536C64.7143 33.5644 65.9215 32.3571 67.4107 32.3571C68.8999 32.3571 70.1071 33.5644 70.1071 35.0536Z" fill="black"/>
<path d="M86.2857 35.0536C86.2857 36.5428 85.0785 37.75 83.5893 37.75C82.1001 37.75 80.8929 36.5428 80.8929 35.0536C80.8929 33.5644 82.1001 32.3571 83.5893 32.3571C85.0785 32.3571 86.2857 33.5644 86.2857 35.0536Z" fill="black"/>
<path d="M5.39286 51.2321C5.39286 52.7213 4.18563 53.9286 2.69643 53.9286C1.20723 53.9286 0 52.7213 0 51.2321C0 49.7429 1.20723 48.5357 2.69643 48.5357C4.18563 48.5357 5.39286 49.7429 5.39286 51.2321Z" fill="black"/>
<path d="M21.5714 51.2321C21.5714 52.7213 20.3642 53.9286 18.875 53.9286C17.3858 53.9286 16.1786 52.7213 16.1786 51.2321C16.1786 49.7429 17.3858 48.5357 18.875 48.5357C20.3642 48.5357 21.5714 49.7429 21.5714 51.2321Z" fill="black"/>
<path d="M37.75 51.2321C37.75 52.7213 36.5428 53.9286 35.0536 53.9286C33.5644 53.9286 32.3571 52.7213 32.3571 51.2321C32.3571 49.7429 33.5644 48.5357 35.0536 48.5357C36.5428 48.5357 37.75 49.7429 37.75 51.2321Z" fill="black"/>
<path d="M53.9286 51.2321C53.9286 52.7213 52.7213 53.9286 51.2321 53.9286C49.7429 53.9286 48.5357 52.7213 48.5357 51.2321C48.5357 49.7429 49.7429 48.5357 51.2321 48.5357C52.7213 48.5357 53.9286 49.7429 53.9286 51.2321Z" fill="black"/>
<path d="M70.1071 51.2321C70.1071 52.7213 68.8999 53.9286 67.4107 53.9286C65.9215 53.9286 64.7143 52.7213 64.7143 51.2321C64.7143 49.7429 65.9215 48.5357 67.4107 48.5357C68.8999 48.5357 70.1071 49.7429 70.1071 51.2321Z" fill="black"/>
<path d="M86.2857 51.2321C86.2857 52.7213 85.0785 53.9286 83.5893 53.9286C82.1001 53.9286 80.8929 52.7213 80.8929 51.2321C80.8929 49.7429 82.1001 48.5357 83.5893 48.5357C85.0785 48.5357 86.2857 49.7429 86.2857 51.2321Z" fill="black"/>
<path d="M5.39286 67.4107C5.39286 68.8999 4.18563 70.1071 2.69643 70.1071C1.20723 70.1071 0 68.8999 0 67.4107C0 65.9215 1.20723 64.7143 2.69643 64.7143C4.18563 64.7143 5.39286 65.9215 5.39286 67.4107Z" fill="black"/>
<path d="M21.5714 67.4107C21.5714 68.8999 20.3642 70.1071 18.875 70.1071C17.3858 70.1071 16.1786 68.8999 16.1786 67.4107C16.1786 65.9215 17.3858 64.7143 18.875 64.7143C20.3642 64.7143 21.5714 65.9215 21.5714 67.4107Z" fill="black"/>
<path d="M37.75 67.4107C37.75 68.8999 36.5428 70.1071 35.0536 70.1071C33.5644 70.1071 32.3571 68.8999 32.3571 67.4107C32.3571 65.9215 33.5644 64.7143 35.0536 64.7143C36.5428 64.7143 37.75 65.9215 37.75 67.4107Z" fill="black"/>
<path d="M53.9286 67.4107C53.9286 68.8999 52.7213 70.1071 51.2321 70.1071C49.7429 70.1071 48.5357 68.8999 48.5357 67.4107C48.5357 65.9215 49.7429 64.7143 51.2321 64.7143C52.7213 64.7143 53.9286 65.9215 53.9286 67.4107Z" fill="black"/>
<path d="M70.1071 67.4107C70.1071 68.8999 68.8999 70.1071 67.4107 70.1071C65.9215 70.1071 64.7143 68.8999 64.7143 67.4107C64.7143 65.9215 65.9215 64.7143 67.4107 64.7143C68.8999 64.7143 70.1071 65.9215 70.1071 67.4107Z" fill="black"/>
<path d="M86.2857 67.4107C86.2857 68.8999 85.0785 70.1071 83.5893 70.1071C82.1001 70.1071 80.8929 68.8999 80.8929 67.4107C80.8929 65.9215 82.1001 64.7143 83.5893 64.7143C85.0785 64.7143 86.2857 65.9215 86.2857 67.4107Z" fill="black"/>
<path d="M5.39286 83.5893C5.39286 85.0785 4.18563 86.2857 2.69643 86.2857C1.20723 86.2857 0 85.0785 0 83.5893C0 82.1001 1.20723 80.8929 2.69643 80.8929C4.18563 80.8929 5.39286 82.1001 5.39286 83.5893Z" fill="black"/>
<path d="M21.5714 83.5893C21.5714 85.0785 20.3642 86.2857 18.875 86.2857C17.3858 86.2857 16.1786 85.0785 16.1786 83.5893C16.1786 82.1001 17.3858 80.8929 18.875 80.8929C20.3642 80.8929 21.5714 82.1001 21.5714 83.5893Z" fill="black"/>
<path d="M37.75 83.5893C37.75 85.0785 36.5428 86.2857 35.0536 86.2857C33.5644 86.2857 32.3571 85.0785 32.3571 83.5893C32.3571 82.1001 33.5644 80.8929 35.0536 80.8929C36.5428 80.8929 37.75 82.1001 37.75 83.5893Z" fill="black"/>
<path d="M53.9286 83.5893C53.9286 85.0785 52.7213 86.2857 51.2321 86.2857C49.7429 86.2857 48.5357 85.0785 48.5357 83.5893C48.5357 82.1001 49.7429 80.8929 51.2321 80.8929C52.7213 80.8929 53.9286 82.1001 53.9286 83.5893Z" fill="black"/>
<path d="M70.1071 83.5893C70.1071 85.0785 68.8999 86.2857 67.4107 86.2857C65.9215 86.2857 64.7143 85.0785 64.7143 83.5893C64.7143 82.1001 65.9215 80.8929 67.4107 80.8929C68.8999 80.8929 70.1071 82.1001 70.1071 83.5893Z" fill="black"/>
<path d="M86.2857 83.5893C86.2857 85.0785 85.0785 86.2857 83.5893 86.2857C82.1001 86.2857 80.8929 85.0785 80.8929 83.5893C80.8929 82.1001 82.1001 80.8929 83.5893 80.8929C85.0785 80.8929 86.2857 82.1001 86.2857 83.5893Z" fill="black"/>
<path d="M5.39286 99.7679C5.39286 101.257 4.18563 102.464 2.69643 102.464C1.20723 102.464 0 101.257 0 99.7679C0 98.2787 1.20723 97.0714 2.69643 97.0714C4.18563 97.0714 5.39286 98.2787 5.39286 99.7679Z" fill="black"/>
<path d="M21.5714 99.7679C21.5714 101.257 20.3642 102.464 18.875 102.464C17.3858 102.464 16.1786 101.257 16.1786 99.7679C16.1786 98.2787 17.3858 97.0714 18.875 97.0714C20.3642 97.0714 21.5714 98.2787 21.5714 99.7679Z" fill="black"/>
<path d="M37.75 99.7679C37.75 101.257 36.5428 102.464 35.0536 102.464C33.5644 102.464 32.3571 101.257 32.3571 99.7679C32.3571 98.2787 33.5644 97.0714 35.0536 97.0714C36.5428 97.0714 37.75 98.2787 37.75 99.7679Z" fill="black"/>
<path d="M53.9286 99.7679C53.9286 101.257 52.7213 102.464 51.2321 102.464C49.7429 102.464 48.5357 101.257 48.5357 99.7679C48.5357 98.2787 49.7429 97.0714 51.2321 97.0714C52.7213 97.0714 53.9286 98.2787 53.9286 99.7679Z" fill="black"/>
<path d="M70.1071 99.7679C70.1071 101.257 68.8999 102.464 67.4107 102.464C65.9215 102.464 64.7143 101.257 64.7143 99.7679C64.7143 98.2787 65.9215 97.0714 67.4107 97.0714C68.8999 97.0714 70.1071 98.2787 70.1071 99.7679Z" fill="black"/>
<path d="M86.2857 99.7679C86.2857 101.257 85.0785 102.464 83.5893 102.464C82.1001 102.464 80.8929 101.257 80.8929 99.7679C80.8929 98.2787 82.1001 97.0714 83.5893 97.0714C85.0785 97.0714 86.2857 98.2787 86.2857 99.7679Z" fill="black"/>
<path d="M21.5714 115.946C21.5714 117.436 20.3642 118.643 18.875 118.643C17.3858 118.643 16.1786 117.436 16.1786 115.946C16.1786 114.457 17.3858 113.25 18.875 113.25C20.3642 113.25 21.5714 114.457 21.5714 115.946Z" fill="black"/>
<path d="M37.75 115.946C37.75 117.436 36.5428 118.643 35.0536 118.643C33.5644 118.643 32.3571 117.436 32.3571 115.946C32.3571 114.457 33.5644 113.25 35.0536 113.25C36.5428 113.25 37.75 114.457 37.75 115.946Z" fill="black"/>
<path d="M53.9286 115.946C53.9286 117.436 52.7213 118.643 51.2321 118.643C49.7429 118.643 48.5357 117.436 48.5357 115.946C48.5357 114.457 49.7429 113.25 51.2321 113.25C52.7213 113.25 53.9286 114.457 53.9286 115.946Z" fill="black"/>
<path d="M70.1071 115.946C70.1071 117.436 68.8999 118.643 67.4107 118.643C65.9215 118.643 64.7143 117.436 64.7143 115.946C64.7143 114.457 65.9215 113.25 67.4107 113.25C68.8999 113.25 70.1071 114.457 70.1071 115.946Z" fill="black"/>
<path d="M86.2857 115.946C86.2857 117.436 85.0785 118.643 83.5893 118.643C82.1001 118.643 80.8929 117.436 80.8929 115.946C80.8929 114.457 82.1001 113.25 83.5893 113.25C85.0785 113.25 86.2857 114.457 86.2857 115.946Z" fill="black"/>
<path d="M37.75 132.125C37.75 133.614 36.5428 134.821 35.0536 134.821C33.5644 134.821 32.3571 133.614 32.3571 132.125C32.3571 130.636 33.5644 129.429 35.0536 129.429C36.5428 129.429 37.75 130.636 37.75 132.125Z" fill="black"/>
<path d="M53.9286 132.125C53.9286 133.614 52.7213 134.821 51.2321 134.821C49.7429 134.821 48.5357 133.614 48.5357 132.125C48.5357 130.636 49.7429 129.429 51.2321 129.429C52.7213 129.429 53.9286 130.636 53.9286 132.125Z" fill="black"/>
<path d="M70.1071 132.125C70.1071 133.614 68.8999 134.821 67.4107 134.821C65.9215 134.821 64.7143 133.614 64.7143 132.125C64.7143 130.636 65.9215 129.429 67.4107 129.429C68.8999 129.429 70.1071 130.636 70.1071 132.125Z" fill="black"/>
<path d="M86.2857 132.125C86.2857 133.614 85.0785 134.821 83.5893 134.821C82.1001 134.821 80.8929 133.614 80.8929 132.125C80.8929 130.636 82.1001 129.429 83.5893 129.429C85.0785 129.429 86.2857 130.636 86.2857 132.125Z" fill="black"/>
<path d="M53.9286 148.304C53.9286 149.793 52.7213 151 51.2321 151C49.7429 151 48.5357 149.793 48.5357 148.304C48.5357 146.814 49.7429 145.607 51.2321 145.607C52.7213 145.607 53.9286 146.814 53.9286 148.304Z" fill="black"/>
<path d="M70.1071 148.304C70.1071 149.793 68.8999 151 67.4107 151C65.9215 151 64.7143 149.793 64.7143 148.304C64.7143 146.814 65.9215 145.607 67.4107 145.607C68.8999 145.607 70.1071 146.814 70.1071 148.304Z" fill="black"/>
<path d="M86.2857 148.304C86.2857 149.793 85.0785 151 83.5893 151C82.1001 151 80.8929 149.793 80.8929 148.304C80.8929 146.814 82.1001 145.607 83.5893 145.607C85.0785 145.607 86.2857 146.814 86.2857 148.304Z" fill="black"/>
</svg>
