<svg width="95" height="190" viewBox="0 0 95 190" fill="none" xmlns="http://www.w3.org/2000/svg">
<path fill-rule="evenodd" clip-rule="evenodd" d="M0 66.0596C-15.9833 66.0596 -28.9404 79.0167 -28.9404 95C-28.9404 110.983 -15.9833 123.94 0 123.94C15.9833 123.94 28.9404 110.983 28.9404 95C28.9404 79.0167 15.9833 66.0596 0 66.0596ZM-27.6821 95C-27.6821 79.7116 -15.2884 67.3179 0 67.3179C15.2884 67.3179 27.6821 79.7116 27.6821 95C27.6821 110.288 15.2884 122.682 0 122.682C-15.2884 122.682 -27.6821 110.288 -27.6821 95Z" fill="white"/>
<path fill-rule="evenodd" clip-rule="evenodd" d="M0 61.3411C-18.5893 61.3411 -33.6589 76.4107 -33.6589 95C-33.6589 113.589 -18.5893 128.659 0 128.659C18.5893 128.659 33.6589 113.589 33.6589 95C33.6589 76.4107 18.5893 61.3411 0 61.3411ZM-32.4007 95C-32.4007 77.1056 -17.8944 62.5993 0 62.5993C17.8944 62.5993 32.4007 77.1056 32.4007 95C32.4007 112.894 17.8944 127.401 0 127.401C-17.8944 127.401 -32.4007 112.894 -32.4007 95Z" fill="white"/>
<path fill-rule="evenodd" clip-rule="evenodd" d="M-38.3775 95C-38.3775 73.8047 -21.1953 56.6225 0 56.6225C21.1953 56.6225 38.3775 73.8047 38.3775 95C38.3775 116.195 21.1953 133.377 0 133.377C-21.1953 133.377 -38.3775 116.195 -38.3775 95ZM0 57.8808C-20.5004 57.8808 -37.1192 74.4996 -37.1192 95C-37.1192 115.5 -20.5004 132.119 0 132.119C20.5004 132.119 37.1192 115.5 37.1192 95C37.1192 74.4996 20.5004 57.8808 0 57.8808Z" fill="white"/>
<path fill-rule="evenodd" clip-rule="evenodd" d="M-43.096 95C-43.096 71.1987 -23.8013 51.904 0 51.904C23.8013 51.904 43.096 71.1987 43.096 95C43.096 118.801 23.8013 138.096 0 138.096C-23.8013 138.096 -43.096 118.801 -43.096 95ZM0 53.1623C-23.1064 53.1623 -41.8377 71.8936 -41.8377 95C-41.8377 118.106 -23.1064 136.838 0 136.838C23.1063 136.838 41.8377 118.106 41.8377 95C41.8377 71.8936 23.1063 53.1623 0 53.1623Z" fill="white"/>
<path fill-rule="evenodd" clip-rule="evenodd" d="M-47.8146 95C-47.8146 68.5927 -26.4073 47.1854 0 47.1854C26.4072 47.1854 47.8146 68.5927 47.8146 95C47.8146 121.407 26.4072 142.815 0 142.815C-26.4073 142.815 -47.8146 121.407 -47.8146 95ZM0 48.4437C-25.7123 48.4437 -46.5563 69.2877 -46.5563 95C-46.5563 120.712 -25.7123 141.556 0 141.556C25.7123 141.556 46.5563 120.712 46.5563 95C46.5563 69.2877 25.7123 48.4437 0 48.4437Z" fill="white"/>
<path fill-rule="evenodd" clip-rule="evenodd" d="M0 42.4669C-29.0132 42.4669 -52.5331 65.9868 -52.5331 95C-52.5331 124.013 -29.0132 147.533 0 147.533C29.0132 147.533 52.5331 124.013 52.5331 95C52.5331 65.9868 29.0132 42.4669 0 42.4669ZM-51.2748 95C-51.2748 66.6817 -28.3183 43.7252 0 43.7252C28.3183 43.7252 51.2748 66.6817 51.2748 95C51.2748 123.318 28.3183 146.275 0 146.275C-28.3183 146.275 -51.2748 123.318 -51.2748 95Z" fill="white"/>
<path fill-rule="evenodd" clip-rule="evenodd" d="M-57.2517 95C-57.2517 63.3808 -31.6192 37.7483 0 37.7483C31.6192 37.7483 57.2516 63.3808 57.2516 95C57.2516 126.619 31.6192 152.252 0 152.252C-31.6192 152.252 -57.2517 126.619 -57.2517 95ZM0 39.0066C-30.9243 39.0066 -55.9934 64.0757 -55.9934 95C-55.9934 125.924 -30.9243 150.993 0 150.993C30.9243 150.993 55.9934 125.924 55.9934 95C55.9934 64.0757 30.9243 39.0066 0 39.0066Z" fill="white"/>
<path fill-rule="evenodd" clip-rule="evenodd" d="M0 33.0298C-34.2252 33.0298 -61.9702 60.7748 -61.9702 95C-61.9702 129.225 -34.2252 156.97 0 156.97C34.2252 156.97 61.9702 129.225 61.9702 95C61.9702 60.7748 34.2252 33.0298 0 33.0298ZM-60.7119 95C-60.7119 61.4697 -33.5303 34.2881 0 34.2881C33.5303 34.2881 60.7119 61.4697 60.7119 95C60.7119 128.53 33.5303 155.712 0 155.712C-33.5303 155.712 -60.7119 128.53 -60.7119 95Z" fill="white"/>
<path fill-rule="evenodd" clip-rule="evenodd" d="M-66.6887 95C-66.6887 58.1688 -36.8312 28.3113 0 28.3113C36.8312 28.3113 66.6887 58.1688 66.6887 95C66.6887 131.831 36.8312 161.689 0 161.689C-36.8312 161.689 -66.6887 131.831 -66.6887 95ZM0 29.5695C-36.1362 29.5695 -65.4305 58.8638 -65.4305 95C-65.4305 131.136 -36.1362 160.43 0 160.43C36.1362 160.43 65.4305 131.136 65.4305 95C65.4305 58.8638 36.1362 29.5695 0 29.5695Z" fill="white"/>
<path fill-rule="evenodd" clip-rule="evenodd" d="M0 23.5927C-39.4372 23.5927 -71.4073 55.5628 -71.4073 95C-71.4073 134.437 -39.4372 166.407 0 166.407C39.4372 166.407 71.4073 134.437 71.4073 95C71.4073 55.5628 39.4372 23.5927 0 23.5927ZM-70.149 95C-70.149 56.2578 -38.7422 24.851 0 24.851C38.7422 24.851 70.149 56.2578 70.149 95C70.149 133.742 38.7422 165.149 0 165.149C-38.7422 165.149 -70.149 133.742 -70.149 95Z" fill="white"/>
<path fill-rule="evenodd" clip-rule="evenodd" d="M-76.1258 95C-76.1258 52.9569 -42.0431 18.8742 0 18.8742C42.0431 18.8742 76.1258 52.9569 76.1258 95C76.1258 137.043 42.0431 171.126 0 171.126C-42.0431 171.126 -76.1258 137.043 -76.1258 95ZM0 20.1325C-41.3482 20.1325 -74.8675 53.6518 -74.8675 95C-74.8675 136.348 -41.3482 169.868 0 169.868C41.3482 169.868 74.8675 136.348 74.8675 95C74.8675 53.6518 41.3482 20.1325 0 20.1325Z" fill="white"/>
<path fill-rule="evenodd" clip-rule="evenodd" d="M0 14.1556C-44.6491 14.1556 -80.8444 50.3509 -80.8444 95C-80.8444 139.649 -44.6491 175.844 0 175.844C44.6491 175.844 80.8444 139.649 80.8444 95C80.8444 50.3509 44.6491 14.1556 0 14.1556ZM-79.5861 95C-79.5861 51.0458 -43.9542 15.4139 0 15.4139C43.9542 15.4139 79.5861 51.0458 79.5861 95C79.5861 138.954 43.9542 174.586 0 174.586C-43.9542 174.586 -79.5861 138.954 -79.5861 95Z" fill="white"/>
<path fill-rule="evenodd" clip-rule="evenodd" d="M-85.5629 95C-85.5629 47.7449 -47.2551 9.43709 0 9.43709C47.2551 9.43709 85.5629 47.7449 85.5629 95C85.5629 142.255 47.2551 180.563 0 180.563C-47.2551 180.563 -85.5629 142.255 -85.5629 95ZM0 10.6954C-46.5602 10.6954 -84.3046 48.4398 -84.3046 95C-84.3046 141.56 -46.5602 179.305 0 179.305C46.5602 179.305 84.3046 141.56 84.3046 95C84.3046 48.4398 46.5602 10.6954 0 10.6954Z" fill="white"/>
<path fill-rule="evenodd" clip-rule="evenodd" d="M0 4.71854C-49.8611 4.71854 -90.2815 45.1389 -90.2815 95C-90.2815 144.861 -49.8611 185.281 0 185.281C49.8611 185.281 90.2814 144.861 90.2814 95C90.2814 45.1389 49.8611 4.71854 0 4.71854ZM-89.0232 95C-89.0232 45.8339 -49.1661 5.97682 0 5.97682C49.1661 5.97682 89.0232 45.8339 89.0232 95C89.0232 144.166 49.1661 184.023 0 184.023C-49.1661 184.023 -89.0232 144.166 -89.0232 95Z" fill="white"/>
<path fill-rule="evenodd" clip-rule="evenodd" d="M-95 95C-95 42.5329 -52.4671 0 0 0C52.4671 0 95 42.5329 95 95C95 147.467 52.4671 190 0 190C-52.4671 190 -95 147.467 -95 95ZM0 1.25828C-51.7721 1.25828 -93.7417 43.2279 -93.7417 95C-93.7417 146.772 -51.7721 188.742 0 188.742C51.7721 188.742 93.7417 146.772 93.7417 95C93.7417 43.2279 51.7721 1.25828 0 1.25828Z" fill="white"/>
</svg>
