<svg width="100" height="120" viewBox="0 0 100 120" fill="none" xmlns="http://www.w3.org/2000/svg">
<path fill-rule="evenodd" clip-rule="evenodd" d="M60 41.7219C49.9053 41.7219 41.7219 49.9053 41.7219 60C41.7219 70.0947 49.9053 78.2781 60 78.2781C70.0947 78.2781 78.2781 70.0947 78.2781 60C78.2781 49.9053 70.0947 41.7219 60 41.7219ZM42.5166 60C42.5166 50.3442 50.3442 42.5166 60 42.5166C69.6558 42.5166 77.4834 50.3442 77.4834 60C77.4834 69.6558 69.6558 77.4834 60 77.4834C50.3442 77.4834 42.5166 69.6558 42.5166 60Z" fill="black"/>
<path fill-rule="evenodd" clip-rule="evenodd" d="M60 38.7417C48.2594 38.7417 38.7417 48.2594 38.7417 60C38.7417 71.7406 48.2594 81.2583 60 81.2583C71.7406 81.2583 81.2583 71.7406 81.2583 60C81.2583 48.2594 71.7406 38.7417 60 38.7417ZM39.5364 60C39.5364 48.6983 48.6983 39.5364 60 39.5364C71.3017 39.5364 80.4636 48.6983 80.4636 60C80.4636 71.3017 71.3017 80.4636 60 80.4636C48.6983 80.4636 39.5364 71.3017 39.5364 60Z" fill="black"/>
<path fill-rule="evenodd" clip-rule="evenodd" d="M35.7616 60C35.7616 46.6135 46.6135 35.7616 60 35.7616C73.3865 35.7616 84.2384 46.6135 84.2384 60C84.2384 73.3865 73.3865 84.2384 60 84.2384C46.6135 84.2384 35.7616 73.3865 35.7616 60ZM60 36.5563C47.0524 36.5563 36.5563 47.0524 36.5563 60C36.5563 72.9476 47.0524 83.4437 60 83.4437C72.9476 83.4437 83.4437 72.9476 83.4437 60C83.4437 47.0524 72.9476 36.5563 60 36.5563Z" fill="black"/>
<path fill-rule="evenodd" clip-rule="evenodd" d="M32.7815 60C32.7815 44.9676 44.9676 32.7815 60 32.7815C75.0324 32.7815 87.2185 44.9676 87.2185 60C87.2185 75.0324 75.0324 87.2185 60 87.2185C44.9676 87.2185 32.7815 75.0324 32.7815 60ZM60 33.5762C45.4065 33.5762 33.5762 45.4065 33.5762 60C33.5762 74.5935 45.4065 86.4238 60 86.4238C74.5935 86.4238 86.4238 74.5935 86.4238 60C86.4238 45.4065 74.5935 33.5762 60 33.5762Z" fill="black"/>
<path fill-rule="evenodd" clip-rule="evenodd" d="M29.8013 60C29.8013 43.3217 43.3217 29.8013 60 29.8013C76.6783 29.8013 90.1987 43.3217 90.1987 60C90.1987 76.6783 76.6783 90.1987 60 90.1987C43.3217 90.1987 29.8013 76.6783 29.8013 60ZM60 30.596C43.7606 30.596 30.596 43.7606 30.596 60C30.596 76.2394 43.7606 89.404 60 89.404C76.2394 89.404 89.404 76.2394 89.404 60C89.404 43.7606 76.2394 30.596 60 30.596Z" fill="black"/>
<path fill-rule="evenodd" clip-rule="evenodd" d="M60 26.8212C41.6758 26.8212 26.8212 41.6758 26.8212 60C26.8212 78.3242 41.6758 93.1788 60 93.1788C78.3242 93.1788 93.1788 78.3242 93.1788 60C93.1788 41.6758 78.3242 26.8212 60 26.8212ZM27.6159 60C27.6159 42.1148 42.1148 27.6159 60 27.6159C77.8852 27.6159 92.3841 42.1148 92.3841 60C92.3841 77.8852 77.8852 92.3841 60 92.3841C42.1148 92.3841 27.6159 77.8852 27.6159 60Z" fill="black"/>
<path fill-rule="evenodd" clip-rule="evenodd" d="M23.8411 60C23.8411 40.03 40.03 23.8411 60 23.8411C79.97 23.8411 96.1589 40.03 96.1589 60C96.1589 79.97 79.97 96.1589 60 96.1589C40.03 96.1589 23.8411 79.97 23.8411 60ZM60 24.6358C40.4689 24.6358 24.6358 40.4689 24.6358 60C24.6358 79.5311 40.4689 95.3642 60 95.3642C79.5311 95.3642 95.3642 79.5311 95.3642 60C95.3642 40.4689 79.5311 24.6358 60 24.6358Z" fill="black"/>
<path fill-rule="evenodd" clip-rule="evenodd" d="M60 20.8609C38.3841 20.8609 20.8609 38.3841 20.8609 60C20.8609 81.6159 38.3841 99.1391 60 99.1391C81.6159 99.1391 99.1391 81.6159 99.1391 60C99.1391 38.3841 81.6159 20.8609 60 20.8609ZM21.6556 60C21.6556 38.823 38.823 21.6556 60 21.6556C81.177 21.6556 98.3444 38.823 98.3444 60C98.3444 81.177 81.177 98.3444 60 98.3444C38.823 98.3444 21.6556 81.177 21.6556 60Z" fill="black"/>
<path fill-rule="evenodd" clip-rule="evenodd" d="M17.8808 60C17.8808 36.7382 36.7382 17.8808 60 17.8808C83.2618 17.8808 102.119 36.7382 102.119 60C102.119 83.2618 83.2618 102.119 60 102.119C36.7382 102.119 17.8808 83.2618 17.8808 60ZM60 18.6755C37.1771 18.6755 18.6755 37.1771 18.6755 60C18.6755 82.8229 37.1771 101.325 60 101.325C82.8229 101.325 101.325 82.8229 101.325 60C101.325 37.1771 82.8229 18.6755 60 18.6755Z" fill="black"/>
<path fill-rule="evenodd" clip-rule="evenodd" d="M60 14.9007C35.0923 14.9007 14.9007 35.0923 14.9007 60C14.9007 84.9077 35.0923 105.099 60 105.099C84.9077 105.099 105.099 84.9077 105.099 60C105.099 35.0923 84.9077 14.9007 60 14.9007ZM15.6954 60C15.6954 35.5312 35.5312 15.6954 60 15.6954C84.4688 15.6954 104.305 35.5312 104.305 60C104.305 84.4688 84.4688 104.305 60 104.305C35.5312 104.305 15.6954 84.4688 15.6954 60Z" fill="black"/>
<path fill-rule="evenodd" clip-rule="evenodd" d="M11.9205 60C11.9205 33.4464 33.4464 11.9205 60 11.9205C86.5536 11.9205 108.079 33.4464 108.079 60C108.079 86.5536 86.5536 108.079 60 108.079C33.4464 108.079 11.9205 86.5536 11.9205 60ZM60 12.7152C33.8853 12.7152 12.7152 33.8853 12.7152 60C12.7152 86.1147 33.8853 107.285 60 107.285C86.1147 107.285 107.285 86.1147 107.285 60C107.285 33.8853 86.1147 12.7152 60 12.7152Z" fill="black"/>
<path fill-rule="evenodd" clip-rule="evenodd" d="M60 8.9404C31.8006 8.9404 8.9404 31.8006 8.9404 60C8.9404 88.1994 31.8006 111.06 60 111.06C88.1994 111.06 111.06 88.1994 111.06 60C111.06 31.8006 88.1994 8.9404 60 8.9404ZM9.7351 60C9.7351 32.2395 32.2395 9.7351 60 9.7351C87.7605 9.7351 110.265 32.2395 110.265 60C110.265 87.7605 87.7605 110.265 60 110.265C32.2395 110.265 9.7351 87.7605 9.7351 60Z" fill="black"/>
<path fill-rule="evenodd" clip-rule="evenodd" d="M5.96026 60C5.96026 30.1547 30.1547 5.96026 60 5.96026C89.8453 5.96026 114.04 30.1547 114.04 60C114.04 89.8453 89.8453 114.04 60 114.04C30.1547 114.04 5.96026 89.8453 5.96026 60ZM60 6.75497C30.5936 6.75497 6.75497 30.5936 6.75497 60C6.75497 89.4064 30.5936 113.245 60 113.245C89.4064 113.245 113.245 89.4064 113.245 60C113.245 30.5936 89.4064 6.75497 60 6.75497Z" fill="black"/>
<path fill-rule="evenodd" clip-rule="evenodd" d="M60 2.98013C28.5088 2.98013 2.98013 28.5088 2.98013 60C2.98013 91.4912 28.5088 117.02 60 117.02C91.4912 117.02 117.02 91.4912 117.02 60C117.02 28.5088 91.4912 2.98013 60 2.98013ZM3.77483 60C3.77483 28.9477 28.9477 3.77483 60 3.77483C91.0523 3.77483 116.225 28.9477 116.225 60C116.225 91.0523 91.0523 116.225 60 116.225C28.9477 116.225 3.77483 91.0523 3.77483 60Z" fill="black"/>
<path fill-rule="evenodd" clip-rule="evenodd" d="M0 60C0 26.8629 26.8629 0 60 0C93.1371 0 120 26.8629 120 60C120 93.1371 93.1371 120 60 120C26.8629 120 0 93.1371 0 60ZM60 0.794702C27.3018 0.794702 0.794702 27.3018 0.794702 60C0.794702 92.6982 27.3018 119.205 60 119.205C92.6982 119.205 119.205 92.6982 119.205 60C119.205 27.3018 92.6982 0.794702 60 0.794702Z" fill="black"/>
</svg>
