<svg width="99" height="198" viewBox="0 0 99 198" fill="none" xmlns="http://www.w3.org/2000/svg">
<g filter="url(#filter0_d_4_194)">
<path fill-rule="evenodd" clip-rule="evenodd" d="M-4.47035e-07 66.0596C-15.9833 66.0596 -28.9404 79.0167 -28.9404 95C-28.9404 110.983 -15.9833 123.94 -4.47035e-07 123.94C15.9833 123.94 28.9404 110.983 28.9404 95C28.9404 79.0167 15.9833 66.0596 -4.47035e-07 66.0596ZM-27.6821 95C-27.6821 79.7116 -15.2884 67.3179 -4.47035e-07 67.3179C15.2884 67.3179 27.6821 79.7116 27.6821 95C27.6821 110.288 15.2884 122.682 -4.47035e-07 122.682C-15.2884 122.682 -27.6821 110.288 -27.6821 95Z" fill="black"/>
<path fill-rule="evenodd" clip-rule="evenodd" d="M-4.47035e-07 61.3411C-18.5893 61.3411 -33.6589 76.4107 -33.6589 95C-33.6589 113.589 -18.5893 128.659 -4.47035e-07 128.659C18.5893 128.659 33.6589 113.589 33.6589 95C33.6589 76.4107 18.5893 61.3411 -4.47035e-07 61.3411ZM-32.4007 95C-32.4007 77.1056 -17.8944 62.5993 -4.47035e-07 62.5993C17.8944 62.5993 32.4007 77.1056 32.4007 95C32.4007 112.894 17.8944 127.401 -4.47035e-07 127.401C-17.8944 127.401 -32.4007 112.894 -32.4007 95Z" fill="black"/>
<path fill-rule="evenodd" clip-rule="evenodd" d="M-38.3775 95C-38.3775 73.8047 -21.1953 56.6225 -4.47035e-07 56.6225C21.1953 56.6225 38.3775 73.8047 38.3775 95C38.3775 116.195 21.1953 133.377 -4.47035e-07 133.377C-21.1953 133.377 -38.3775 116.195 -38.3775 95ZM-4.47035e-07 57.8808C-20.5004 57.8808 -37.1192 74.4996 -37.1192 95C-37.1192 115.5 -20.5004 132.119 -4.47035e-07 132.119C20.5004 132.119 37.1192 115.5 37.1192 95C37.1192 74.4996 20.5004 57.8808 -4.47035e-07 57.8808Z" fill="black"/>
<path fill-rule="evenodd" clip-rule="evenodd" d="M-43.096 95C-43.096 71.1987 -23.8013 51.904 -4.47035e-07 51.904C23.8013 51.904 43.096 71.1987 43.096 95C43.096 118.801 23.8013 138.096 -4.47035e-07 138.096C-23.8013 138.096 -43.096 118.801 -43.096 95ZM-4.47035e-07 53.1622C-23.1064 53.1622 -41.8378 71.8936 -41.8378 95C-41.8378 118.106 -23.1064 136.838 -4.47035e-07 136.838C23.1063 136.838 41.8377 118.106 41.8377 95C41.8377 71.8936 23.1063 53.1622 -4.47035e-07 53.1622Z" fill="black"/>
<path fill-rule="evenodd" clip-rule="evenodd" d="M-47.8146 95C-47.8146 68.5927 -26.4073 47.1854 -4.47035e-07 47.1854C26.4073 47.1854 47.8146 68.5927 47.8146 95C47.8146 121.407 26.4073 142.815 -4.47035e-07 142.815C-26.4073 142.815 -47.8146 121.407 -47.8146 95ZM-4.47035e-07 48.4437C-25.7123 48.4437 -46.5563 69.2877 -46.5563 95C-46.5563 120.712 -25.7123 141.556 -4.47035e-07 141.556C25.7123 141.556 46.5563 120.712 46.5563 95C46.5563 69.2877 25.7123 48.4437 -4.47035e-07 48.4437Z" fill="black"/>
<path fill-rule="evenodd" clip-rule="evenodd" d="M-4.47035e-07 42.4669C-29.0132 42.4669 -52.5331 65.9868 -52.5331 95C-52.5331 124.013 -29.0132 147.533 -4.47035e-07 147.533C29.0132 147.533 52.5331 124.013 52.5331 95C52.5331 65.9868 29.0132 42.4669 -4.47035e-07 42.4669ZM-51.2748 95C-51.2748 66.6817 -28.3183 43.7252 -4.47035e-07 43.7252C28.3183 43.7252 51.2748 66.6817 51.2748 95C51.2748 123.318 28.3183 146.275 -4.47035e-07 146.275C-28.3183 146.275 -51.2748 123.318 -51.2748 95Z" fill="black"/>
<path fill-rule="evenodd" clip-rule="evenodd" d="M-57.2517 95C-57.2517 63.3808 -31.6192 37.7483 -4.47035e-07 37.7483C31.6192 37.7483 57.2517 63.3808 57.2517 95C57.2517 126.619 31.6192 152.252 -4.47035e-07 152.252C-31.6192 152.252 -57.2517 126.619 -57.2517 95ZM-4.47035e-07 39.0066C-30.9243 39.0066 -55.9934 64.0757 -55.9934 95C-55.9934 125.924 -30.9243 150.993 -4.47035e-07 150.993C30.9243 150.993 55.9934 125.924 55.9934 95C55.9934 64.0757 30.9243 39.0066 -4.47035e-07 39.0066Z" fill="black"/>
<path fill-rule="evenodd" clip-rule="evenodd" d="M-4.47035e-07 33.0298C-34.2252 33.0298 -61.9702 60.7748 -61.9702 95C-61.9702 129.225 -34.2252 156.97 -4.47035e-07 156.97C34.2252 156.97 61.9702 129.225 61.9702 95C61.9702 60.7748 34.2252 33.0298 -4.47035e-07 33.0298ZM-60.7119 95C-60.7119 61.4697 -33.5303 34.2881 -4.47035e-07 34.2881C33.5303 34.2881 60.7119 61.4697 60.7119 95C60.7119 128.53 33.5303 155.712 -4.47035e-07 155.712C-33.5303 155.712 -60.7119 128.53 -60.7119 95Z" fill="black"/>
<path fill-rule="evenodd" clip-rule="evenodd" d="M-66.6887 95C-66.6887 58.1688 -36.8312 28.3113 -4.47035e-07 28.3113C36.8312 28.3113 66.6887 58.1688 66.6887 95C66.6887 131.831 36.8312 161.689 -4.47035e-07 161.689C-36.8312 161.689 -66.6887 131.831 -66.6887 95ZM-4.47035e-07 29.5695C-36.1362 29.5695 -65.4305 58.8638 -65.4305 95C-65.4305 131.136 -36.1362 160.43 -4.47035e-07 160.43C36.1362 160.43 65.4305 131.136 65.4305 95C65.4305 58.8638 36.1362 29.5695 -4.47035e-07 29.5695Z" fill="black"/>
<path fill-rule="evenodd" clip-rule="evenodd" d="M-4.47035e-07 23.5927C-39.4372 23.5927 -71.4073 55.5628 -71.4073 95C-71.4073 134.437 -39.4372 166.407 -4.47035e-07 166.407C39.4372 166.407 71.4073 134.437 71.4073 95C71.4073 55.5628 39.4372 23.5927 -4.47035e-07 23.5927ZM-70.149 95C-70.149 56.2578 -38.7422 24.851 -4.47035e-07 24.851C38.7422 24.851 70.149 56.2578 70.149 95C70.149 133.742 38.7422 165.149 -4.47035e-07 165.149C-38.7422 165.149 -70.149 133.742 -70.149 95Z" fill="black"/>
<path fill-rule="evenodd" clip-rule="evenodd" d="M-76.1258 95C-76.1258 52.9569 -42.0431 18.8742 -4.47035e-07 18.8742C42.0431 18.8742 76.1258 52.9569 76.1258 95C76.1258 137.043 42.0431 171.126 -4.47035e-07 171.126C-42.0431 171.126 -76.1258 137.043 -76.1258 95ZM-4.47035e-07 20.1324C-41.3482 20.1324 -74.8676 53.6518 -74.8676 95C-74.8676 136.348 -41.3482 169.868 -4.47035e-07 169.868C41.3482 169.868 74.8675 136.348 74.8675 95C74.8675 53.6518 41.3482 20.1324 -4.47035e-07 20.1324Z" fill="black"/>
<path fill-rule="evenodd" clip-rule="evenodd" d="M-4.47035e-07 14.1556C-44.6491 14.1556 -80.8444 50.3509 -80.8444 95C-80.8444 139.649 -44.6491 175.844 -4.47035e-07 175.844C44.6491 175.844 80.8444 139.649 80.8444 95C80.8444 50.3509 44.6491 14.1556 -4.47035e-07 14.1556ZM-79.5861 95C-79.5861 51.0458 -43.9542 15.4139 -4.47035e-07 15.4139C43.9542 15.4139 79.5861 51.0458 79.5861 95C79.5861 138.954 43.9542 174.586 -4.47035e-07 174.586C-43.9542 174.586 -79.5861 138.954 -79.5861 95Z" fill="black"/>
<path fill-rule="evenodd" clip-rule="evenodd" d="M-85.5629 95C-85.5629 47.7449 -47.2551 9.43709 -4.47035e-07 9.43709C47.2551 9.43709 85.5629 47.7449 85.5629 95C85.5629 142.255 47.2551 180.563 -4.47035e-07 180.563C-47.2551 180.563 -85.5629 142.255 -85.5629 95ZM-4.47035e-07 10.6954C-46.5602 10.6954 -84.3046 48.4398 -84.3046 95C-84.3046 141.56 -46.5602 179.305 -4.47035e-07 179.305C46.5602 179.305 84.3046 141.56 84.3046 95C84.3046 48.4398 46.5602 10.6954 -4.47035e-07 10.6954Z" fill="black"/>
<path fill-rule="evenodd" clip-rule="evenodd" d="M-4.47035e-07 4.71854C-49.8611 4.71854 -90.2815 45.1389 -90.2815 95C-90.2815 144.861 -49.8611 185.281 -4.47035e-07 185.281C49.8611 185.281 90.2815 144.861 90.2815 95C90.2815 45.1389 49.8611 4.71854 -4.47035e-07 4.71854ZM-89.0232 95C-89.0232 45.8339 -49.1661 5.97682 -4.47035e-07 5.97682C49.1661 5.97682 89.0232 45.8339 89.0232 95C89.0232 144.166 49.1661 184.023 -4.47035e-07 184.023C-49.1661 184.023 -89.0232 144.166 -89.0232 95Z" fill="black"/>
<path fill-rule="evenodd" clip-rule="evenodd" d="M-95 95C-95 42.5329 -52.4671 0 -4.47035e-07 0C52.4671 0 95 42.5329 95 95C95 147.467 52.4671 190 -4.47035e-07 190C-52.4671 190 -95 147.467 -95 95ZM-4.47035e-07 1.25828C-51.7721 1.25828 -93.7417 43.2279 -93.7417 95C-93.7417 146.772 -51.7721 188.742 -4.47035e-07 188.742C51.7721 188.742 93.7417 146.772 93.7417 95C93.7417 43.2279 51.7721 1.25828 -4.47035e-07 1.25828Z" fill="black"/>
</g>
<defs>
<filter id="filter0_d_4_194" x="-99" y="0" width="198" height="198" filterUnits="userSpaceOnUse" color-interpolation-filters="sRGB">
<feFlood flood-opacity="0" result="BackgroundImageFix"/>
<feColorMatrix in="SourceAlpha" type="matrix" values="0 0 0 0 0 0 0 0 0 0 0 0 0 0 0 0 0 0 127 0" result="hardAlpha"/>
<feOffset dy="4"/>
<feGaussianBlur stdDeviation="2"/>
<feComposite in2="hardAlpha" operator="out"/>
<feColorMatrix type="matrix" values="0 0 0 0 0 0 0 0 0 0 0 0 0 0 0 0 0 0 0.25 0"/>
<feBlend mode="normal" in2="BackgroundImageFix" result="effect1_dropShadow_4_194"/>
<feBlend mode="normal" in="SourceGraphic" in2="effect1_dropShadow_4_194" result="shape"/>
</filter>
</defs>
</svg>
