<svg width="96" height="151" viewBox="0 0 96 151" fill="none" xmlns="http://www.w3.org/2000/svg">
<path d="M94.6079 35.1177C95.026 35.842 95.4332 36.5734 95.8293 37.3116C95.11 36.8411 94.6293 36.0362 94.6079 35.1177Z" fill="white"/>
<path d="M62.6884 4.17075C63.4266 4.56682 64.158 4.97401 64.8823 5.39211C63.9638 5.37067 63.1589 4.88997 62.6884 4.17075Z" fill="white"/>
<path d="M-15.8823 5.39211C-15.158 4.97401 -14.4266 4.56682 -13.6884 4.17075C-14.1589 4.88997 -14.9638 5.37067 -15.8823 5.39211Z" fill="white"/>
<path d="M-34.4981 20.1564C-33.319 18.8999 -32.1001 17.681 -30.8436 16.5019C-30.001 16.9579 -29.4286 17.8496 -29.4286 18.875C-29.4286 20.3642 -30.6358 21.5714 -32.125 21.5714C-33.1504 21.5714 -34.0421 20.999 -34.4981 20.1564Z" fill="white"/>
<path d="M-46.8293 37.3116C-46.4332 36.5734 -46.026 35.842 -45.6079 35.1177C-45.6293 36.0362 -46.11 36.8411 -46.8293 37.3116Z" fill="white"/>
<path d="M95.8293 113.688C95.4332 114.427 95.026 115.158 94.6079 115.882C94.6293 114.964 95.11 114.159 95.8293 113.688Z" fill="white"/>
<path d="M64.8823 145.608C63.9638 145.629 63.1589 146.11 62.6884 146.829C63.4266 146.433 64.158 146.026 64.8823 145.608Z" fill="white"/>
<path d="M-13.6884 146.829C-14.1589 146.11 -14.9638 145.629 -15.8823 145.608C-15.158 146.026 -14.4266 146.433 -13.6884 146.829Z" fill="white"/>
<path d="M-30.8436 134.498C-30.001 134.042 -29.4286 133.15 -29.4286 132.125C-29.4286 130.636 -30.6358 129.429 -32.125 129.429C-33.1504 129.429 -34.0421 130.001 -34.4981 130.844C-33.319 132.1 -32.1001 133.319 -30.8436 134.498Z" fill="white"/>
<path d="M-45.6079 115.882C-45.6293 114.964 -46.11 114.159 -46.8293 113.688C-46.4332 114.427 -46.026 115.158 -45.6079 115.882Z" fill="white"/>
<path d="M2.92857 2.69643C2.92857 4.18563 1.72134 5.39286 0.232143 5.39286C-1.25705 5.39286 -2.46429 4.18563 -2.46429 2.69643C-2.46429 1.20723 -1.25705 0 0.232143 0C1.72134 0 2.92857 1.20723 2.92857 2.69643Z" fill="white"/>
<path d="M19.1071 2.69643C19.1071 4.18563 17.8999 5.39286 16.4107 5.39286C14.9215 5.39286 13.7143 4.18563 13.7143 2.69643C13.7143 1.20723 14.9215 0 16.4107 0C17.8999 0 19.1071 1.20723 19.1071 2.69643Z" fill="white"/>
<path d="M35.2857 2.69643C35.2857 4.18563 34.0785 5.39286 32.5893 5.39286C31.1001 5.39286 29.8929 4.18563 29.8929 2.69643C29.8929 1.20723 31.1001 0 32.5893 0C34.0785 0 35.2857 1.20723 35.2857 2.69643Z" fill="white"/>
<path d="M-13.25 18.875C-13.25 20.3642 -14.4572 21.5714 -15.9464 21.5714C-17.4356 21.5714 -18.6429 20.3642 -18.6429 18.875C-18.6429 17.3858 -17.4356 16.1786 -15.9464 16.1786C-14.4572 16.1786 -13.25 17.3858 -13.25 18.875Z" fill="white"/>
<path d="M2.92857 18.875C2.92857 20.3642 1.72134 21.5714 0.232143 21.5714C-1.25705 21.5714 -2.46429 20.3642 -2.46429 18.875C-2.46429 17.3858 -1.25705 16.1786 0.232143 16.1786C1.72134 16.1786 2.92857 17.3858 2.92857 18.875Z" fill="white"/>
<path d="M19.1071 18.875C19.1071 20.3642 17.8999 21.5714 16.4107 21.5714C14.9215 21.5714 13.7143 20.3642 13.7143 18.875C13.7143 17.3858 14.9215 16.1786 16.4107 16.1786C17.8999 16.1786 19.1071 17.3858 19.1071 18.875Z" fill="white"/>
<path d="M35.2857 18.875C35.2857 20.3642 34.0785 21.5714 32.5893 21.5714C31.1001 21.5714 29.8929 20.3642 29.8929 18.875C29.8929 17.3858 31.1001 16.1786 32.5893 16.1786C34.0785 16.1786 35.2857 17.3858 35.2857 18.875Z" fill="white"/>
<path d="M-29.4286 35.0536C-29.4286 36.5428 -30.6358 37.75 -32.125 37.75C-33.6142 37.75 -34.8214 36.5428 -34.8214 35.0536C-34.8214 33.5644 -33.6142 32.3571 -32.125 32.3571C-30.6358 32.3571 -29.4286 33.5644 -29.4286 35.0536Z" fill="white"/>
<path d="M-13.25 35.0536C-13.25 36.5428 -14.4572 37.75 -15.9464 37.75C-17.4356 37.75 -18.6429 36.5428 -18.6429 35.0536C-18.6429 33.5644 -17.4356 32.3571 -15.9464 32.3571C-14.4572 32.3571 -13.25 33.5644 -13.25 35.0536Z" fill="white"/>
<path d="M2.92857 35.0536C2.92857 36.5428 1.72134 37.75 0.232143 37.75C-1.25705 37.75 -2.46429 36.5428 -2.46429 35.0536C-2.46429 33.5644 -1.25705 32.3571 0.232143 32.3571C1.72134 32.3571 2.92857 33.5644 2.92857 35.0536Z" fill="white"/>
<path d="M19.1071 35.0536C19.1071 36.5428 17.8999 37.75 16.4107 37.75C14.9215 37.75 13.7143 36.5428 13.7143 35.0536C13.7143 33.5644 14.9215 32.3571 16.4107 32.3571C17.8999 32.3571 19.1071 33.5644 19.1071 35.0536Z" fill="white"/>
<path d="M35.2857 35.0536C35.2857 36.5428 34.0785 37.75 32.5893 37.75C31.1001 37.75 29.8929 36.5428 29.8929 35.0536C29.8929 33.5644 31.1001 32.3571 32.5893 32.3571C34.0785 32.3571 35.2857 33.5644 35.2857 35.0536Z" fill="white"/>
<path d="M-45.6071 51.2321C-45.6071 52.7213 -46.8144 53.9286 -48.3036 53.9286C-49.7928 53.9286 -51 52.7213 -51 51.2321C-51 49.7429 -49.7928 48.5357 -48.3036 48.5357C-46.8144 48.5357 -45.6071 49.7429 -45.6071 51.2321Z" fill="white"/>
<path d="M-29.4286 51.2321C-29.4286 52.7213 -30.6358 53.9286 -32.125 53.9286C-33.6142 53.9286 -34.8214 52.7213 -34.8214 51.2321C-34.8214 49.7429 -33.6142 48.5357 -32.125 48.5357C-30.6358 48.5357 -29.4286 49.7429 -29.4286 51.2321Z" fill="white"/>
<path d="M-13.25 51.2321C-13.25 52.7213 -14.4572 53.9286 -15.9464 53.9286C-17.4356 53.9286 -18.6429 52.7213 -18.6429 51.2321C-18.6429 49.7429 -17.4356 48.5357 -15.9464 48.5357C-14.4572 48.5357 -13.25 49.7429 -13.25 51.2321Z" fill="white"/>
<path d="M2.92857 51.2321C2.92857 52.7213 1.72134 53.9286 0.232143 53.9286C-1.25705 53.9286 -2.46429 52.7213 -2.46429 51.2321C-2.46429 49.7429 -1.25705 48.5357 0.232143 48.5357C1.72134 48.5357 2.92857 49.7429 2.92857 51.2321Z" fill="white"/>
<path d="M19.1071 51.2321C19.1071 52.7213 17.8999 53.9286 16.4107 53.9286C14.9215 53.9286 13.7143 52.7213 13.7143 51.2321C13.7143 49.7429 14.9215 48.5357 16.4107 48.5357C17.8999 48.5357 19.1071 49.7429 19.1071 51.2321Z" fill="white"/>
<path d="M35.2857 51.2321C35.2857 52.7213 34.0785 53.9286 32.5893 53.9286C31.1001 53.9286 29.8929 52.7213 29.8929 51.2321C29.8929 49.7429 31.1001 48.5357 32.5893 48.5357C34.0785 48.5357 35.2857 49.7429 35.2857 51.2321Z" fill="white"/>
<path d="M-45.6071 67.4107C-45.6071 68.8999 -46.8144 70.1071 -48.3036 70.1071C-49.7928 70.1071 -51 68.8999 -51 67.4107C-51 65.9215 -49.7928 64.7143 -48.3036 64.7143C-46.8144 64.7143 -45.6071 65.9215 -45.6071 67.4107Z" fill="white"/>
<path d="M-29.4286 67.4107C-29.4286 68.8999 -30.6358 70.1071 -32.125 70.1071C-33.6142 70.1071 -34.8214 68.8999 -34.8214 67.4107C-34.8214 65.9215 -33.6142 64.7143 -32.125 64.7143C-30.6358 64.7143 -29.4286 65.9215 -29.4286 67.4107Z" fill="white"/>
<path d="M-13.25 67.4107C-13.25 68.8999 -14.4572 70.1071 -15.9464 70.1071C-17.4356 70.1071 -18.6429 68.8999 -18.6429 67.4107C-18.6429 65.9215 -17.4356 64.7143 -15.9464 64.7143C-14.4572 64.7143 -13.25 65.9215 -13.25 67.4107Z" fill="white"/>
<path d="M2.92857 67.4107C2.92857 68.8999 1.72134 70.1071 0.232143 70.1071C-1.25705 70.1071 -2.46429 68.8999 -2.46429 67.4107C-2.46429 65.9215 -1.25705 64.7143 0.232143 64.7143C1.72134 64.7143 2.92857 65.9215 2.92857 67.4107Z" fill="white"/>
<path d="M19.1071 67.4107C19.1071 68.8999 17.8999 70.1071 16.4107 70.1071C14.9215 70.1071 13.7143 68.8999 13.7143 67.4107C13.7143 65.9215 14.9215 64.7143 16.4107 64.7143C17.8999 64.7143 19.1071 65.9215 19.1071 67.4107Z" fill="white"/>
<path d="M35.2857 67.4107C35.2857 68.8999 34.0785 70.1071 32.5893 70.1071C31.1001 70.1071 29.8929 68.8999 29.8929 67.4107C29.8929 65.9215 31.1001 64.7143 32.5893 64.7143C34.0785 64.7143 35.2857 65.9215 35.2857 67.4107Z" fill="white"/>
<path d="M-45.6071 83.5893C-45.6071 85.0785 -46.8144 86.2857 -48.3036 86.2857C-49.7928 86.2857 -51 85.0785 -51 83.5893C-51 82.1001 -49.7928 80.8929 -48.3036 80.8929C-46.8144 80.8929 -45.6071 82.1001 -45.6071 83.5893Z" fill="white"/>
<path d="M-29.4286 83.5893C-29.4286 85.0785 -30.6358 86.2857 -32.125 86.2857C-33.6142 86.2857 -34.8214 85.0785 -34.8214 83.5893C-34.8214 82.1001 -33.6142 80.8929 -32.125 80.8929C-30.6358 80.8929 -29.4286 82.1001 -29.4286 83.5893Z" fill="white"/>
<path d="M-13.25 83.5893C-13.25 85.0785 -14.4572 86.2857 -15.9464 86.2857C-17.4356 86.2857 -18.6429 85.0785 -18.6429 83.5893C-18.6429 82.1001 -17.4356 80.8929 -15.9464 80.8929C-14.4572 80.8929 -13.25 82.1001 -13.25 83.5893Z" fill="white"/>
<path d="M2.92857 83.5893C2.92857 85.0785 1.72134 86.2857 0.232143 86.2857C-1.25705 86.2857 -2.46429 85.0785 -2.46429 83.5893C-2.46429 82.1001 -1.25705 80.8929 0.232143 80.8929C1.72134 80.8929 2.92857 82.1001 2.92857 83.5893Z" fill="white"/>
<path d="M19.1071 83.5893C19.1071 85.0785 17.8999 86.2857 16.4107 86.2857C14.9215 86.2857 13.7143 85.0785 13.7143 83.5893C13.7143 82.1001 14.9215 80.8929 16.4107 80.8929C17.8999 80.8929 19.1071 82.1001 19.1071 83.5893Z" fill="white"/>
<path d="M35.2857 83.5893C35.2857 85.0785 34.0785 86.2857 32.5893 86.2857C31.1001 86.2857 29.8929 85.0785 29.8929 83.5893C29.8929 82.1001 31.1001 80.8929 32.5893 80.8929C34.0785 80.8929 35.2857 82.1001 35.2857 83.5893Z" fill="white"/>
<path d="M-45.6071 99.7679C-45.6071 101.257 -46.8144 102.464 -48.3036 102.464C-49.7928 102.464 -51 101.257 -51 99.7679C-51 98.2787 -49.7928 97.0714 -48.3036 97.0714C-46.8144 97.0714 -45.6071 98.2787 -45.6071 99.7679Z" fill="white"/>
<path d="M-29.4286 99.7679C-29.4286 101.257 -30.6358 102.464 -32.125 102.464C-33.6142 102.464 -34.8214 101.257 -34.8214 99.7679C-34.8214 98.2787 -33.6142 97.0714 -32.125 97.0714C-30.6358 97.0714 -29.4286 98.2787 -29.4286 99.7679Z" fill="white"/>
<path d="M-13.25 99.7679C-13.25 101.257 -14.4572 102.464 -15.9464 102.464C-17.4356 102.464 -18.6429 101.257 -18.6429 99.7679C-18.6429 98.2787 -17.4356 97.0714 -15.9464 97.0714C-14.4572 97.0714 -13.25 98.2787 -13.25 99.7679Z" fill="white"/>
<path d="M2.92857 99.7679C2.92857 101.257 1.72134 102.464 0.232143 102.464C-1.25705 102.464 -2.46429 101.257 -2.46429 99.7679C-2.46429 98.2787 -1.25705 97.0714 0.232143 97.0714C1.72134 97.0714 2.92857 98.2787 2.92857 99.7679Z" fill="white"/>
<path d="M19.1071 99.7679C19.1071 101.257 17.8999 102.464 16.4107 102.464C14.9215 102.464 13.7143 101.257 13.7143 99.7679C13.7143 98.2787 14.9215 97.0714 16.4107 97.0714C17.8999 97.0714 19.1071 98.2787 19.1071 99.7679Z" fill="white"/>
<path d="M35.2857 99.7679C35.2857 101.257 34.0785 102.464 32.5893 102.464C31.1001 102.464 29.8929 101.257 29.8929 99.7679C29.8929 98.2787 31.1001 97.0714 32.5893 97.0714C34.0785 97.0714 35.2857 98.2787 35.2857 99.7679Z" fill="white"/>
<path d="M-29.4286 115.946C-29.4286 117.436 -30.6358 118.643 -32.125 118.643C-33.6142 118.643 -34.8214 117.436 -34.8214 115.946C-34.8214 114.457 -33.6142 113.25 -32.125 113.25C-30.6358 113.25 -29.4286 114.457 -29.4286 115.946Z" fill="white"/>
<path d="M-13.25 115.946C-13.25 117.436 -14.4572 118.643 -15.9464 118.643C-17.4356 118.643 -18.6429 117.436 -18.6429 115.946C-18.6429 114.457 -17.4356 113.25 -15.9464 113.25C-14.4572 113.25 -13.25 114.457 -13.25 115.946Z" fill="white"/>
<path d="M2.92857 115.946C2.92857 117.436 1.72134 118.643 0.232143 118.643C-1.25705 118.643 -2.46429 117.436 -2.46429 115.946C-2.46429 114.457 -1.25705 113.25 0.232143 113.25C1.72134 113.25 2.92857 114.457 2.92857 115.946Z" fill="white"/>
<path d="M19.1071 115.946C19.1071 117.436 17.8999 118.643 16.4107 118.643C14.9215 118.643 13.7143 117.436 13.7143 115.946C13.7143 114.457 14.9215 113.25 16.4107 113.25C17.8999 113.25 19.1071 114.457 19.1071 115.946Z" fill="white"/>
<path d="M35.2857 115.946C35.2857 117.436 34.0785 118.643 32.5893 118.643C31.1001 118.643 29.8929 117.436 29.8929 115.946C29.8929 114.457 31.1001 113.25 32.5893 113.25C34.0785 113.25 35.2857 114.457 35.2857 115.946Z" fill="white"/>
<path d="M-13.25 132.125C-13.25 133.614 -14.4572 134.821 -15.9464 134.821C-17.4356 134.821 -18.6429 133.614 -18.6429 132.125C-18.6429 130.636 -17.4356 129.429 -15.9464 129.429C-14.4572 129.429 -13.25 130.636 -13.25 132.125Z" fill="white"/>
<path d="M2.92857 132.125C2.92857 133.614 1.72134 134.821 0.232143 134.821C-1.25705 134.821 -2.46429 133.614 -2.46429 132.125C-2.46429 130.636 -1.25705 129.429 0.232143 129.429C1.72134 129.429 2.92857 130.636 2.92857 132.125Z" fill="white"/>
<path d="M19.1071 132.125C19.1071 133.614 17.8999 134.821 16.4107 134.821C14.9215 134.821 13.7143 133.614 13.7143 132.125C13.7143 130.636 14.9215 129.429 16.4107 129.429C17.8999 129.429 19.1071 130.636 19.1071 132.125Z" fill="white"/>
<path d="M35.2857 132.125C35.2857 133.614 34.0785 134.821 32.5893 134.821C31.1001 134.821 29.8929 133.614 29.8929 132.125C29.8929 130.636 31.1001 129.429 32.5893 129.429C34.0785 129.429 35.2857 130.636 35.2857 132.125Z" fill="white"/>
<path d="M2.92857 148.304C2.92857 149.793 1.72134 151 0.232143 151C-1.25705 151 -2.46429 149.793 -2.46429 148.304C-2.46429 146.814 -1.25705 145.607 0.232143 145.607C1.72134 145.607 2.92857 146.814 2.92857 148.304Z" fill="white"/>
<path d="M19.1071 148.304C19.1071 149.793 17.8999 151 16.4107 151C14.9215 151 13.7143 149.793 13.7143 148.304C13.7143 146.814 14.9215 145.607 16.4107 145.607C17.8999 145.607 19.1071 146.814 19.1071 148.304Z" fill="white"/>
<path d="M35.2857 148.304C35.2857 149.793 34.0785 151 32.5893 151C31.1001 151 29.8929 149.793 29.8929 148.304C29.8929 146.814 31.1001 145.607 32.5893 145.607C34.0785 145.607 35.2857 146.814 35.2857 148.304Z" fill="white"/>
</svg>
