<svg width="87" height="126" viewBox="0 0 87 126" fill="none" xmlns="http://www.w3.org/2000/svg">
<path d="M1.03516 29.3035C0.722275 29.9079 0.417549 30.5182 0.121155 31.1342C0.659386 30.7416 1.01911 30.0699 1.03516 29.3035Z" fill="white"/>
<path d="M24.9219 3.48023C24.3695 3.81072 23.8222 4.1505 23.2801 4.49937C23.9675 4.48149 24.5698 4.08037 24.9219 3.48023Z" fill="white"/>
<path d="M83.7199 4.49937C83.1778 4.1505 82.6305 3.81072 82.0781 3.48023C82.4302 4.08037 83.0325 4.48149 83.7199 4.49937Z" fill="white"/>
<path d="M97.6509 16.8192C96.7685 15.7707 95.8564 14.7537 94.9161 13.7698C94.2855 14.1503 93.8571 14.8944 93.8571 15.75C93.8571 16.9926 94.7606 18 95.875 18C96.6424 18 97.3097 17.5224 97.6509 16.8192Z" fill="white"/>
<path d="M106.879 31.1342C106.582 30.5182 106.278 29.9079 105.965 29.3035C105.981 30.0699 106.341 30.7416 106.879 31.1342Z" fill="white"/>
<path d="M0.121155 94.8658C0.417549 95.4818 0.722275 96.0921 1.03516 96.6965C1.01911 95.9301 0.659386 95.2584 0.121155 94.8658Z" fill="white"/>
<path d="M23.2801 121.501C23.9675 121.519 24.5698 121.92 24.9219 122.52C24.3695 122.189 23.8222 121.849 23.2801 121.501Z" fill="white"/>
<path d="M82.0781 122.52C82.4302 121.92 83.0325 121.519 83.7199 121.501C83.1778 121.849 82.6305 122.189 82.0781 122.52Z" fill="white"/>
<path d="M94.9161 112.23C94.2855 111.85 93.8571 111.106 93.8571 110.25C93.8571 109.007 94.7606 108 95.875 108C96.6424 108 97.3097 108.478 97.6509 109.181C96.7685 110.229 95.8564 111.246 94.9161 112.23Z" fill="white"/>
<path d="M105.965 96.6965C105.981 95.9301 106.341 95.2584 106.879 94.8658C106.582 95.4818 106.278 96.0921 105.965 96.6965Z" fill="white"/>
<path d="M69.6429 2.25C69.6429 3.49264 70.5463 4.5 71.6607 4.5C72.7751 4.5 73.6786 3.49264 73.6786 2.25C73.6786 1.00736 72.7751 0 71.6607 0C70.5463 0 69.6429 1.00736 69.6429 2.25Z" fill="white"/>
<path d="M57.5357 2.25C57.5357 3.49264 58.4391 4.5 59.5536 4.5C60.668 4.5 61.5714 3.49264 61.5714 2.25C61.5714 1.00736 60.668 0 59.5536 0C58.4391 0 57.5357 1.00736 57.5357 2.25Z" fill="white"/>
<path d="M45.4286 2.25C45.4286 3.49264 46.332 4.5 47.4464 4.5C48.5609 4.5 49.4643 3.49264 49.4643 2.25C49.4643 1.00736 48.5609 0 47.4464 0C46.332 0 45.4286 1.00736 45.4286 2.25Z" fill="white"/>
<path d="M81.75 15.75C81.75 16.9926 82.6534 18 83.7679 18C84.8823 18 85.7857 16.9926 85.7857 15.75C85.7857 14.5074 84.8823 13.5 83.7679 13.5C82.6534 13.5 81.75 14.5074 81.75 15.75Z" fill="white"/>
<path d="M69.6429 15.75C69.6429 16.9926 70.5463 18 71.6607 18C72.7751 18 73.6786 16.9926 73.6786 15.75C73.6786 14.5074 72.7751 13.5 71.6607 13.5C70.5463 13.5 69.6429 14.5074 69.6429 15.75Z" fill="white"/>
<path d="M57.5357 15.75C57.5357 16.9926 58.4391 18 59.5536 18C60.668 18 61.5714 16.9926 61.5714 15.75C61.5714 14.5074 60.668 13.5 59.5536 13.5C58.4391 13.5 57.5357 14.5074 57.5357 15.75Z" fill="white"/>
<path d="M45.4286 15.75C45.4286 16.9926 46.332 18 47.4464 18C48.5609 18 49.4643 16.9926 49.4643 15.75C49.4643 14.5074 48.5609 13.5 47.4464 13.5C46.332 13.5 45.4286 14.5074 45.4286 15.75Z" fill="white"/>
<path d="M93.8571 29.25C93.8571 30.4926 94.7606 31.5 95.875 31.5C96.9894 31.5 97.8929 30.4926 97.8929 29.25C97.8929 28.0074 96.9894 27 95.875 27C94.7606 27 93.8571 28.0074 93.8571 29.25Z" fill="white"/>
<path d="M81.75 29.25C81.75 30.4926 82.6534 31.5 83.7679 31.5C84.8823 31.5 85.7857 30.4926 85.7857 29.25C85.7857 28.0074 84.8823 27 83.7679 27C82.6534 27 81.75 28.0074 81.75 29.25Z" fill="white"/>
<path d="M69.6429 29.25C69.6429 30.4926 70.5463 31.5 71.6607 31.5C72.7751 31.5 73.6786 30.4926 73.6786 29.25C73.6786 28.0074 72.7751 27 71.6607 27C70.5463 27 69.6429 28.0074 69.6429 29.25Z" fill="white"/>
<path d="M57.5357 29.25C57.5357 30.4926 58.4391 31.5 59.5536 31.5C60.668 31.5 61.5714 30.4926 61.5714 29.25C61.5714 28.0074 60.668 27 59.5536 27C58.4391 27 57.5357 28.0074 57.5357 29.25Z" fill="white"/>
<path d="M45.4286 29.25C45.4286 30.4926 46.332 31.5 47.4464 31.5C48.5609 31.5 49.4643 30.4926 49.4643 29.25C49.4643 28.0074 48.5609 27 47.4464 27C46.332 27 45.4286 28.0074 45.4286 29.25Z" fill="white"/>
<path d="M105.964 42.75C105.964 43.9926 106.868 45 107.982 45C109.097 45 110 43.9926 110 42.75C110 41.5074 109.097 40.5 107.982 40.5C106.868 40.5 105.964 41.5074 105.964 42.75Z" fill="white"/>
<path d="M93.8571 42.75C93.8571 43.9926 94.7606 45 95.875 45C96.9894 45 97.8929 43.9926 97.8929 42.75C97.8929 41.5074 96.9894 40.5 95.875 40.5C94.7606 40.5 93.8571 41.5074 93.8571 42.75Z" fill="white"/>
<path d="M81.75 42.75C81.75 43.9926 82.6534 45 83.7679 45C84.8823 45 85.7857 43.9926 85.7857 42.75C85.7857 41.5074 84.8823 40.5 83.7679 40.5C82.6534 40.5 81.75 41.5074 81.75 42.75Z" fill="white"/>
<path d="M69.6429 42.75C69.6429 43.9926 70.5463 45 71.6607 45C72.7751 45 73.6786 43.9926 73.6786 42.75C73.6786 41.5074 72.7751 40.5 71.6607 40.5C70.5463 40.5 69.6429 41.5074 69.6429 42.75Z" fill="white"/>
<path d="M57.5357 42.75C57.5357 43.9926 58.4391 45 59.5536 45C60.668 45 61.5714 43.9926 61.5714 42.75C61.5714 41.5074 60.668 40.5 59.5536 40.5C58.4391 40.5 57.5357 41.5074 57.5357 42.75Z" fill="white"/>
<path d="M45.4286 42.75C45.4286 43.9926 46.332 45 47.4464 45C48.5609 45 49.4643 43.9926 49.4643 42.75C49.4643 41.5074 48.5609 40.5 47.4464 40.5C46.332 40.5 45.4286 41.5074 45.4286 42.75Z" fill="white"/>
<path d="M105.964 56.25C105.964 57.4926 106.868 58.5 107.982 58.5C109.097 58.5 110 57.4926 110 56.25C110 55.0074 109.097 54 107.982 54C106.868 54 105.964 55.0074 105.964 56.25Z" fill="white"/>
<path d="M93.8571 56.25C93.8571 57.4926 94.7606 58.5 95.875 58.5C96.9894 58.5 97.8929 57.4926 97.8929 56.25C97.8929 55.0074 96.9894 54 95.875 54C94.7606 54 93.8571 55.0074 93.8571 56.25Z" fill="white"/>
<path d="M81.75 56.25C81.75 57.4926 82.6534 58.5 83.7679 58.5C84.8823 58.5 85.7857 57.4926 85.7857 56.25C85.7857 55.0074 84.8823 54 83.7679 54C82.6534 54 81.75 55.0074 81.75 56.25Z" fill="white"/>
<path d="M69.6429 56.25C69.6429 57.4926 70.5463 58.5 71.6607 58.5C72.7751 58.5 73.6786 57.4926 73.6786 56.25C73.6786 55.0074 72.7751 54 71.6607 54C70.5463 54 69.6429 55.0074 69.6429 56.25Z" fill="white"/>
<path d="M57.5357 56.25C57.5357 57.4926 58.4391 58.5 59.5536 58.5C60.668 58.5 61.5714 57.4926 61.5714 56.25C61.5714 55.0074 60.668 54 59.5536 54C58.4391 54 57.5357 55.0074 57.5357 56.25Z" fill="white"/>
<path d="M45.4286 56.25C45.4286 57.4926 46.332 58.5 47.4464 58.5C48.5609 58.5 49.4643 57.4926 49.4643 56.25C49.4643 55.0074 48.5609 54 47.4464 54C46.332 54 45.4286 55.0074 45.4286 56.25Z" fill="white"/>
<path d="M105.964 69.75C105.964 70.9926 106.868 72 107.982 72C109.097 72 110 70.9926 110 69.75C110 68.5074 109.097 67.5 107.982 67.5C106.868 67.5 105.964 68.5074 105.964 69.75Z" fill="white"/>
<path d="M93.8571 69.75C93.8571 70.9926 94.7606 72 95.875 72C96.9894 72 97.8929 70.9926 97.8929 69.75C97.8929 68.5074 96.9894 67.5 95.875 67.5C94.7606 67.5 93.8571 68.5074 93.8571 69.75Z" fill="white"/>
<path d="M81.75 69.75C81.75 70.9926 82.6534 72 83.7679 72C84.8823 72 85.7857 70.9926 85.7857 69.75C85.7857 68.5074 84.8823 67.5 83.7679 67.5C82.6534 67.5 81.75 68.5074 81.75 69.75Z" fill="white"/>
<path d="M69.6429 69.75C69.6429 70.9926 70.5463 72 71.6607 72C72.7751 72 73.6786 70.9926 73.6786 69.75C73.6786 68.5074 72.7751 67.5 71.6607 67.5C70.5463 67.5 69.6429 68.5074 69.6429 69.75Z" fill="white"/>
<path d="M57.5357 69.75C57.5357 70.9926 58.4391 72 59.5536 72C60.668 72 61.5714 70.9926 61.5714 69.75C61.5714 68.5074 60.668 67.5 59.5536 67.5C58.4391 67.5 57.5357 68.5074 57.5357 69.75Z" fill="white"/>
<path d="M45.4286 69.75C45.4286 70.9926 46.332 72 47.4464 72C48.5609 72 49.4643 70.9926 49.4643 69.75C49.4643 68.5074 48.5609 67.5 47.4464 67.5C46.332 67.5 45.4286 68.5074 45.4286 69.75Z" fill="white"/>
<path d="M105.964 83.25C105.964 84.4926 106.868 85.5 107.982 85.5C109.097 85.5 110 84.4926 110 83.25C110 82.0074 109.097 81 107.982 81C106.868 81 105.964 82.0074 105.964 83.25Z" fill="white"/>
<path d="M93.8571 83.25C93.8571 84.4926 94.7606 85.5 95.875 85.5C96.9894 85.5 97.8929 84.4926 97.8929 83.25C97.8929 82.0074 96.9894 81 95.875 81C94.7606 81 93.8571 82.0074 93.8571 83.25Z" fill="white"/>
<path d="M81.75 83.25C81.75 84.4926 82.6534 85.5 83.7679 85.5C84.8823 85.5 85.7857 84.4926 85.7857 83.25C85.7857 82.0074 84.8823 81 83.7679 81C82.6534 81 81.75 82.0074 81.75 83.25Z" fill="white"/>
<path d="M69.6429 83.25C69.6429 84.4926 70.5463 85.5 71.6607 85.5C72.7751 85.5 73.6786 84.4926 73.6786 83.25C73.6786 82.0074 72.7751 81 71.6607 81C70.5463 81 69.6429 82.0074 69.6429 83.25Z" fill="white"/>
<path d="M57.5357 83.25C57.5357 84.4926 58.4391 85.5 59.5536 85.5C60.668 85.5 61.5714 84.4926 61.5714 83.25C61.5714 82.0074 60.668 81 59.5536 81C58.4391 81 57.5357 82.0074 57.5357 83.25Z" fill="white"/>
<path d="M45.4286 83.25C45.4286 84.4926 46.332 85.5 47.4464 85.5C48.5609 85.5 49.4643 84.4926 49.4643 83.25C49.4643 82.0074 48.5609 81 47.4464 81C46.332 81 45.4286 82.0074 45.4286 83.25Z" fill="white"/>
<path d="M93.8571 96.75C93.8571 97.9926 94.7606 99 95.875 99C96.9894 99 97.8929 97.9926 97.8929 96.75C97.8929 95.5074 96.9894 94.5 95.875 94.5C94.7606 94.5 93.8571 95.5074 93.8571 96.75Z" fill="white"/>
<path d="M81.75 96.75C81.75 97.9926 82.6534 99 83.7679 99C84.8823 99 85.7857 97.9926 85.7857 96.75C85.7857 95.5074 84.8823 94.5 83.7679 94.5C82.6534 94.5 81.75 95.5074 81.75 96.75Z" fill="white"/>
<path d="M69.6429 96.75C69.6429 97.9926 70.5463 99 71.6607 99C72.7751 99 73.6786 97.9926 73.6786 96.75C73.6786 95.5074 72.7751 94.5 71.6607 94.5C70.5463 94.5 69.6429 95.5074 69.6429 96.75Z" fill="white"/>
<path d="M57.5357 96.75C57.5357 97.9926 58.4391 99 59.5536 99C60.668 99 61.5714 97.9926 61.5714 96.75C61.5714 95.5074 60.668 94.5 59.5536 94.5C58.4391 94.5 57.5357 95.5074 57.5357 96.75Z" fill="white"/>
<path d="M45.4286 96.75C45.4286 97.9926 46.332 99 47.4464 99C48.5609 99 49.4643 97.9926 49.4643 96.75C49.4643 95.5074 48.5609 94.5 47.4464 94.5C46.332 94.5 45.4286 95.5074 45.4286 96.75Z" fill="white"/>
<path d="M81.75 110.25C81.75 111.493 82.6534 112.5 83.7679 112.5C84.8823 112.5 85.7857 111.493 85.7857 110.25C85.7857 109.007 84.8823 108 83.7679 108C82.6534 108 81.75 109.007 81.75 110.25Z" fill="white"/>
<path d="M69.6429 110.25C69.6429 111.493 70.5463 112.5 71.6607 112.5C72.7751 112.5 73.6786 111.493 73.6786 110.25C73.6786 109.007 72.7751 108 71.6607 108C70.5463 108 69.6429 109.007 69.6429 110.25Z" fill="white"/>
<path d="M57.5357 110.25C57.5357 111.493 58.4391 112.5 59.5536 112.5C60.668 112.5 61.5714 111.493 61.5714 110.25C61.5714 109.007 60.668 108 59.5536 108C58.4391 108 57.5357 109.007 57.5357 110.25Z" fill="white"/>
<path d="M45.4286 110.25C45.4286 111.493 46.332 112.5 47.4464 112.5C48.5609 112.5 49.4643 111.493 49.4643 110.25C49.4643 109.007 48.5609 108 47.4464 108C46.332 108 45.4286 109.007 45.4286 110.25Z" fill="white"/>
<path d="M69.6429 123.75C69.6429 124.993 70.5463 126 71.6607 126C72.7751 126 73.6786 124.993 73.6786 123.75C73.6786 122.507 72.7751 121.5 71.6607 121.5C70.5463 121.5 69.6429 122.507 69.6429 123.75Z" fill="white"/>
<path d="M57.5357 123.75C57.5357 124.993 58.4391 126 59.5536 126C60.668 126 61.5714 124.993 61.5714 123.75C61.5714 122.507 60.668 121.5 59.5536 121.5C58.4391 121.5 57.5357 122.507 57.5357 123.75Z" fill="white"/>
<path d="M45.4286 123.75C45.4286 124.993 46.332 126 47.4464 126C48.5609 126 49.4643 124.993 49.4643 123.75C49.4643 122.507 48.5609 121.5 47.4464 121.5C46.332 121.5 45.4286 122.507 45.4286 123.75Z" fill="white"/>
</svg>
