<svg width="36" height="36" viewBox="0 0 36 36" fill="none" xmlns="http://www.w3.org/2000/svg">
<path d="M6.75 25.875V29.25C6.75 29.871 7.254 30.375 7.875 30.375H28.125C28.746 30.375 29.25 29.871 29.25 29.25V25.875C29.25 25.254 28.746 24.75 28.125 24.75C27.504 24.75 27 25.254 27 25.875V28.125H9V25.875C9 25.254 8.496 24.75 7.875 24.75C7.254 24.75 6.75 25.254 6.75 25.875Z" fill="#F7FBFC"/>
<path d="M21.9375 18V7.875C21.9375 7.254 21.4335 6.75 20.8125 6.75H15.1875C14.5665 6.75 14.0625 7.254 14.0625 7.875V18H11.25C10.7955 18 10.3848 18.2745 10.2105 18.6941C10.0361 19.1149 10.1328 19.5986 10.4546 19.9204L17.2046 26.6704C17.6433 27.1103 18.3566 27.1103 18.7953 26.6704L25.5453 19.9204C25.8671 19.5986 25.9638 19.1149 25.7895 18.6941C25.6151 18.2745 25.2045 18 24.75 18H21.9375Z" fill="#F7FBFC"/>
</svg>
