<svg width="30" height="30" viewBox="0 0 30 30" fill="none" xmlns="http://www.w3.org/2000/svg">
<g clip-path="url(#clip0_97_2116)">
<path d="M28.7637 13.9806C27.211 11.5841 25.2012 9.54504 22.9454 8.09192C20.4434 6.47473 17.6895 5.62512 14.9825 5.62512C12.4922 5.62512 10.043 6.33411 7.69927 7.74036C5.31451 9.17004 3.1524 11.2618 1.27154 13.9572C0.837948 14.5841 0.826229 15.3986 1.23639 16.0372C2.78326 18.4572 4.77545 20.4962 6.99615 21.9376C9.49224 23.5548 12.1817 24.3751 14.9825 24.3751C17.7188 24.3751 20.4786 23.5314 22.9629 21.9318C25.2188 20.4786 27.2227 18.4337 28.7637 16.0197C29.1622 15.3986 29.1622 14.6017 28.7637 13.9806ZM27.1876 15.006C24.1876 19.6993 19.629 22.5001 14.9825 22.5001C10.3536 22.5001 5.8067 19.7052 2.81256 15.0294C6.19928 10.172 10.5176 7.50012 14.9825 7.50012C19.5879 7.50012 24.1524 10.3009 27.1876 14.9943V15.006Z" fill="black"/>
<path d="M15.0001 9.37512C11.9004 9.37512 9.37506 11.9005 9.37506 15.0001C9.37506 18.0997 11.9004 20.6251 15.0001 20.6251C18.0997 20.6251 20.6251 18.0997 20.6251 15.0001C20.6251 11.9005 18.0997 9.37512 15.0001 9.37512ZM15.0001 18.7501C12.9317 18.7501 11.2501 17.0685 11.2501 15.0001C11.2501 12.9318 12.9317 11.2501 15.0001 11.2501C17.0684 11.2501 18.7501 12.9318 18.7501 15.0001C18.7501 17.0685 17.0684 18.7501 15.0001 18.7501Z" fill="black"/>
</g>
<defs>
<clipPath id="clip0_97_2116">
<rect width="30" height="30" fill="white"/>
</clipPath>
</defs>
</svg>
