<svg width="30" height="30" viewBox="0 0 30 30" fill="none" xmlns="http://www.w3.org/2000/svg">
<g clip-path="url(#clip0_97_2526)">
<path d="M28.8704 14.4329C28.6219 14.1001 22.6219 6.32825 15.0001 6.32825C14.2765 6.32985 13.5546 6.3989 12.8438 6.5345C12.7207 6.55493 12.6029 6.59975 12.4973 6.66633C12.3917 6.73291 12.3005 6.8199 12.2289 6.9222C12.1574 7.0245 12.1071 7.14006 12.0808 7.26209C12.0545 7.38411 12.0529 7.51016 12.076 7.63283C12.0991 7.75549 12.1464 7.87231 12.2153 7.97643C12.2841 8.08055 12.3731 8.16987 12.4769 8.23916C12.5807 8.30844 12.6974 8.3563 12.8199 8.37991C12.9425 8.40353 13.0685 8.40243 13.1907 8.37668C13.7871 8.2629 14.3929 8.20484 15.0001 8.20325C20.5782 8.20325 25.4204 13.2751 26.911 15.0001C25.951 16.1104 24.8988 17.1375 23.7657 18.0704C23.67 18.1484 23.5906 18.2445 23.5321 18.3533C23.4737 18.462 23.4373 18.5812 23.425 18.7041C23.4127 18.8269 23.4248 18.951 23.4607 19.0691C23.4965 19.1873 23.5552 19.2972 23.6336 19.3925C23.712 19.4879 23.8085 19.5669 23.9175 19.6249C24.0265 19.6829 24.1458 19.7187 24.2687 19.7305C24.3916 19.7422 24.5156 19.7296 24.6336 19.6933C24.7516 19.6569 24.8613 19.5977 24.9563 19.5189C26.3969 18.3436 27.7089 17.019 28.8704 15.5673C28.9943 15.4042 29.0614 15.205 29.0614 15.0001C29.0614 14.7953 28.9943 14.596 28.8704 14.4329Z" fill="black"/>
<path d="M22.6876 19.8236L18.5626 15.6986L14.3016 11.4376L10.636 7.77201L5.74225 2.87826C5.56447 2.70296 5.32434 2.60547 5.07468 2.60723C4.82502 2.60899 4.58629 2.70985 4.411 2.88763C4.23571 3.06541 4.13822 3.30554 4.13997 3.5552C4.14173 3.80485 4.2426 4.04359 4.42037 4.21888L8.40006 8.19857C5.60928 9.80546 3.14349 11.9199 1.12975 14.4329C1.00581 14.5961 0.938709 14.7953 0.938709 15.0001C0.938709 15.205 1.00581 15.4042 1.12975 15.5673C1.37819 15.9001 7.37819 23.672 15.0001 23.672C17.4289 23.6159 19.8003 22.9224 21.8766 21.6611L25.7813 25.5798C25.9572 25.7557 26.1958 25.8546 26.4446 25.8546C26.6934 25.8546 26.932 25.7557 27.1079 25.5798C27.2838 25.4039 27.3826 25.1653 27.3826 24.9165C27.3826 24.6678 27.2838 24.4292 27.1079 24.2533L22.6876 19.8236ZM13.5094 13.2939L16.711 16.4954C16.5063 16.7289 16.2559 16.918 15.9753 17.0508C15.6946 17.1836 15.3897 17.2574 15.0794 17.2676C14.7691 17.2778 14.4599 17.2242 14.1712 17.1101C13.8824 16.996 13.6201 16.8239 13.4006 16.6043C13.181 16.3848 13.0088 16.1225 12.8948 15.8337C12.7807 15.5449 12.7271 15.2358 12.7373 14.9255C12.7475 14.6152 12.8213 14.3102 12.9541 14.0296C13.0869 13.7489 13.2759 13.4985 13.5094 13.2939ZM15.0001 21.797C9.42194 21.797 4.57975 16.7251 3.08912 15.0001C4.96798 12.7937 7.23706 10.952 9.78287 9.56732L12.1876 11.9673C11.7697 12.3431 11.4327 12.8001 11.1972 13.3104C10.9617 13.8206 10.8326 14.3735 10.8177 14.9353C10.8028 15.4971 10.9025 16.0561 11.1107 16.5781C11.3188 17.1001 11.6311 17.5743 12.0285 17.9717C12.4259 18.369 12.9001 18.6813 13.4221 18.8895C13.9441 19.0977 14.5031 19.1974 15.0649 19.1825C15.6267 19.1676 16.1796 19.0385 16.6898 18.803C17.2001 18.5675 17.6571 18.2305 18.0329 17.8126L20.5032 20.2829C18.8216 21.2335 16.9312 21.7536 15.0001 21.797Z" fill="black"/>
</g>
<defs>
<clipPath id="clip0_97_2526">
<rect width="30" height="30" fill="white"/>
</clipPath>
</defs>
</svg>
