<svg width="223" height="184" viewBox="0 0 223 184" fill="none" xmlns="http://www.w3.org/2000/svg">
<path d="M220.628 121.619C213.055 130.706 200.883 145.309 195.743 151.475" stroke="black" stroke-width="6"/>
<path d="M220.628 151.475C213.055 160.561 200.883 175.165 195.743 181.33" stroke="#002FCC" stroke-width="6"/>
<path d="M188.504 121.619C180.931 130.706 168.759 145.309 163.62 151.475" stroke="black" stroke-width="6"/>
<path d="M188.504 151.475C180.931 160.561 168.759 175.165 163.62 181.33" stroke="#002FCC" stroke-width="6"/>
<path d="M156.38 121.619C148.807 130.706 136.635 145.309 131.496 151.475" stroke="black" stroke-width="6"/>
<path d="M156.38 151.475C148.807 160.561 136.635 175.165 131.496 181.33" stroke="#002FCC" stroke-width="6"/>
<path d="M124.256 121.619C116.683 130.706 104.511 145.309 99.3717 151.475" stroke="black" stroke-width="6"/>
<path d="M124.256 151.475C116.683 160.561 104.511 175.165 99.3717 181.33" stroke="#002FCC" stroke-width="6"/>
<path d="M92.1325 2.19618C84.5589 11.2827 72.387 25.886 67.2478 32.0519" stroke="black" stroke-width="6"/>
<path d="M92.1324 32.0519C84.5588 41.1384 72.387 55.7418 67.2478 61.9076" stroke="#002FCC" stroke-width="6"/>
<path d="M92.1325 61.9076C84.5589 70.9941 72.387 85.5974 67.2478 91.7633" stroke="black" stroke-width="6"/>
<path d="M92.1325 91.7633C84.5589 100.85 72.387 115.453 67.2478 121.619" stroke="#002FCC" stroke-width="6"/>
<path d="M92.1325 121.619C84.5589 130.706 72.387 145.309 67.2478 151.475" stroke="black" stroke-width="6"/>
<path d="M92.1325 151.475C84.5589 160.561 72.387 175.165 67.2478 181.33" stroke="#002FCC" stroke-width="6"/>
<path d="M60.0086 2.19618C52.435 11.2827 40.2632 25.886 35.1239 32.0519" stroke="black" stroke-width="6"/>
<path d="M60.0086 32.0519C52.435 41.1384 40.2632 55.7418 35.124 61.9076" stroke="#002FCC" stroke-width="6"/>
<path d="M60.0087 61.9076C52.4351 70.9941 40.2632 85.5974 35.124 91.7633" stroke="black" stroke-width="6"/>
<path d="M60.0087 91.7633C52.4351 100.85 40.2632 115.453 35.124 121.619" stroke="#002FCC" stroke-width="6"/>
<path d="M60.0087 121.619C52.4351 130.706 40.2632 145.309 35.124 151.475" stroke="black" stroke-width="6"/>
<path d="M60.0087 151.475C52.4351 160.561 40.2632 175.165 35.124 181.33" stroke="#002FCC" stroke-width="6"/>
<path d="M27.8847 2.19618C20.3111 11.2827 8.13923 25.886 3 32.0519" stroke="black" stroke-width="6"/>
<path d="M27.8847 32.0519C20.3111 41.1384 8.13924 55.7418 3.00002 61.9076" stroke="#002FCC" stroke-width="6"/>
<path d="M27.8847 61.9076C20.3111 70.9941 8.13926 85.5974 3.00003 91.7633" stroke="black" stroke-width="6"/>
<path d="M27.8847 91.7633C20.3111 100.85 8.13926 115.453 3.00003 121.619" stroke="#002FCC" stroke-width="6"/>
<path d="M27.8847 121.619C20.3111 130.706 8.13926 145.309 3.00003 151.475" stroke="black" stroke-width="6"/>
</svg>
