<svg width="239" height="194" viewBox="0 0 239 194" fill="none" xmlns="http://www.w3.org/2000/svg">
<path d="M236.406 65.0652C228.283 55.4684 215.229 40.0448 209.717 33.5326" stroke="black" stroke-width="6"/>
<path d="M236.406 33.5327C228.283 23.9358 215.229 8.51221 209.717 2.00004" stroke="#002FCC" stroke-width="6"/>
<path d="M201.953 65.0652C193.831 55.4684 180.776 40.0448 175.265 33.5326" stroke="black" stroke-width="6"/>
<path d="M201.953 33.5327C193.831 23.9358 180.776 8.51218 175.265 2.00001" stroke="#002FCC" stroke-width="6"/>
<path d="M167.5 65.0652C159.377 55.4684 146.323 40.0448 140.811 33.5326" stroke="black" stroke-width="6"/>
<path d="M167.5 33.5327C159.377 23.9358 146.323 8.51218 140.811 2.00001" stroke="#002FCC" stroke-width="6"/>
<path d="M133.047 65.0652C124.925 55.4684 111.87 40.0448 106.358 33.5326" stroke="black" stroke-width="6"/>
<path d="M133.047 33.5327C124.925 23.9358 111.87 8.51218 106.358 2.00001" stroke="#002FCC" stroke-width="6"/>
<path d="M98.5945 191.196C90.4719 181.599 77.4176 166.175 71.9058 159.663" stroke="black" stroke-width="6"/>
<path d="M98.5945 159.663C90.4719 150.066 77.4176 134.643 71.9058 128.13" stroke="#002FCC" stroke-width="6"/>
<path d="M98.5945 128.131C90.4719 118.534 77.4176 103.11 71.9058 96.5979" stroke="black" stroke-width="6"/>
<path d="M98.5945 96.5978C90.4719 87.0009 77.4176 71.5774 71.9058 65.0652" stroke="#002FCC" stroke-width="6"/>
<path d="M98.5945 65.0652C90.4719 55.4683 77.4176 40.0447 71.9058 33.5325" stroke="black" stroke-width="6"/>
<path d="M98.5945 33.5325C90.4719 23.9356 77.4176 8.51206 71.9058 1.99988" stroke="#002FCC" stroke-width="6"/>
<path d="M64.1419 191.196C56.0192 181.599 42.9649 166.175 37.4531 159.663" stroke="black" stroke-width="6"/>
<path d="M64.1419 159.663C56.0192 150.066 42.9649 134.643 37.4531 128.13" stroke="#002FCC" stroke-width="6"/>
<path d="M64.1419 128.131C56.0192 118.534 42.9649 103.11 37.4531 96.5979" stroke="black" stroke-width="6"/>
<path d="M64.1419 96.5979C56.0192 87.001 42.9649 71.5774 37.4531 65.0652" stroke="#002FCC" stroke-width="6"/>
<path d="M64.1419 65.0652C56.0192 55.4683 42.9649 40.0447 37.4531 33.5325" stroke="black" stroke-width="6"/>
<path d="M64.1419 33.5327C56.0192 23.9358 42.9649 8.51218 37.4531 2.00001" stroke="#002FCC" stroke-width="6"/>
<path d="M29.6888 191.196C21.5661 181.599 8.51181 166.175 3 159.663" stroke="black" stroke-width="6"/>
<path d="M29.6888 159.663C21.5661 150.066 8.51181 134.643 3 128.13" stroke="#002FCC" stroke-width="6"/>
<path d="M29.6888 128.131C21.5661 118.534 8.51181 103.11 3 96.5979" stroke="black" stroke-width="6"/>
<path d="M29.6888 96.5978C21.5661 87.0009 8.51181 71.5774 3 65.0652" stroke="#002FCC" stroke-width="6"/>
<path d="M29.6888 65.0652C21.5661 55.4683 8.51181 40.0447 3 33.5325" stroke="black" stroke-width="6"/>
</svg>
