<svg width="372" height="306" viewBox="0 0 372 306" fill="none" xmlns="http://www.w3.org/2000/svg">
<path d="M2.60003 102.531C15.351 87.2324 35.8436 62.6461 44.496 52.2653" stroke="black" stroke-width="6"/>
<path d="M2.60003 52.2653C15.351 36.9672 35.8436 12.3809 44.496 2.00004" stroke="#002FCC" stroke-width="6"/>
<path d="M56.684 102.531C69.435 87.2324 89.9276 62.6461 98.58 52.2653" stroke="black" stroke-width="6"/>
<path d="M56.684 52.2653C69.435 36.9671 89.9276 12.3809 98.58 2.00001" stroke="#002FCC" stroke-width="6"/>
<path d="M110.768 102.531C123.519 87.2324 144.012 62.6461 152.664 52.2653" stroke="black" stroke-width="6"/>
<path d="M110.768 52.2653C123.519 36.9671 144.012 12.3809 152.664 2.00001" stroke="#002FCC" stroke-width="6"/>
<path d="M164.852 102.531C177.603 87.2324 198.096 62.6461 206.748 52.2653" stroke="black" stroke-width="6"/>
<path d="M164.852 52.2653C177.603 36.9672 198.096 12.3809 206.748 2.00004" stroke="#002FCC" stroke-width="6"/>
<path d="M218.936 303.592C231.687 288.293 252.18 263.707 260.832 253.326" stroke="black" stroke-width="6"/>
<path d="M218.936 253.326C231.687 238.028 252.18 213.442 260.832 203.061" stroke="#002FCC" stroke-width="6"/>
<path d="M218.936 203.061C231.687 187.763 252.18 163.177 260.832 152.796" stroke="black" stroke-width="6"/>
<path d="M218.936 152.796C231.687 137.498 252.18 112.911 260.832 102.53" stroke="#002FCC" stroke-width="6"/>
<path d="M218.936 102.531C231.687 87.2324 252.18 62.6461 260.832 52.2653" stroke="black" stroke-width="6"/>
<path d="M218.936 52.2652C231.687 36.9671 252.18 12.3808 260.832 1.99998" stroke="#002FCC" stroke-width="6"/>
<path d="M273.02 303.592C285.771 288.293 306.264 263.707 314.916 253.326" stroke="black" stroke-width="6"/>
<path d="M273.02 253.326C285.771 238.028 306.264 213.442 314.916 203.061" stroke="#002FCC" stroke-width="6"/>
<path d="M273.02 203.061C285.771 187.763 306.263 163.177 314.916 152.796" stroke="black" stroke-width="6"/>
<path d="M273.02 152.796C285.771 137.498 306.263 112.911 314.916 102.53" stroke="#002FCC" stroke-width="6"/>
<path d="M273.02 102.531C285.771 87.2324 306.263 62.6461 314.916 52.2653" stroke="black" stroke-width="6"/>
<path d="M273.02 52.2653C285.771 36.9672 306.263 12.3809 314.916 2.00004" stroke="#002FCC" stroke-width="6"/>
<path d="M327.104 303.592C339.855 288.293 360.348 263.707 369 253.326" stroke="black" stroke-width="6"/>
<path d="M327.104 253.326C339.855 238.028 360.348 213.442 369 203.061" stroke="#002FCC" stroke-width="6"/>
<path d="M327.104 203.061C339.855 187.763 360.348 163.177 369 152.796" stroke="black" stroke-width="6"/>
<path d="M327.104 152.796C339.855 137.498 360.348 112.911 369 102.53" stroke="#002FCC" stroke-width="6"/>
<path d="M327.104 102.531C339.855 87.2324 360.348 62.6461 369 52.2653" stroke="black" stroke-width="6"/>
</svg>
