<svg width="290" height="235" viewBox="0 0 290 235" fill="none" xmlns="http://www.w3.org/2000/svg">
<path d="M2.66456 155.873C12.5738 167.581 28.4995 186.397 35.2236 194.342" stroke="black" stroke-width="6"/>
<path d="M2.66456 194.341C12.5738 206.049 28.4995 224.865 35.2236 232.81" stroke="#002FCC" stroke-width="6"/>
<path d="M44.6943 155.873C54.6036 167.581 70.5293 186.397 77.2534 194.342" stroke="black" stroke-width="6"/>
<path d="M44.6943 194.341C54.6036 206.049 70.5293 224.865 77.2534 232.81" stroke="#002FCC" stroke-width="6"/>
<path d="M86.7256 155.873C96.6349 167.581 112.561 186.397 119.285 194.342" stroke="black" stroke-width="6"/>
<path d="M86.7256 194.341C96.6349 206.049 112.561 224.865 119.285 232.81" stroke="#002FCC" stroke-width="6"/>
<path d="M128.756 155.873C138.665 167.581 154.591 186.397 161.315 194.342" stroke="black" stroke-width="6"/>
<path d="M128.756 194.341C138.665 206.049 154.591 224.865 161.315 232.81" stroke="#002FCC" stroke-width="6"/>
<path d="M170.787 1.99969C180.696 13.7075 196.622 32.5235 203.346 40.4681" stroke="black" stroke-width="6"/>
<path d="M170.787 40.4681C180.696 52.1758 196.622 70.9919 203.346 78.9364" stroke="#002FCC" stroke-width="6"/>
<path d="M170.787 78.9364C180.696 90.6441 196.622 109.46 203.346 117.405" stroke="black" stroke-width="6"/>
<path d="M170.787 117.405C180.696 129.113 196.622 147.929 203.346 155.873" stroke="#002FCC" stroke-width="6"/>
<path d="M170.787 155.873C180.696 167.581 196.622 186.397 203.346 194.342" stroke="black" stroke-width="6"/>
<path d="M170.787 194.341C180.696 206.049 196.622 224.865 203.346 232.81" stroke="#002FCC" stroke-width="6"/>
<path d="M212.818 1.99969C222.728 13.7075 238.653 32.5235 245.377 40.4681" stroke="black" stroke-width="6"/>
<path d="M212.818 40.4681C222.728 52.1758 238.653 70.9919 245.377 78.9364" stroke="#002FCC" stroke-width="6"/>
<path d="M212.818 78.9364C222.728 90.6441 238.653 109.46 245.377 117.405" stroke="black" stroke-width="6"/>
<path d="M212.818 117.405C222.728 129.113 238.653 147.929 245.377 155.873" stroke="#002FCC" stroke-width="6"/>
<path d="M212.818 155.873C222.728 167.581 238.653 186.397 245.377 194.342" stroke="black" stroke-width="6"/>
<path d="M212.818 194.341C222.728 206.049 238.653 224.865 245.377 232.81" stroke="#002FCC" stroke-width="6"/>
<path d="M254.849 1.99969C264.758 13.7075 280.684 32.5235 287.408 40.4681" stroke="black" stroke-width="6"/>
<path d="M254.849 40.4681C264.758 52.1758 280.684 70.9919 287.408 78.9364" stroke="#002FCC" stroke-width="6"/>
<path d="M254.849 78.9364C264.758 90.6441 280.684 109.46 287.408 117.405" stroke="black" stroke-width="6"/>
<path d="M254.849 117.405C264.758 129.113 280.684 147.929 287.408 155.873" stroke="#002FCC" stroke-width="6"/>
<path d="M254.849 155.873C264.758 167.581 280.684 186.397 287.408 194.342" stroke="black" stroke-width="6"/>
</svg>
