<svg width="210" height="49" viewBox="0 0 210 49" fill="none" xmlns="http://www.w3.org/2000/svg">
<path d="M88.988 37V11.8H99.896C102.152 11.8 104.096 12.172 105.728 12.916C107.36 13.636 108.62 14.68 109.508 16.048C110.396 17.416 110.84 19.048 110.84 20.944C110.84 22.816 110.396 24.436 109.508 25.804C108.62 27.148 107.36 28.18 105.728 28.9C104.096 29.62 102.152 29.98 99.896 29.98H92.228L94.82 27.424V37H88.988ZM105.008 37L98.708 27.856H104.936L111.308 37H105.008ZM94.82 28.072L92.228 25.336H99.572C101.372 25.336 102.716 24.952 103.604 24.184C104.492 23.392 104.936 22.312 104.936 20.944C104.936 19.552 104.492 18.472 103.604 17.704C102.716 16.936 101.372 16.552 99.572 16.552H92.228L94.82 13.78V28.072ZM126.657 37.432C123.081 37.432 120.285 36.436 118.269 34.444C116.253 32.452 115.245 29.608 115.245 25.912V11.8H121.077V25.696C121.077 28.096 121.569 29.824 122.553 30.88C123.537 31.936 124.917 32.464 126.693 32.464C128.469 32.464 129.849 31.936 130.833 30.88C131.817 29.824 132.309 28.096 132.309 25.696V11.8H138.069V25.912C138.069 29.608 137.061 32.452 135.045 34.444C133.029 36.436 130.233 37.432 126.657 37.432ZM154.884 37.288C153.252 37.288 151.824 36.928 150.6 36.208C149.376 35.488 148.416 34.396 147.72 32.932C147.048 31.444 146.712 29.572 146.712 27.316C146.712 25.036 147.036 23.164 147.684 21.7C148.332 20.236 149.268 19.144 150.492 18.424C151.716 17.704 153.18 17.344 154.884 17.344C156.708 17.344 158.34 17.764 159.78 18.604C161.244 19.42 162.396 20.572 163.236 22.06C164.1 23.548 164.532 25.3 164.532 27.316C164.532 29.356 164.1 31.12 163.236 32.608C162.396 34.096 161.244 35.248 159.78 36.064C158.34 36.88 156.708 37.288 154.884 37.288ZM143.436 43.984V17.632H148.8V21.592L148.692 27.352L149.052 33.076V43.984H143.436ZM153.912 32.68C154.848 32.68 155.676 32.464 156.396 32.032C157.14 31.6 157.728 30.988 158.16 30.196C158.616 29.38 158.844 28.42 158.844 27.316C158.844 26.188 158.616 25.228 158.16 24.436C157.728 23.644 157.14 23.032 156.396 22.6C155.676 22.168 154.848 21.952 153.912 21.952C152.976 21.952 152.136 22.168 151.392 22.6C150.648 23.032 150.06 23.644 149.628 24.436C149.196 25.228 148.98 26.188 148.98 27.316C148.98 28.42 149.196 29.38 149.628 30.196C150.06 30.988 150.648 31.6 151.392 32.032C152.136 32.464 152.976 32.68 153.912 32.68ZM179.855 37V33.22L179.495 32.392V25.624C179.495 24.424 179.123 23.488 178.379 22.816C177.659 22.144 176.543 21.808 175.031 21.808C173.999 21.808 172.979 21.976 171.971 22.312C170.987 22.624 170.147 23.056 169.451 23.608L167.435 19.684C168.491 18.94 169.763 18.364 171.251 17.956C172.739 17.548 174.251 17.344 175.787 17.344C178.739 17.344 181.031 18.04 182.663 19.432C184.295 20.824 185.111 22.996 185.111 25.948V37H179.855ZM173.951 37.288C172.439 37.288 171.143 37.036 170.063 36.532C168.983 36.004 168.155 35.296 167.579 34.408C167.003 33.52 166.715 32.524 166.715 31.42C166.715 30.268 166.991 29.26 167.543 28.396C168.119 27.532 169.019 26.86 170.243 26.38C171.467 25.876 173.063 25.624 175.031 25.624H180.179V28.9H175.643C174.323 28.9 173.411 29.116 172.907 29.548C172.427 29.98 172.187 30.52 172.187 31.168C172.187 31.888 172.463 32.464 173.015 32.896C173.591 33.304 174.371 33.508 175.355 33.508C176.291 33.508 177.131 33.292 177.875 32.86C178.619 32.404 179.159 31.744 179.495 30.88L180.359 33.472C179.951 34.72 179.207 35.668 178.127 36.316C177.047 36.964 175.655 37.288 173.951 37.288ZM192.29 44.272C191.282 44.272 190.286 44.116 189.302 43.804C188.318 43.492 187.514 43.06 186.89 42.508L188.942 38.512C189.374 38.896 189.866 39.196 190.418 39.412C190.994 39.628 191.558 39.736 192.11 39.736C192.902 39.736 193.526 39.544 193.982 39.16C194.462 38.8 194.894 38.188 195.278 37.324L196.286 34.948L196.718 34.336L203.666 17.632H209.066L200.318 38.188C199.694 39.748 198.974 40.972 198.158 41.86C197.366 42.748 196.478 43.372 195.494 43.732C194.534 44.092 193.466 44.272 192.29 44.272ZM195.602 37.756L186.962 17.632H192.758L199.454 33.832L195.602 37.756Z" fill="black"/>
<g clip-path="url(#clip0_167_1121)">
<path d="M55.4296 19.7336C54.0521 19.7336 52.142 20.0758 50.8595 19.5129C48.8157 18.6159 48.4972 15.8195 50.2902 14.4999C51.2452 13.797 52.3004 13.6381 53.3715 13.6992C55.8709 13.6992 58.5174 13.8323 60.9996 13.8323C62.5064 13.8323 63.9492 13.9622 64.939 15.2723C65.5143 16.034 65.4272 16.959 65.4272 17.8624V23.044C65.4272 25.1635 66.0718 28.2554 64.2836 29.7764C62.8243 31.0179 60.5366 30.2623 59.8776 28.5133C59.3964 27.2363 59.6272 25.2449 59.6272 23.8926C58.1276 25.188 56.4156 27.1415 55.0291 28.5416C50.9216 32.689 44.3201 37.369 47.3334 44.0579C47.726 44.9292 48.2587 45.7578 48.9226 46.4437C49.8082 47.3586 50.8189 48.0101 52.0019 48.4587C58.3294 50.8582 62.7576 44.7378 66.6337 40.7356C71.2133 36.0066 78.3096 31.2795 77.9898 23.9075C77.7673 18.8016 73.9341 15.5073 70.5802 12.1881C65.5798 7.23958 60.7903 0.11626 52.8588 1.4659C51.7309 1.65791 50.5966 2.05963 49.574 2.57821C47.7024 3.52744 46.3024 5.16163 44.8502 6.63577C42.7409 8.77705 40.5664 10.8582 38.489 13.0304C37.1781 14.4013 34.5443 16.1276 33.8264 17.887C33.5174 18.6441 33.721 19.7898 33.721 20.5971C33.721 23.0041 34.2064 26.051 33.4852 28.3694C32.7329 30.7869 29.6346 31.0594 28.2657 29.0885C27.3545 27.7766 27.707 25.6269 27.707 24.1085C26.7787 24.9002 25.9106 25.8317 25.0789 26.6422C23.1902 28.4831 21.2642 30.3387 19.4523 32.254C18.476 33.2862 17.4306 34.7516 16.0114 35.1646C13.6129 35.8622 11.56 32.9133 12.8141 30.8185C13.3783 29.8759 14.321 29.2043 15.0593 28.412C17.7356 25.5403 21.1898 22.9498 23.438 19.7336C21.9806 19.7336 19.8555 20.1358 18.5826 19.3061C16.4134 17.8918 16.928 14.8048 19.2962 13.9714C21.3635 13.244 24.5357 13.8323 26.7228 13.8323C27.4893 13.8323 28.8753 14.1005 29.5124 13.6016C30.417 12.8934 30.915 11.3172 31.1481 10.2341C32.0507 6.04048 29.6465 1.49354 25.4374 0.325536C19.26 -1.38855 15.4473 4.03767 11.5839 7.93118C6.64481 12.9087 -0.506771 17.8052 0.0283746 25.6347C0.348148 30.3148 3.95192 33.344 7.01371 36.4296C12.6959 42.1561 19.0955 50.9306 28.151 46.489C30.3097 45.4302 31.9083 43.5818 33.5781 41.899L40.862 34.5585L50.4309 24.9151C52.0672 23.2661 54.0981 21.6386 55.4296 19.7336Z" fill="black"/>
<path d="M56.0472 7.27457L73.7319 25.317L57.8914 40.9171L47.0733 38.104C47.4106 36.4942 51.6125 30.3752 52.6981 28.9665L50.2243 26.1575L40.2064 22.8747L56.0472 7.27457Z" fill="black"/>
<path d="M58.6 27.397C61.2705 30.0737 65.5886 30.0692 68.2547 27.397C70.9164 24.729 70.9164 20.3878 68.2547 17.7198L63.395 12.8488C63.1445 12.5977 62.7382 12.5977 62.4876 12.8488L56.138 19.2134L55.1339 18.2069C54.8833 17.9557 54.477 17.9557 54.2265 18.2069L52.2827 20.1553C52.0321 20.4064 52.0321 20.8136 52.2827 21.0647L53.2869 22.0713L52.2504 23.1102L51.2462 22.1036C50.9957 21.8525 50.5894 21.8525 50.3388 22.1036L48.3951 24.052C48.1445 24.3032 48.1445 24.7104 48.3951 24.9615L49.3992 25.968L47.9091 27.4617C47.6585 27.7128 47.6585 28.12 47.9091 28.3711L49.8529 30.3195C50.1035 30.5707 50.5098 30.5707 50.7603 30.3195L52.2504 28.8259L55.1984 31.7808C55.4489 32.0319 55.8552 32.0319 56.1057 31.7808L58.0496 29.8324C58.3002 29.5813 58.3002 29.1741 58.0496 28.9229L55.1016 25.968L56.138 24.9292L58.6 27.397ZM62.9413 18.1098L65.4036 20.5777C66.4932 21.6698 66.4932 23.4469 65.4036 24.5391C64.3141 25.6312 62.5408 25.6312 61.4512 24.5391L58.9892 22.0712L62.9413 18.1098Z" fill="white"/>
<path d="M28.2569 14.0795C29.1504 14.0232 29.8453 13.5078 29.8089 12.9284C29.7726 12.349 29.0188 11.925 28.1253 11.9813C27.2318 12.0377 26.5369 12.553 26.5733 13.1324C26.6096 13.7118 27.3634 14.1358 28.2569 14.0795Z" fill="black"/>
<path d="M39.985 26.853L22.3 8.81046L4.29273 26.544L21.9778 44.5865L39.985 26.853Z" fill="black"/>
<path d="M22.5561 27.397C25.2265 30.0737 29.5446 30.0692 32.2105 27.397C34.8723 24.729 34.8723 20.3878 32.2105 17.7198L27.351 12.8488C27.1005 12.5977 26.6942 12.5977 26.4437 12.8488L20.094 19.2134L19.0899 18.2069C18.8393 17.9557 18.433 17.9557 18.1825 18.2069L16.2387 20.1553C15.9881 20.4064 15.9881 20.8136 16.2387 21.0647L17.2429 22.0713L16.2064 23.1102L15.2022 22.1036C14.9517 21.8525 14.5454 21.8525 14.2949 22.1036L12.3511 24.052C12.1005 24.3032 12.1005 24.7104 12.3511 24.9615L13.3552 25.968L11.8651 27.4617C11.6145 27.7128 11.6145 28.12 11.8651 28.3711L13.8089 30.3195C14.0595 30.5707 14.4658 30.5707 14.7163 30.3195L16.2064 28.8259L19.1544 31.7808C19.4049 32.0319 19.8112 32.0319 20.0617 31.7808L22.0056 29.8324C22.2562 29.5813 22.2562 29.1741 22.0056 28.9229L19.0576 25.968L20.094 24.9292L22.5561 27.397ZM26.8973 18.1098L29.3593 20.5777C30.4489 21.6698 30.4489 23.4469 29.3593 24.5391C28.2697 25.6312 26.4968 25.6312 25.4073 24.5391L22.9452 22.0712L26.8973 18.1098Z" fill="white"/>
</g>
<defs>
<clipPath id="clip0_167_1121">
<rect width="78" height="49" fill="white"/>
</clipPath>
</defs>
</svg>
