<svg width="30" height="30" viewBox="0 0 30 30" fill="none" xmlns="http://www.w3.org/2000/svg">
<rect width="30" height="30" rx="10" fill="#2B60EB"/>
<path d="M9.77 22V20.086L15.886 14.278C16.3993 13.794 16.7807 13.3687 17.03 13.002C17.2793 12.6353 17.4407 12.298 17.514 11.99C17.602 11.6673 17.646 11.3667 17.646 11.088C17.646 10.384 17.404 9.84133 16.92 9.46C16.436 9.064 15.7247 8.866 14.786 8.866C14.038 8.866 13.356 8.998 12.74 9.262C12.1387 9.526 11.618 9.92933 11.178 10.472L9.176 8.932C9.77733 8.12533 10.584 7.502 11.596 7.062C12.6227 6.60733 13.7667 6.38 15.028 6.38C16.1427 6.38 17.1107 6.56333 17.932 6.93C18.768 7.282 19.406 7.788 19.846 8.448C20.3007 9.108 20.528 9.89267 20.528 10.802C20.528 11.3007 20.462 11.7993 20.33 12.298C20.198 12.782 19.9487 13.2953 19.582 13.838C19.2153 14.3807 18.68 14.9893 17.976 15.664L12.718 20.658L12.124 19.58H21.122V22H9.77Z" fill="#F7FBFC"/>
</svg>
