<svg width="15" height="15" viewBox="0 0 15 15" fill="none" xmlns="http://www.w3.org/2000/svg">
<path d="M5.71924 12.2168H5.25049C5.00779 12.2168 4.81104 12.4136 4.81104 12.6562C4.81104 12.8989 5.00779 13.0957 5.25049 13.0957H5.71924C5.96193 13.0957 6.15869 12.8989 6.15869 12.6562C6.15869 12.4136 5.96193 12.2168 5.71924 12.2168Z" fill="#2B60EB"/>
<path d="M14.3275 5.1157L11.9122 2.70032C11.5542 2.34234 11.0165 2.29471 10.6118 2.53055V1.91924C10.6118 0.860977 9.75084 0 8.69258 0H2.27718C1.21889 0 0.35791 0.860977 0.35791 1.91924V13.0808C0.35791 14.139 1.21889 15 2.27718 15H8.69258C9.75084 15 10.6118 14.139 10.6118 13.0808V10.3521L14.3275 6.63633C14.7468 6.21712 14.7468 5.53497 14.3275 5.1157ZM11.1518 3.26426C11.2603 3.26426 11.2406 3.27173 11.8709 3.90205L7.10176 8.6712L6.5215 8.09095C6.44495 8.01437 6.44495 7.88979 6.52147 7.81324C11.3246 3.01011 11.0351 3.26426 11.1518 3.26426ZM4.28369 0.878906H6.68604V1.61572C6.68604 1.78579 6.58197 1.9043 6.4886 1.9043H4.48115C4.38775 1.9043 4.28369 1.78579 4.28369 1.61572V0.878906ZM8.69258 14.1211H2.27718C1.70352 14.1211 1.23682 13.6544 1.23682 13.0808V1.91924C1.23682 1.34561 1.70352 0.878906 2.27718 0.878906H3.40479V1.61572C3.40479 2.25949 3.88763 2.7832 4.48115 2.7832H6.4886C7.0821 2.7832 7.56494 2.25949 7.56494 1.61572V0.878906H8.69258C9.26621 0.878906 9.73291 1.34561 9.73291 1.91924V3.35892L5.9 7.1918C5.48079 7.61103 5.48079 8.29318 5.90003 8.71242L8.31541 11.1278C8.70377 11.5162 9.31221 11.5446 9.73291 11.2184V13.0808C9.73291 13.6544 9.26621 14.1211 8.69258 14.1211ZM13.7061 6.01488C8.87466 10.8463 9.1872 10.5639 9.07575 10.5639C8.96272 10.5639 9.03116 10.6006 7.72323 9.29268L12.4924 4.52353L13.706 5.73718C13.7826 5.81373 13.7826 5.9383 13.7061 6.01488Z" fill="#2B60EB"/>
</svg>
