<svg width="15" height="15" viewBox="0 0 15 15" fill="none" xmlns="http://www.w3.org/2000/svg">
<path d="M15 9.27817V5.72183H13.4381C13.3177 5.31867 13.1563 4.92943 12.956 4.55877L14.0607 3.45407L11.546 0.939346L10.4413 2.04401C10.0706 1.84374 9.68136 1.68237 9.2782 1.5619V0H5.72183V1.56187C5.3187 1.68234 4.92943 1.84371 4.55874 2.04398L3.45404 0.939316L0.939346 3.45404L2.04401 4.55874C1.84374 4.9294 1.68237 5.31864 1.56187 5.7218H0V9.27817H1.56187C1.68237 9.68133 1.84374 10.0706 2.04401 10.4412L0.939346 11.5459L3.45404 14.0607L4.55874 12.956C4.92943 13.1563 5.31867 13.3176 5.72183 13.4381V15H9.2782V13.4381C9.68136 13.3177 10.0706 13.1563 10.4413 12.956L11.546 14.0607L14.0607 11.546L12.956 10.4413C13.1563 10.0706 13.3177 9.68136 13.4381 9.2782H15V9.27817ZM12.8177 11.546L11.546 12.8177L10.579 11.8507L10.2833 12.0327C9.80373 12.3279 9.28345 12.5436 8.73694 12.6737L8.3993 12.7541V14.1211H6.60073V12.7541L6.26309 12.6737C5.71658 12.5436 5.1963 12.3279 4.71665 12.0327L4.42102 11.8507L3.45407 12.8177L2.18229 11.546L3.14927 10.579L2.96733 10.2833C2.67214 9.80373 2.45645 9.28345 2.32632 8.73694L2.24593 8.3993H0.878906V6.60073H2.2459L2.32629 6.26309C2.45643 5.71658 2.67211 5.1963 2.9673 4.71668L3.14924 4.42104L2.18227 3.45407L3.45404 2.18229L4.42099 3.1493L4.71662 2.96733C5.19627 2.67214 5.71655 2.45645 6.26306 2.32632L6.6007 2.24593V0.878906H8.39927V2.2459L8.73691 2.32629C9.28342 2.45643 9.8037 2.67211 10.2833 2.9673L10.579 3.14927L11.5459 2.18227L12.8177 3.45404L11.8507 4.42102L12.0327 4.71665C12.3279 5.19627 12.5435 5.71655 12.6737 6.26306L12.7541 6.6007H14.1211V8.39927H12.7541L12.6737 8.73691C12.5436 9.28342 12.3279 9.8037 12.0327 10.2833L11.8507 10.579L12.8177 11.546Z" fill="#2B60EB"/>
<path d="M8.77449 6.43702C9.07364 6.1217 9.25777 5.69625 9.25777 5.22835C9.25777 4.25909 8.46922 3.47054 7.49996 3.47054C6.5307 3.47054 5.74215 4.25909 5.74215 5.22835C5.74215 5.72399 5.88301 6.14657 6.14949 6.45035C6.15529 6.45694 6.16127 6.46359 6.16736 6.47027C5.39478 6.92584 4.87549 7.76458 4.87549 8.72197V10.3576H10.1244V8.72197C10.1244 7.74076 9.57901 6.88421 8.77449 6.43702ZM6.62105 5.22835C6.62105 4.74372 7.01533 4.34944 7.49996 4.34944C7.98459 4.34944 8.37887 4.74372 8.37887 5.22835C8.37887 5.71298 7.98459 6.10725 7.49996 6.10725C6.89211 6.10725 6.62105 5.8362 6.62105 5.22835ZM9.24553 9.47868H5.75439V8.72197C5.75439 7.91575 6.31004 7.23621 7.06051 7.04197V8.60431H7.93941V7.04197C8.68988 7.23621 9.24553 7.91575 9.24553 8.72197V9.47868Z" fill="#2B60EB"/>
</svg>
