<svg width="25" height="25" viewBox="0 0 25 25" fill="none" xmlns="http://www.w3.org/2000/svg">
<g clip-path="url(#clip0_238_2321)">
<path d="M21.875 12.5C21.2997 12.5 20.8333 12.9664 20.8333 13.5417V21.875H2.08335V3.125H20.8333C20.8333 3.7003 21.2997 4.16665 21.875 4.16665C22.4503 4.16665 22.9167 3.7003 22.9167 3.125V2.08335C22.9167 1.50806 22.4503 1.0417 21.875 1.0417H1.04165C0.466357 1.04165 0 1.50806 0 2.08335V22.9167C0 23.492 0.466357 23.9584 1.04165 23.9584H21.875C22.4503 23.9584 22.9167 23.492 22.9167 22.9167V13.5417C22.9167 12.9664 22.4503 12.5 21.875 12.5Z" fill="#2B60EB"/>
<path d="M24.6951 4.47178C24.2883 4.06499 23.6287 4.06499 23.222 4.47178L11.6863 16.0074L8.19628 9.89985C7.91083 9.40034 7.27455 9.22681 6.77504 9.51226C6.27553 9.79771 6.10199 10.434 6.38744 10.9335L10.5541 18.2251C10.8949 18.8215 11.7094 18.9306 12.1951 18.4449L24.6951 5.94492C25.1019 5.53809 25.1019 4.87856 24.6951 4.47178Z" fill="#2B60EB"/>
</g>
<defs>
<clipPath id="clip0_238_2321">
<rect width="25" height="25" fill="white"/>
</clipPath>
</defs>
</svg>
