<svg width="30" height="30" viewBox="0 0 30 30" fill="none" xmlns="http://www.w3.org/2000/svg">
<rect width="30" height="30" rx="10" fill="#2B60EB"/>
<path d="M15.2367 22.6486C14.1514 22.6486 13.088 22.4946 12.0467 22.1866C11.02 21.8639 10.1547 21.4239 9.45071 20.8666L10.6827 18.6446C11.24 19.0992 11.9147 19.4659 12.7067 19.7446C13.4987 20.0232 14.3274 20.1626 15.1927 20.1626C16.2194 20.1626 17.0187 19.9572 17.5907 19.5466C18.1627 19.1212 18.4487 18.5492 18.4487 17.8306C18.4487 17.1266 18.1847 16.5692 17.6567 16.1586C17.1287 15.7479 16.278 15.5426 15.1047 15.5426H13.6967V13.5846L18.0967 8.34856L18.4707 9.42656H10.1987V7.02856H20.6927V8.94256L16.2927 14.1786L14.7967 13.2986H15.6547C17.5467 13.2986 18.962 13.7239 19.9007 14.5746C20.854 15.4106 21.3307 16.4886 21.3307 17.8086C21.3307 18.6739 21.1107 19.4732 20.6707 20.2066C20.2307 20.9399 19.556 21.5339 18.6467 21.9886C17.752 22.4286 16.6154 22.6486 15.2367 22.6486Z" fill="#F7FBFC"/>
</svg>
