<svg width="15" height="15" viewBox="0 0 15 15" fill="none" xmlns="http://www.w3.org/2000/svg">
<g clip-path="url(#clip0_238_2364)">
<path d="M7.49932 0C2.42523 0 1.06843 4.3851 0.868241 5.16168C0.848423 5.23858 0.840113 5.31753 0.842766 5.3969C0.960171 8.88025 5.16573 15 7.49932 15C9.84238 15 14.0729 8.83058 14.1574 5.35468C14.1588 5.30085 14.1525 5.24734 14.1399 5.19501C13.9776 4.52149 12.692 0 7.49932 0ZM7.49932 5.27812V13.9819C6.03321 13.9819 1.92882 8.50381 1.84367 5.27809H7.49932V1.01813C11.9723 1.01813 13.0098 4.72181 13.1398 5.27812H7.49932Z" fill="#2B60EB"/>
</g>
<defs>
<clipPath id="clip0_238_2364">
<rect width="15" height="15" fill="white"/>
</clipPath>
</defs>
</svg>
