<svg width="70" height="90" viewBox="0 0 70 90" fill="none" xmlns="http://www.w3.org/2000/svg">
<g clip-path="url(#clip0_238_2122)">
<path d="M3.75977 32.3809H11.2308C12.3145 33.9865 13.9208 35.0176 15.7227 35.0176H25.293C27.0947 35.0176 28.7012 33.9865 29.7848 32.3809H66.2402C68.4098 32.3809 70.125 30.1252 70.125 27.4219C70.125 24.7185 68.4098 22.4629 66.2402 22.4629H47.1825C46.5196 22.4629 46.0321 23.14 46.0321 23.9062C46.0321 24.6725 46.5196 25.3496 47.1825 25.3496H66.2402C67.0862 25.3496 67.8242 26.2482 67.8242 27.4219C67.8242 28.5956 67.0862 29.4941 66.2402 29.4941H31.0037C31.1499 28.835 31.2285 28.14 31.2285 27.4219C31.2285 26.7038 31.15 26.0088 31.0038 25.3496H42.3973C43.0602 25.3496 43.5477 24.6725 43.5477 23.9062C43.5477 23.14 43.0602 22.4629 42.3973 22.4629H29.7847C28.701 20.8573 27.0947 19.8262 25.2928 19.8262H15.7225C13.9208 19.8262 12.3143 20.8573 11.2307 22.4629H3.75977C1.59025 22.4629 -0.125 24.7185 -0.125 27.4219C-0.125 30.1252 1.59025 32.3809 3.75977 32.3809ZM15.7227 22.7129H25.293C27.2696 22.7129 28.9277 24.7945 28.9277 27.4219C28.9277 30.0493 27.2696 32.1309 25.293 32.1309H15.7227C13.746 32.1309 12.0879 30.0493 12.0879 27.4219C12.0879 24.7945 13.746 22.7129 15.7227 22.7129ZM3.75977 25.3496H10.0119C9.86571 26.0087 9.78711 26.7038 9.78711 27.4219C9.78711 28.1399 9.86559 28.835 10.0119 29.4941H3.75977C2.91381 29.4941 2.17578 28.5956 2.17578 27.4219C2.17578 26.2482 2.91381 25.3496 3.75977 25.3496Z" fill="#2B60EB" stroke="#2B60EB" stroke-width="0.25"/>
<path d="M66.2402 40.041H58.4957C57.4121 38.4354 55.8057 37.4043 54.0039 37.4043H44.4336C42.6319 37.4043 41.0254 38.4354 39.9418 40.041H3.75977C1.59025 40.041 -0.125 42.2966 -0.125 45C-0.125 47.7034 1.59025 49.959 3.75977 49.959H9.23289C9.89577 49.959 10.3833 49.2819 10.3833 48.5156C10.3833 47.7494 9.89577 47.0723 9.23289 47.0723H3.75977C2.91381 47.0723 2.17578 46.1737 2.17578 45C2.17578 43.8263 2.91381 42.9277 3.75977 42.9277H38.7228C38.5766 43.5869 38.498 44.2819 38.498 45C38.498 45.7181 38.5765 46.4131 38.7228 47.0723H14.018C13.3552 47.0723 12.8677 47.7494 12.8677 48.5156C12.8677 49.2819 13.3552 49.959 14.018 49.959H39.9418C41.0254 51.5646 42.6318 52.5957 44.4336 52.5957H46.7578C47.4207 52.5957 47.9082 51.9186 47.9082 51.1523C47.9082 50.3861 47.4207 49.709 46.7578 49.709H44.4336C42.457 49.709 40.7988 47.6274 40.7988 45C40.7988 42.3726 42.457 40.291 44.4336 40.291H54.0039C55.9805 40.291 57.6387 42.3726 57.6387 45C57.6387 47.6274 55.9805 49.709 54.0039 49.709H51.543C50.8801 49.709 50.3926 50.3861 50.3926 51.1523C50.3926 51.9186 50.8801 52.5957 51.543 52.5957H54.0039C55.8056 52.5957 57.4121 51.5646 58.4957 49.959H66.2402C68.4098 49.959 70.125 47.7034 70.125 45C70.125 42.2966 68.4098 40.041 66.2402 40.041ZM66.2402 47.0723H59.7147C59.8609 46.4131 59.9395 45.7181 59.9395 45C59.9395 44.2819 59.861 43.5869 59.7147 42.9277H66.2402C67.0862 42.9277 67.8242 43.8263 67.8242 45C67.8242 46.1737 67.0862 47.0723 66.2402 47.0723Z" fill="#2B60EB" stroke="#2B60EB" stroke-width="0.25"/>
<path d="M66.2402 57.6191H36.6207C35.5371 56.0135 33.9307 54.9824 32.1289 54.9824H30.3224C29.6596 54.9824 29.1721 55.6595 29.1721 56.4258C29.1721 57.192 29.6596 57.8691 30.3224 57.8691H32.1289C34.1055 57.8691 35.7637 59.9507 35.7637 62.5781C35.7637 65.2055 34.1055 67.2871 32.1289 67.2871H22.5586C20.582 67.2871 18.9238 65.2055 18.9238 62.5781C18.9238 59.9507 20.582 57.8691 22.5586 57.8691H25.5373C26.2002 57.8691 26.6877 57.192 26.6877 56.4258C26.6877 55.6595 26.2002 54.9824 25.5373 54.9824H22.5586C20.7569 54.9824 19.1504 56.0135 18.0668 57.6191H3.75977C1.59025 57.6191 -0.125 59.8748 -0.125 62.5781C-0.125 65.2815 1.59025 67.5371 3.75977 67.5371H18.0668C19.1504 69.1427 20.7568 70.1738 22.5586 70.1738H32.1289C33.9306 70.1738 35.5371 69.1427 36.6207 67.5371H66.2402C68.4098 67.5371 70.125 65.2815 70.125 62.5781C70.125 59.8748 68.4098 57.6191 66.2402 57.6191ZM3.75977 64.6504C2.91381 64.6504 2.17578 63.7518 2.17578 62.5781C2.17578 61.4044 2.91381 60.5059 3.75977 60.5059H16.8478C16.7016 61.165 16.623 61.86 16.623 62.5781C16.623 63.2962 16.7015 63.9912 16.8478 64.6504H3.75977ZM66.2402 64.6504H37.8397C37.9859 63.9913 38.0645 63.2962 38.0645 62.5781C38.0645 61.8601 37.986 61.165 37.8397 60.5059H66.2402C67.0862 60.5059 67.8242 61.4044 67.8242 62.5781C67.8242 63.7518 67.0862 64.6504 66.2402 64.6504Z" fill="#2B60EB" stroke="#2B60EB" stroke-width="0.25"/>
</g>
<defs>
<clipPath id="clip0_238_2122">
<rect width="70" height="90" fill="white"/>
</clipPath>
</defs>
</svg>
