<svg width="70" height="70" viewBox="0 0 70 70" fill="none" xmlns="http://www.w3.org/2000/svg">
<g clip-path="url(#clip0_97_13363)">
<path d="M69.2682 25.7322L51.7679 8.23182C50.7914 7.25563 49.2084 7.25593 48.2323 8.23241C47.7636 8.70117 47.5004 9.33663 47.5003 9.99948V17.4996H29.9999C28.6191 17.4996 27.4998 18.6189 27.4998 19.9997C27.4998 21.3805 28.6191 22.4998 29.9999 22.4998H50.0004C51.3811 22.4998 52.5004 21.3805 52.5004 19.9997V16.0344L63.9657 27.4997L52.5004 38.9649V34.9998C52.5004 33.619 51.3811 32.4997 50.0004 32.4997H22.4998V24.9996C22.4995 23.6188 21.3799 22.4998 19.9993 22.5001C19.3366 22.5002 18.701 22.7635 18.2322 23.2321L0.732031 40.7324C-0.24401 41.7087 -0.24401 43.2912 0.732031 44.2674L18.2324 61.7677C18.7011 62.2366 19.3369 62.5002 19.9999 62.5003C20.3284 62.5013 20.6541 62.4367 20.9573 62.3103C21.8913 61.923 22.5001 61.0114 22.4998 60.0002V52.5001H40.0001C41.3809 52.5001 42.5002 51.3808 42.5002 50C42.5002 48.6192 41.3809 47.4999 40.0001 47.4999H19.9999C18.6191 47.4999 17.4998 48.6192 17.4998 50V53.9651L6.03456 42.4999L17.4998 31.0347V34.9998C17.4998 36.3806 18.6191 37.4999 19.9999 37.4999H47.5003V45C47.5006 46.3808 48.6202 47.4998 50.0008 47.4995C50.6635 47.4993 51.2991 47.2361 51.7679 46.7675L69.2682 29.2672C70.2441 28.2908 70.2441 26.7083 69.2682 25.7322Z" fill="#2B60EB"/>
</g>
<defs>
<clipPath id="clip0_97_13363">
<rect width="70" height="70" fill="white"/>
</clipPath>
</defs>
</svg>
