<svg width="70" height="70" viewBox="0 0 70 70" fill="none" xmlns="http://www.w3.org/2000/svg">
<path d="M59.3452 43.1118L53.3177 49.5824C52.5387 47.0777 50.1992 45.2539 47.4414 45.2539H37.8308C36.5045 45.2539 35.2254 44.7713 34.2296 43.8951C28.874 39.1821 20.8239 39.1407 15.4178 43.7646C14.303 42.1862 12.4659 41.1523 10.3906 41.1523H2.05078C0.918203 41.1523 0 42.0705 0 43.2031V67.9492C0 69.0818 0.918203 70 2.05078 70H10.3906C12.2324 70 13.8865 69.1854 15.015 67.8989C19.3499 69.1173 23.4052 70 28.993 70H47.4414C51.9358 70 56.229 67.8534 58.9319 64.2497L68.7709 50.9946C68.7712 50.9943 68.7714 50.994 68.7716 50.9938C68.7725 50.9925 68.7734 50.9912 68.7743 50.9899L68.7776 50.9856C68.778 50.9849 68.7784 50.9842 68.7788 50.9837C69.5775 49.9142 70 48.6425 70 47.3047C70 41.7188 63.1282 39.0508 59.3452 43.1118ZM12.4414 63.8477C12.4414 64.9785 11.5214 65.8984 10.3906 65.8984H4.10156V45.2539H10.3906C11.5214 45.2539 12.4414 46.1739 12.4414 47.3047V63.8477ZM65.4903 48.5327C65.4894 48.5341 65.4886 48.5356 65.4875 48.5368C65.4864 48.5382 65.4851 48.5395 65.4842 48.5409L55.6445 61.7969C53.7183 64.3651 50.6517 65.8984 47.4414 65.8984H28.993C24.184 65.8984 20.4051 65.1613 16.51 64.0664C16.5182 63.8313 16.5156 65.0936 16.5156 48.2318L17.9721 46.9742C21.8338 43.5758 27.6582 43.5758 31.5202 46.9742C33.2653 48.5097 35.5063 49.3555 37.8308 49.3555H47.4414C48.5722 49.3555 49.4922 50.2754 49.4922 51.4063C49.4922 52.5371 48.5722 53.457 47.4414 53.457H32.7296C31.5971 53.457 30.6789 54.3752 30.6789 55.5078C30.6789 56.6404 31.5971 57.5586 32.7296 57.5586H48.816C50.5173 57.5586 52.1581 56.8446 53.3179 55.5997L62.3465 45.9074C62.7391 45.4859 63.2722 45.2539 63.8477 45.2539C65.5371 45.2539 66.4966 47.1913 65.4903 48.5327Z" fill="#2B60EB"/>
<path d="M47.4414 0C35.0026 0 24.8828 10.1198 24.8828 22.5586C24.8828 34.9974 35.0026 45.1172 47.4414 45.1172C59.8802 45.1172 70 34.9974 70 22.5586C70 10.1198 59.8802 0 47.4414 0ZM47.4414 41.0156C37.2642 41.0156 28.9844 32.7358 28.9844 22.5586C28.9844 12.3814 37.2642 4.10156 47.4414 4.10156C57.6186 4.10156 65.8984 12.3814 65.8984 22.5586C65.8984 32.7358 57.6186 41.0156 47.4414 41.0156Z" fill="#2B60EB"/>
<g clip-path="url(#clip0_97_13412)">
<path d="M39.3639 29.8179H42.5457V32.5455C42.5457 32.6782 42.5882 32.7869 42.6736 32.8718C42.7588 32.9573 42.8677 33 43.0004 33H45.3724C45.4955 33 45.6021 32.9573 45.692 32.8718C45.782 32.7869 45.8269 32.6782 45.8269 32.5455V29.8179H53.0001C53.1325 29.8179 53.2415 29.7757 53.3269 29.6902C53.4124 29.6048 53.4548 29.4961 53.4548 29.3634V27.5452C53.4548 27.4132 53.4124 27.3038 53.3269 27.2189C53.2417 27.1334 53.1325 27.0907 53.0001 27.0907H45.8266V25.4145H50.6562C52.55 25.4145 54.0957 24.8374 55.294 23.6816C56.4917 22.527 57.0909 21.0356 57.0909 19.2072C57.0909 17.3801 56.4917 15.8886 55.294 14.7329C54.0959 13.5782 52.55 13 50.6562 13H43.0002C42.8674 13 42.7588 13.0427 42.6734 13.1277C42.5882 13.2131 42.5455 13.3225 42.5455 13.4544V22.3893H39.3639C39.2312 22.3893 39.1225 22.4342 39.0371 22.5241C38.9519 22.6141 38.9092 22.7206 38.9092 22.8437V24.96C38.9092 25.0927 38.9516 25.2014 39.0371 25.2868C39.1225 25.3723 39.2309 25.4144 39.3639 25.4144H42.5457V27.0906H39.3639C39.2312 27.0906 39.1225 27.1334 39.0371 27.2189C38.9519 27.3038 38.9092 27.413 38.9092 27.5451V29.3634C38.9092 29.4961 38.9516 29.6048 39.0371 29.6902C39.1225 29.7757 39.2311 29.8179 39.3639 29.8179ZM45.8266 16.0259H50.3721C51.3758 16.0259 52.1853 16.3193 52.801 16.9064C53.4164 17.4936 53.7243 18.2609 53.7243 19.2075C53.7243 20.1545 53.4164 20.9221 52.801 21.5085C52.1853 22.0961 51.3757 22.3896 50.3721 22.3896H45.8266V16.0259Z" fill="#2B60EB"/>
</g>
<defs>
<clipPath id="clip0_97_13412">
<rect width="20" height="20" fill="white" transform="translate(38 13)"/>
</clipPath>
</defs>
</svg>
