<svg width="70" height="70" viewBox="0 0 70 70" fill="none" xmlns="http://www.w3.org/2000/svg">
<g clip-path="url(#clip0_238_2082)">
<g clip-path="url(#clip1_238_2082)">
<path d="M36.3639 31.8179H39.5457V34.5455C39.5457 34.6782 39.5882 34.7869 39.6736 34.8718C39.7588 34.9573 39.8677 35 40.0004 35H42.3724C42.4955 35 42.6021 34.9573 42.692 34.8718C42.782 34.7869 42.8269 34.6782 42.8269 34.5455V31.8179H50.0001C50.1325 31.8179 50.2415 31.7757 50.3269 31.6902C50.4124 31.6048 50.4548 31.4961 50.4548 31.3634V29.5452C50.4548 29.4132 50.4124 29.3038 50.3269 29.2189C50.2417 29.1334 50.1325 29.0907 50.0001 29.0907H42.8266V27.4145H47.6562C49.55 27.4145 51.0957 26.8374 52.294 25.6816C53.4917 24.527 54.0909 23.0356 54.0909 21.2072C54.0909 19.3801 53.4917 17.8886 52.294 16.7329C51.0959 15.5782 49.55 15 47.6562 15H40.0002C39.8674 15 39.7588 15.0427 39.6734 15.1277C39.5882 15.2131 39.5455 15.3225 39.5455 15.4544V24.3893H36.3639C36.2312 24.3893 36.1225 24.4342 36.0371 24.5241C35.9519 24.6141 35.9092 24.7206 35.9092 24.8437V26.96C35.9092 27.0927 35.9516 27.2014 36.0371 27.2868C36.1225 27.3723 36.2309 27.4144 36.3639 27.4144H39.5457V29.0906H36.3639C36.2312 29.0906 36.1225 29.1334 36.0371 29.2189C35.9519 29.3038 35.9092 29.413 35.9092 29.5451V31.3634C35.9092 31.4961 35.9516 31.6048 36.0371 31.6902C36.1225 31.7757 36.2311 31.8179 36.3639 31.8179ZM42.8266 18.0259H47.3721C48.3758 18.0259 49.1853 18.3193 49.801 18.9064C50.4164 19.4936 50.7243 20.2609 50.7243 21.2075C50.7243 22.1545 50.4164 22.9221 49.801 23.5085C49.1853 24.0961 48.3757 24.3896 47.3721 24.3896H42.8266V18.0259Z" fill="#2B60EB"/>
</g>
<path d="M10.7325 55.7325L25.655 40.81C22.125 36.5 20 30.995 20 25C20 11.215 31.215 0 45 0C58.785 0 70 11.215 70 25C70 38.785 58.785 50 45 50C39.005 50 33.5 47.875 29.19 44.345L14.2675 59.2675C13.29 60.245 11.71 60.245 10.7325 59.2675C9.755 58.29 9.755 56.71 10.7325 55.7325ZM65 25C65 13.9725 56.0275 5 45 5C33.9725 5 25 13.9725 25 25C25 36.0275 33.9725 45 45 45C56.0275 45 65 36.0275 65 25Z" fill="#2B60EB"/>
</g>
<defs>
<clipPath id="clip0_238_2082">
<rect width="70" height="70" fill="white" transform="matrix(-1 0 0 1 70 0)"/>
</clipPath>
<clipPath id="clip1_238_2082">
<rect width="20" height="20" fill="white" transform="translate(35 15)"/>
</clipPath>
</defs>
</svg>
