<svg width="70" height="70" viewBox="0 0 70 70" fill="none" xmlns="http://www.w3.org/2000/svg">
<g clip-path="url(#clip0_97_13441)">
<path d="M62.7574 19.7336L43.6647 0.640801C43.2544 0.230508 42.698 0 42.1178 0H13.6046C9.74309 0 6.60156 3.14152 6.60156 7.00301V62.997C6.60156 66.8585 9.74309 70 13.6046 70H56.3949C60.2564 70 63.398 66.8585 63.398 62.997V21.2803C63.3981 20.7002 63.1676 20.1437 62.7574 19.7336ZM44.3053 7.46867L55.9294 19.0929H44.3053V7.46867ZM56.3951 65.625H13.6046C12.1555 65.625 10.9766 64.4461 10.9766 62.997V7.00301C10.9766 5.55393 12.1555 4.375 13.6046 4.375H39.9303V21.2803C39.9303 22.4883 40.9098 23.4678 42.1178 23.4678H59.0231V62.997C59.0231 64.4461 57.8442 65.625 56.3951 65.625ZM50.6404 36.3434C50.6404 37.5514 49.661 38.5309 48.4529 38.5309H21.5467C20.3387 38.5309 19.3592 37.5514 19.3592 36.3434C19.3592 35.1353 20.3387 34.1559 21.5467 34.1559H48.4529C49.6611 34.1559 50.6404 35.1352 50.6404 36.3434ZM50.6404 51.2729C50.6404 52.481 49.661 53.4604 48.4529 53.4604H21.5467C20.3387 53.4604 19.3592 52.481 19.3592 51.2729C19.3592 50.0649 20.3387 49.0854 21.5467 49.0854H48.4529C49.6611 49.0854 50.6404 50.0649 50.6404 51.2729Z" fill="#2B60EB"/>
</g>
<defs>
<clipPath id="clip0_97_13441">
<rect width="70" height="70" fill="white"/>
</clipPath>
</defs>
</svg>
