<svg width="70" height="70" viewBox="0 0 70 70" fill="none" xmlns="http://www.w3.org/2000/svg">
<path d="M35 4.23401L8.75 13.7808V35C8.75 58.9771 34.2224 65.499 34.4788 65.563L35 65.6891L35.5212 65.563C35.7776 65.499 61.25 58.9771 61.25 35V13.7808L35 4.23401ZM56.875 35C56.875 53.9847 38.4799 60.1712 35.0085 61.1688C31.6611 60.1776 13.125 53.8223 13.125 35V16.8442L35 8.89099L56.875 16.8442V35Z" fill="#2B60EB"/>
<path d="M23.4214 33.4534L20.3281 36.5466L30.6248 46.8433L49.6714 27.7966L46.5781 24.7034L30.6248 40.6567L23.4214 33.4534Z" fill="#2B60EB"/>
</svg>
