<svg width="70" height="70" viewBox="0 0 70 70" fill="none" xmlns="http://www.w3.org/2000/svg">
<g clip-path="url(#clip0_97_13385)">
<path d="M52.4984 26.4543V17.5008C52.4984 13.2223 49.4986 9.36608 44.0517 6.64283C39.2475 4.24083 32.9252 2.91791 26.2493 2.91791C19.5726 2.91791 13.2501 4.24083 8.44608 6.64283C2.99958 9.36608 0 13.2223 0 17.5008V29.167V40.8328V52.499C0 56.7777 2.99958 60.6337 8.44627 63.3572C13.2503 65.7592 19.5728 67.0819 26.2495 67.0819C31.3356 67.0819 36.1844 66.3231 40.3731 64.8841C43.1415 66.2889 46.2705 67.0819 49.5817 67.0819C60.8404 67.0819 70.0002 57.9221 70.0002 46.6634C70 36.395 62.3804 27.874 52.4984 26.4543ZM5.83387 38.5061C6.62941 39.0437 7.49983 39.5519 8.44627 40.025C13.2503 42.427 19.573 43.7499 26.2495 43.7499C27.3023 43.7499 28.3489 43.7151 29.3858 43.6496C29.2397 44.6334 29.1629 45.6397 29.1629 46.6636C29.1629 47.6162 29.23 48.5537 29.357 49.472C28.332 49.5451 27.2939 49.582 26.2495 49.582C14.5646 49.5822 5.83387 44.963 5.83387 40.833V38.5061ZM31.2759 37.6251C29.6382 37.8179 27.9538 37.9159 26.2493 37.9159C14.5646 37.9161 5.83387 33.297 5.83387 29.167V26.8401C6.62941 27.3778 7.49983 27.8859 8.44627 28.3588C13.2503 30.761 19.573 32.0837 26.2495 32.0837C29.8416 32.0837 33.3285 31.6975 36.5346 30.9695C34.3498 32.7889 32.5505 35.0545 31.2759 37.6251ZM26.2493 8.75178C37.9338 8.75178 46.6643 13.3708 46.6643 17.5008C46.6643 21.6308 37.9338 26.2501 26.2493 26.2501C14.5646 26.2501 5.83387 21.6308 5.83387 17.5008C5.83387 13.3708 14.5646 8.75178 26.2493 8.75178ZM5.83387 52.4992V50.1724C6.62941 50.7101 7.49983 51.2181 8.44627 51.6912C13.2503 54.0932 19.5728 55.4161 26.2495 55.4161C27.8596 55.4161 29.4585 55.337 31.028 55.1839C31.9179 57.114 33.0996 58.8828 34.5173 60.4325C31.9179 60.9647 29.1034 61.2482 26.2493 61.2482C14.5646 61.2482 5.83387 56.629 5.83387 52.4992ZM49.5815 61.2482C41.5395 61.2482 34.9968 54.7055 34.9968 46.6636C34.9968 38.6443 41.5029 32.1174 49.5138 32.0806C49.5365 32.0812 49.5585 32.0841 49.5815 32.0841C49.6044 32.0841 49.6262 32.0812 49.6491 32.0806C57.66 32.1174 64.1661 38.6443 64.1661 46.6636C64.1661 54.7055 57.6234 61.2482 49.5815 61.2482Z" fill="#2B60EB"/>
</g>
<defs>
<clipPath id="clip0_97_13385">
<rect width="70" height="70" fill="white"/>
</clipPath>
</defs>
</svg>
