<svg width="70" height="70" viewBox="0 0 70 70" fill="none" xmlns="http://www.w3.org/2000/svg">
<g clip-path="url(#clip0_238_2092)">
<path d="M58.9348 44.3678V19.2879C58.9348 18.509 58.2975 17.9709 57.5186 17.9709H52.0382C51.2593 17.9709 50.5795 18.509 50.5795 19.2879V41.9179C49.6732 41.9462 48.7669 42.0595 47.8888 42.2719V26.6802C47.8888 25.9013 47.2233 25.3348 46.4444 25.3348H40.9639C40.185 25.3348 39.5336 25.8871 39.5336 26.6802V47.8232C37.8484 50.1882 36.9421 53.0346 36.9562 55.9519C36.9562 63.7123 43.2439 70 50.9902 70C58.7507 70 65.0384 63.7123 65.0384 55.966C65.0384 51.3211 62.7584 46.9877 58.9348 44.3678ZM53.4118 20.8032H56.1025V42.8667C55.2386 42.5268 54.3323 42.2719 53.4118 42.1303V20.8032ZM42.3659 28.1671H45.0566V43.249C44.1077 43.688 43.2014 44.2262 42.3659 44.8634V28.1671ZM60.6483 61.6589C58.6232 65.0718 54.9554 67.1536 51.0044 67.1536C44.8158 67.1536 39.8027 62.1262 39.8027 55.9519C39.8027 51.4202 42.5358 47.3275 46.7276 45.5998C46.8975 45.5715 47.0533 45.5007 47.1949 45.4157C48.4128 44.9626 49.7157 44.736 51.0185 44.736C51.3159 44.736 51.5991 44.7502 51.8965 44.7785H51.9107C53.6101 44.9059 55.267 45.4299 56.7256 46.3079C62.0501 49.4659 63.8063 56.3342 60.6483 61.6589Z" fill="#2B60EB"/>
<path d="M24.2394 36.664H18.7164C17.9376 36.664 17.3003 37.3012 17.3003 38.0801V60.3136C17.3003 61.0925 17.9376 61.7297 18.7164 61.7297H24.2394C25.0183 61.7297 25.6555 61.0925 25.6555 60.3136V38.0801C25.6555 37.3012 25.0183 36.664 24.2394 36.664ZM22.8233 59.039H20.1326V39.4963H22.8233V59.039Z" fill="#2B60EB"/>
<path d="M35.4269 33.4068H29.9039C29.1251 33.4068 28.4878 34.0441 28.4878 34.823V60.4552C28.4878 61.2341 29.1251 61.8713 29.9039 61.8713H35.4269C36.2058 61.8713 36.843 61.2341 36.843 60.4552V34.823C36.843 34.0441 36.2058 33.4068 35.4269 33.4068ZM34.0108 59.039H31.3201V36.2391H34.0108V59.039Z" fill="#2B60EB"/>
<path d="M13.0514 48.8428H7.52845C6.74957 48.8428 6.1123 49.4801 6.1123 50.2589V60.3136C6.1123 61.0925 6.74957 61.7297 7.52845 61.7297H13.0514C13.8303 61.7297 14.4676 61.0925 14.4676 60.3136V50.2589C14.4676 49.4801 13.8303 48.8428 13.0514 48.8428ZM11.6353 59.039H8.94459V51.6751H11.6353V59.039Z" fill="#2B60EB"/>
<path d="M58.7223 0L49.0359 0.0141614C48.257 0 47.6197 0.637265 47.6056 1.41614C47.5914 2.19502 48.2287 2.83229 49.0075 2.84645C49.0217 2.84645 49.0217 2.84645 49.0359 2.84645L55.3094 2.83229L39.9442 18.1408L34.577 12.8161C34.308 12.5612 33.9398 12.4337 33.5716 12.4479C33.2034 12.4337 32.8352 12.5612 32.5661 12.8161L5.37614 40.0061C4.82384 40.5584 4.82384 41.4505 5.37614 41.9887C5.6452 42.2577 5.99924 42.3994 6.3816 42.3994C6.76396 42.3994 7.11799 42.2577 7.38706 41.9887L33.5857 15.79L38.9529 21.1997C39.2078 21.4829 39.576 21.6387 39.9584 21.6528C40.3407 21.6387 40.6948 21.4687 40.9638 21.1997L57.3061 4.84321L57.292 11.1451C57.292 11.9381 57.9151 12.5754 58.7081 12.6037C59.5012 12.5895 60.1243 11.9381 60.1243 11.1451L60.1384 1.43031C60.1384 0.651426 59.5012 0 58.7223 0Z" fill="#2B60EB"/>
<g clip-path="url(#clip1_238_2092)">
<path d="M44.2565 61.2529H46.7144V63.3599C46.7144 63.4624 46.7472 63.5463 46.8132 63.6119C46.879 63.6779 46.9631 63.7109 47.0656 63.7109H48.8979C48.993 63.7109 49.0753 63.6779 49.1448 63.6119C49.2143 63.5463 49.2489 63.4624 49.2489 63.3599V61.2529H54.79C54.8923 61.2529 54.9764 61.2203 55.0424 61.1543C55.1084 61.0883 55.1412 61.0043 55.1412 60.9018V59.4973C55.1412 59.3954 55.1084 59.3109 55.0424 59.2453C54.9766 59.1792 54.8923 59.1462 54.79 59.1462H49.2487V57.8514H52.9794C54.4423 57.8514 55.6363 57.4057 56.5619 56.5128C57.4871 55.621 57.95 54.4689 57.95 53.0566C57.95 51.6452 57.4871 50.4931 56.5619 49.6003C55.6365 48.7084 54.4423 48.2617 52.9794 48.2617H47.0654C46.9629 48.2617 46.8789 48.2947 46.813 48.3603C46.7472 48.4263 46.7142 48.5108 46.7142 48.6128V55.5146H44.2565C44.154 55.5146 44.07 55.5493 44.0041 55.6187C43.9383 55.6882 43.9053 55.7705 43.9053 55.8656V57.5003C43.9053 57.6028 43.9381 57.6868 44.0041 57.7528C44.0701 57.8188 44.1538 57.8514 44.2565 57.8514H46.7144V59.1462H44.2565C44.154 59.1462 44.07 59.1792 44.0041 59.2452C43.9383 59.3108 43.9053 59.3952 43.9053 59.4973V60.9018C43.9053 61.0043 43.9381 61.0883 44.0041 61.1542C44.07 61.2203 44.154 61.2529 44.2565 61.2529ZM49.2487 50.5991H52.7599C53.5352 50.5991 54.1605 50.8258 54.6362 51.2793C55.1116 51.7328 55.3494 52.3255 55.3494 53.0567C55.3494 53.7883 55.1116 54.3812 54.6362 54.8342C54.1605 55.2881 53.5352 55.5148 52.7599 55.5148H49.2487V50.5991Z" fill="#2B60EB"/>
</g>
</g>
<defs>
<clipPath id="clip0_238_2092">
<rect width="70" height="70" fill="white"/>
</clipPath>
<clipPath id="clip1_238_2092">
<rect width="15.4492" height="15.4492" fill="white" transform="translate(43.2031 48.2617)"/>
</clipPath>
</defs>
</svg>
