<svg width="41" height="43" viewBox="0 0 41 43" fill="none" xmlns="http://www.w3.org/2000/svg">
<g filter="url(#filter0_d_238_2071)">
<path d="M10.2395 2.3125H13.6998C16.1659 2.3125 17.8605 5.77476 18.7464 10.4062H21.7739V6.9375C21.7739 6.63037 21.8955 6.33679 22.1118 6.12L25.5721 2.65125C25.7884 2.43445 26.0818 2.3125 26.3876 2.3125H35.6151C36.2521 2.3125 36.7686 2.82965 36.7686 3.46875V12.7188C36.7686 13.0259 36.6469 13.3195 36.4306 13.5363L32.9711 17.0042C32.8646 17.1112 32.7369 17.1959 32.5954 17.2546C32.4545 17.3131 32.305 17.3438 32.1548 17.3438H22.9273C22.2903 17.3438 21.7739 16.8266 21.7739 16.1875V15.0312C21.7739 14.3922 22.2903 13.875 22.9273 13.875C23.5643 13.875 24.0808 14.3922 24.0808 15.0312H31.0014V8.09375H24.0808V10.4062H25.5551C25.9553 9.71853 26.691 9.25 27.5411 9.25C28.8133 9.25 29.8479 10.2877 29.8479 11.5625C29.8479 12.8373 28.8133 13.875 27.5411 13.875C26.691 13.875 25.9553 13.4065 25.5551 12.7188H19.1142C19.3472 14.5727 19.467 16.5384 19.467 18.5C19.467 20.4616 19.3472 22.4273 19.1142 24.2812H25.5551C25.9553 23.5935 26.691 23.125 27.5411 23.125C28.8133 23.125 29.8479 24.1627 29.8479 25.4375C29.8479 26.7123 28.8133 27.75 27.5411 27.75C26.691 27.75 25.9553 27.2815 25.5551 26.5938H24.0808V28.9062H31.0014V21.9688H24.0808C24.0808 22.6078 23.5643 23.125 22.9273 23.125C22.2903 23.125 21.7739 22.6078 21.7739 21.9688V20.8125C21.7739 20.1734 22.2903 19.6562 22.9273 19.6562H32.1548C32.4738 19.6562 32.7623 19.786 32.9711 19.9958L36.4306 23.4637C36.6469 23.6805 36.7686 23.9741 36.7686 24.2812V33.5312C36.7686 34.1703 36.2521 34.6875 35.6151 34.6875H26.3876C26.0818 34.6875 25.7884 34.5656 25.5721 34.3488L22.1118 30.88C21.8955 30.6632 21.7739 30.3696 21.7739 30.0625V26.5938H18.7464C17.8605 31.2252 16.1659 34.6875 13.6998 34.6875H10.2395C6.4531 34.6875 4.47232 26.5441 4.47232 18.5C4.47232 10.4559 6.4531 2.3125 10.2395 2.3125ZM25.7118 5.78125H31.6772L32.8306 4.625H26.8652L25.7118 5.78125ZM34.4617 6.26001L33.3082 7.41626V13.3962L34.4617 12.24V6.26001ZM33.3082 23.6038V29.5837L34.4617 30.74V24.76L33.3082 23.6038ZM26.8652 32.375H32.8306L31.6772 31.2188H25.7118L26.8652 32.375ZM8.12976 28.9062H9.19386C8.98878 28.1789 8.80862 27.4058 8.65325 26.5938H7.53741C7.71587 27.4568 7.91708 28.2248 8.12976 28.9062ZM8.28548 12.7188H7.14619C7.04904 13.4444 6.97188 14.2214 6.91092 15.0312H8.06133C8.11779 14.2473 8.19065 13.4731 8.28548 12.7188ZM7.95038 17.3438H6.79792C6.78877 17.7246 6.7792 18.1049 6.7792 18.5C6.7792 18.8951 6.78877 19.2754 6.79792 19.6562H7.95038C7.94129 19.2711 7.93263 18.8856 7.93263 18.5C7.93263 18.1144 7.94129 17.7289 7.95038 17.3438ZM7.53741 10.4062H8.65325C8.80862 9.59425 8.98878 8.82113 9.19386 8.09375H8.12976C7.91708 8.77519 7.71587 9.54316 7.53741 10.4062ZM8.28548 24.2812C8.19065 23.5269 8.11779 22.7527 8.06133 21.9688H6.91092C6.97188 22.7786 7.04904 23.5556 7.14619 24.2812H8.28548ZM9.07565 5.78125H10.007C10.1892 5.36544 10.3813 4.97617 10.587 4.625H10.2395C9.90581 4.625 9.49538 5.03227 9.07565 5.78125ZM16.4019 26.5938H13.6998C13.0628 26.5938 12.5464 26.0766 12.5464 25.4375C12.5464 24.7984 13.0628 24.2812 13.6998 24.2812H16.7931C17.0208 22.5812 17.1601 20.6445 17.1601 18.5C17.1601 16.3555 17.0208 14.4188 16.7931 12.7188H13.6998C13.0628 12.7188 12.5464 12.2016 12.5464 11.5625C12.5464 10.9234 13.0628 10.4062 13.6998 10.4062H16.4019C15.6386 6.71421 14.4675 4.625 13.6998 4.625C12.4799 4.625 10.2395 9.89249 10.2395 18.5C10.2395 27.1075 12.4799 32.375 13.6998 32.375C14.4675 32.375 15.6386 30.2858 16.4019 26.5938ZM10.2395 32.375H10.587C10.3813 32.0238 10.1892 31.6346 10.007 31.2188H9.07565C9.49538 31.9677 9.90581 32.375 10.2395 32.375Z" fill="#F7FBFC"/>
</g>
<defs>
<filter id="filter0_d_238_2071" x="-1.83496" y="0" width="44.9102" height="45" filterUnits="userSpaceOnUse" color-interpolation-filters="sRGB">
<feFlood flood-opacity="0" result="BackgroundImageFix"/>
<feColorMatrix in="SourceAlpha" type="matrix" values="0 0 0 0 0 0 0 0 0 0 0 0 0 0 0 0 0 0 127 0" result="hardAlpha"/>
<feOffset dy="4"/>
<feGaussianBlur stdDeviation="2"/>
<feComposite in2="hardAlpha" operator="out"/>
<feColorMatrix type="matrix" values="0 0 0 0 0 0 0 0 0 0 0 0 0 0 0 0 0 0 0.25 0"/>
<feBlend mode="normal" in2="BackgroundImageFix" result="effect1_dropShadow_238_2071"/>
<feBlend mode="normal" in="SourceGraphic" in2="effect1_dropShadow_238_2071" result="shape"/>
</filter>
</defs>
</svg>
