<svg width="33" height="33" viewBox="0 0 33 33" fill="none" xmlns="http://www.w3.org/2000/svg">
<path d="M16.5 30.9375C13.6445 30.9375 10.8532 30.0908 8.47896 28.5043C6.10473 26.9179 4.25424 24.6631 3.1615 22.025C2.06876 19.3869 1.78284 16.484 2.33992 13.6834C2.89699 10.8828 4.27203 8.31027 6.29115 6.29115C8.31027 4.27203 10.8828 2.89699 13.6834 2.33992C16.484 1.78284 19.3869 2.06876 22.025 3.1615C24.6631 4.25424 26.9179 6.10473 28.5043 8.47896C30.0908 10.8532 30.9375 13.6445 30.9375 16.5C30.9334 20.3278 29.411 23.9977 26.7043 26.7043C23.9977 29.411 20.3278 30.9334 16.5 30.9375ZM16.5 4.12501C14.0525 4.12501 11.6599 4.85079 9.62483 6.21057C7.58977 7.57035 6.00363 9.50306 5.067 11.7643C4.13036 14.0255 3.8853 16.5137 4.36279 18.9142C4.84028 21.3148 6.01889 23.5198 7.74956 25.2505C9.48023 26.9811 11.6852 28.1597 14.0858 28.6372C16.4863 29.1147 18.9745 28.8696 21.2357 27.933C23.4969 26.9964 25.4297 25.4102 26.7894 23.3752C28.1492 21.3401 28.875 18.9476 28.875 16.5C28.8715 13.219 27.5665 10.0735 25.2465 7.75348C22.9265 5.43349 19.781 4.12856 16.5 4.12501Z" fill="black"/>
<path d="M16.5 27.3281C14.3584 27.3281 12.2649 26.6931 10.4842 25.5033C8.70354 24.3135 7.31568 22.6223 6.49612 20.6437C5.67657 18.6652 5.46213 16.488 5.87994 14.3875C6.29774 12.2871 7.32902 10.3577 8.84336 8.84336C10.3577 7.32902 12.2871 6.29774 14.3875 5.87994C16.488 5.46213 18.6652 5.67657 20.6437 6.49612C22.6223 7.31568 24.3135 8.70354 25.5033 10.4842C26.6931 12.2649 27.3281 14.3584 27.3281 16.5C27.3249 19.3708 26.183 22.1231 24.153 24.153C22.1231 26.183 19.3708 27.3249 16.5 27.3281ZM16.5 7.73438C14.7663 7.73438 13.0716 8.24848 11.6301 9.21165C10.1886 10.1748 9.06507 11.5438 8.40162 13.1455C7.73817 14.7473 7.56459 16.5097 7.90281 18.2101C8.24103 19.9105 9.07588 21.4723 10.3018 22.6982C11.5277 23.9241 13.0896 24.759 14.7899 25.0972C16.4903 25.4354 18.2528 25.2618 19.8545 24.5984C21.4562 23.9349 22.8252 22.8114 23.7884 21.3699C24.7515 19.9284 25.2656 18.2337 25.2656 16.5C25.2629 14.1761 24.3385 11.9481 22.6952 10.3048C21.0519 8.6615 18.824 7.73711 16.5 7.73438Z" fill="black"/>
<path d="M16.5 22.6875V10.3125C18.141 10.3125 19.7148 10.9644 20.8752 12.1248C22.0356 13.2852 22.6875 14.859 22.6875 16.5C22.6875 18.141 22.0356 19.7148 20.8752 20.8752C19.7148 22.0356 18.141 22.6875 16.5 22.6875Z" fill="black"/>
<path d="M16.5 23.7188C16.2265 23.7188 15.9642 23.6101 15.7708 23.4167C15.5774 23.2233 15.4688 22.961 15.4688 22.6875V10.3125C15.4688 10.039 15.5774 9.77669 15.7708 9.5833C15.9642 9.3899 16.2265 9.28125 16.5 9.28125C18.4145 9.28125 20.2506 10.0418 21.6044 11.3956C22.9582 12.7494 23.7188 14.5855 23.7188 16.5C23.7188 18.4145 22.9582 20.2506 21.6044 21.6044C20.2506 22.9582 18.4145 23.7188 16.5 23.7188ZM17.5312 11.4469V21.5531C18.6969 21.3164 19.7448 20.6841 20.4975 19.7631C21.2502 18.8422 21.6614 17.6894 21.6614 16.5C21.6614 15.3106 21.2502 14.1578 20.4975 13.2369C19.7448 12.3159 18.6969 11.6836 17.5312 11.4469Z" fill="black"/>
</svg>
