<svg width="634" height="150" viewBox="0 0 634 150" fill="none" xmlns="http://www.w3.org/2000/svg">
<path d="M267.143 108.17V40.9697H296.231C302.247 40.9697 307.431 41.9617 311.783 43.9457C316.135 45.8657 319.495 48.6497 321.863 52.2977C324.231 55.9457 325.415 60.2977 325.415 65.3537C325.415 70.3457 324.231 74.6657 321.863 78.3137C319.495 81.8977 316.135 84.6497 311.783 86.5697C307.431 88.4897 302.247 89.4497 296.231 89.4497H275.783L282.695 82.6337V108.17H267.143ZM309.863 108.17L293.063 83.7857H309.671L326.663 108.17H309.863ZM282.695 84.3617L275.783 77.0657H295.367C300.167 77.0657 303.751 76.0417 306.119 73.9937C308.487 71.8817 309.671 69.0017 309.671 65.3537C309.671 61.6417 308.487 58.7617 306.119 56.7137C303.751 54.6657 300.167 53.6417 295.367 53.6417H275.783L282.695 46.2497V84.3617ZM367.593 109.322C358.057 109.322 350.601 106.666 345.225 101.354C339.849 96.0417 337.161 88.4577 337.161 78.6017V40.9697H352.713V78.0257C352.713 84.4257 354.025 89.0337 356.649 91.8497C359.273 94.6657 362.953 96.0737 367.689 96.0737C372.425 96.0737 376.105 94.6657 378.729 91.8497C381.353 89.0337 382.665 84.4257 382.665 78.0257V40.9697H398.025V78.6017C398.025 88.4577 395.337 96.0417 389.961 101.354C384.585 106.666 377.129 109.322 367.593 109.322ZM442.865 108.938C438.513 108.938 434.705 107.978 431.441 106.058C428.177 104.138 425.617 101.226 423.761 97.3217C421.969 93.3537 421.073 88.3617 421.073 82.3457C421.073 76.2657 421.937 71.2737 423.665 67.3697C425.393 63.4657 427.889 60.5537 431.153 58.6337C434.417 56.7137 438.321 55.7537 442.865 55.7537C447.729 55.7537 452.081 56.8737 455.921 59.1137C459.825 61.2897 462.897 64.3617 465.137 68.3297C467.441 72.2977 468.593 76.9697 468.593 82.3457C468.593 87.7857 467.441 92.4897 465.137 96.4577C462.897 100.426 459.825 103.498 455.921 105.674C452.081 107.85 447.729 108.938 442.865 108.938ZM412.337 126.794V56.5217H426.641V67.0817L426.353 82.4417L427.313 97.7057V126.794H412.337ZM440.273 96.6497C442.769 96.6497 444.977 96.0737 446.897 94.9217C448.881 93.7697 450.449 92.1377 451.601 90.0257C452.817 87.8497 453.425 85.2897 453.425 82.3457C453.425 79.3377 452.817 76.7777 451.601 74.6657C450.449 72.5537 448.881 70.9217 446.897 69.7697C444.977 68.6177 442.769 68.0417 440.273 68.0417C437.777 68.0417 435.537 68.6177 433.553 69.7697C431.569 70.9217 430.001 72.5537 428.849 74.6657C427.697 76.7777 427.121 79.3377 427.121 82.3457C427.121 85.2897 427.697 87.8497 428.849 90.0257C430.001 92.1377 431.569 93.7697 433.553 94.9217C435.537 96.0737 437.777 96.6497 440.273 96.6497ZM509.455 108.17V98.0897L508.495 95.8817V77.8337C508.495 74.6337 507.503 72.1377 505.519 70.3457C503.599 68.5537 500.623 67.6577 496.591 67.6577C493.839 67.6577 491.119 68.1057 488.431 69.0017C485.807 69.8337 483.567 70.9857 481.711 72.4577L476.335 61.9937C479.151 60.0097 482.543 58.4737 486.511 57.3857C490.479 56.2977 494.511 55.7537 498.607 55.7537C506.479 55.7537 512.591 57.6097 516.943 61.3217C521.295 65.0337 523.471 70.8257 523.471 78.6977V108.17H509.455ZM493.711 108.938C489.679 108.938 486.223 108.266 483.343 106.922C480.463 105.514 478.255 103.626 476.719 101.258C475.183 98.8897 474.415 96.2337 474.415 93.2897C474.415 90.2177 475.151 87.5297 476.623 85.2257C478.159 82.9217 480.559 81.1297 483.823 79.8497C487.087 78.5057 491.343 77.8337 496.591 77.8337H510.319V86.5697H498.223C494.703 86.5697 492.271 87.1457 490.927 88.2977C489.647 89.4497 489.007 90.8897 489.007 92.6177C489.007 94.5377 489.743 96.0737 491.215 97.2257C492.751 98.3137 494.831 98.8577 497.455 98.8577C499.951 98.8577 502.191 98.2817 504.175 97.1297C506.159 95.9137 507.599 94.1537 508.495 91.8497L510.799 98.7617C509.711 102.09 507.727 104.618 504.847 106.346C501.967 108.074 498.255 108.938 493.711 108.938ZM542.615 127.562C539.927 127.562 537.271 127.146 534.647 126.314C532.023 125.482 529.879 124.33 528.215 122.858L533.687 112.202C534.839 113.226 536.151 114.026 537.623 114.602C539.159 115.178 540.663 115.466 542.135 115.466C544.247 115.466 545.911 114.954 547.127 113.93C548.407 112.97 549.559 111.338 550.583 109.034L553.271 102.698L554.423 101.066L572.951 56.5217H587.351L564.023 111.338C562.359 115.498 560.439 118.762 558.263 121.13C556.151 123.498 553.783 125.162 551.159 126.122C548.599 127.082 545.751 127.562 542.615 127.562ZM551.447 110.186L528.407 56.5217H543.863L561.719 99.7217L551.447 110.186Z" fill="black"/>
<g clip-path="url(#clip0_11_1351)">
<path d="M168.914 60.1351C164.716 60.1351 158.895 61.178 154.987 59.4627C148.759 56.7293 147.788 48.2076 153.252 44.1864C156.162 42.0443 159.378 41.56 162.642 41.7464C170.258 41.7464 178.323 42.152 185.887 42.152C190.479 42.152 194.876 42.5478 197.892 46.54C199.645 48.8612 199.38 51.68 199.38 54.4332V70.2231C199.38 76.6821 201.344 86.1042 195.895 90.7392C191.448 94.5225 184.477 92.22 182.468 86.8903C181.002 82.9986 181.705 76.9301 181.705 72.8093C177.135 76.7569 171.918 82.7099 167.693 86.9763C155.176 99.6149 135.059 113.877 144.242 134.26C145.438 136.915 147.061 139.44 149.084 141.53C151.783 144.318 154.863 146.304 158.468 147.671C177.75 154.983 191.245 136.332 203.057 124.136C217.012 109.725 238.637 95.3196 237.663 72.8547C236.985 57.2951 225.303 47.2561 215.083 37.1413C199.845 22.0615 185.25 0.354285 161.08 4.46713C157.642 5.05223 154.186 6.27641 151.069 7.85672C145.366 10.7494 141.1 15.7293 136.674 20.2215C130.247 26.7468 123.62 33.0887 117.29 39.7081C113.295 43.8858 105.269 49.1466 103.081 54.5081C102.139 56.8153 102.76 60.3066 102.76 62.7668C102.76 70.1017 104.239 79.3866 102.041 86.4516C99.7488 93.8186 90.3071 94.6489 86.1356 88.6431C83.3588 84.645 84.4332 78.0941 84.4332 73.4672C81.6043 75.8796 78.9588 78.7182 76.4244 81.1883C70.6686 86.7982 64.7997 92.4528 59.2779 98.2893C56.3028 101.435 53.1171 105.901 48.7923 107.159C41.4834 109.285 35.2273 100.299 39.049 93.9147C40.7684 91.0423 43.6413 88.9957 45.8909 86.5815C54.0467 77.8305 64.5728 69.9363 71.4237 60.1351C66.9827 60.1351 60.5067 61.361 56.6278 58.8324C50.0174 54.5227 51.5855 45.1153 58.8023 42.5757C65.1021 40.359 74.7689 42.152 81.4338 42.152C83.7697 42.152 87.9931 42.9693 89.9346 41.4489C92.6914 39.2907 94.209 34.4874 94.9192 31.1868C97.6698 18.4075 90.3433 4.55134 77.5168 0.992023C58.6921 -4.23139 47.0734 12.3042 35.3003 24.1691C20.2491 39.3375 -1.54431 54.2586 0.0864675 78.118C1.06093 92.38 12.0429 101.611 21.3732 111.014C38.689 128.464 58.1908 155.203 85.7861 141.668C92.3644 138.442 97.2359 132.809 102.324 127.681L124.521 105.312L153.681 75.925C158.667 70.9 164.856 65.9406 168.914 60.1351Z" fill="black"/>
<path d="M170.796 22.1682L224.687 77.1499L176.416 124.689L143.449 116.116C144.477 111.211 157.282 92.5639 160.59 88.2712L153.051 79.7112L122.523 69.7072L170.796 22.1682Z" fill="black"/>
<path d="M178.575 83.4883C186.713 91.6452 199.872 91.6314 207.996 83.4883C216.107 75.3578 216.107 62.1287 207.996 53.9984L193.187 39.1549C192.424 38.3895 191.186 38.3895 190.422 39.1549L171.073 58.5499L168.013 55.4827C167.249 54.7173 166.011 54.7173 165.247 55.4827L159.324 61.4202C158.56 62.1854 158.56 63.4264 159.324 64.1916L162.384 67.259L159.226 70.4248L156.165 67.3575C155.402 66.5922 154.164 66.5922 153.4 67.3575L147.477 73.2949C146.713 74.0604 146.713 75.3012 147.477 76.0666L150.537 79.1338L145.996 83.6854C145.233 84.4507 145.233 85.6916 145.996 86.4569L151.92 92.3943C152.683 93.1596 153.921 93.1596 154.685 92.3943L159.226 87.8427L168.209 96.8474C168.973 97.6126 170.211 97.6126 170.974 96.8474L176.898 90.9099C177.661 90.1446 177.661 88.9037 176.898 88.1382L167.914 79.1336L171.073 75.9679L178.575 83.4883ZM191.805 55.187L199.308 62.7074C202.628 66.0355 202.628 71.4511 199.308 74.7792C195.988 78.1074 190.584 78.1074 187.264 74.7792L179.761 67.2588L191.805 55.187Z" fill="white"/>
<path d="M86.1089 42.9053C88.8317 42.7336 90.9492 41.1631 90.8384 39.3975C90.7276 37.6319 88.4305 36.3397 85.7077 36.5114C82.9849 36.6831 80.8674 38.2536 80.9782 40.0192C81.089 41.7848 83.3861 43.0769 86.1089 42.9053Z" fill="black"/>
<path d="M121.849 81.8304L67.956 26.8485L13.0815 80.889L66.974 135.871L121.849 81.8304Z" fill="black"/>
<path d="M68.7365 83.4883C76.8742 91.6452 90.033 91.6314 98.157 83.4883C106.268 75.3578 106.268 62.1287 98.157 53.9984L83.3483 39.1549C82.5849 38.3895 81.3468 38.3895 80.5834 39.1549L61.2337 58.5499L58.1737 55.4827C57.4101 54.7173 56.172 54.7173 55.4086 55.4827L49.485 61.4202C48.7216 62.1854 48.7216 63.4264 49.485 64.1916L52.5452 67.259L49.3868 70.4248L46.3266 67.3575C45.5632 66.5922 44.3251 66.5922 43.5617 67.3575L37.6381 73.2949C36.8745 74.0604 36.8745 75.3012 37.6381 76.0666L40.6981 79.1338L36.1573 83.6854C35.3937 84.4507 35.3937 85.6916 36.1573 86.4569L42.0807 92.3943C42.8443 93.1596 44.0824 93.1596 44.8458 92.3943L49.3868 87.8427L58.3703 96.8474C59.1338 97.6126 60.3719 97.6126 61.1353 96.8474L67.0589 90.9099C67.8225 90.1446 67.8225 88.9037 67.0589 88.1382L58.0753 79.1336L61.2337 75.9679L68.7365 83.4883ZM81.9657 55.187L89.4683 62.7074C92.7887 66.0355 92.7887 71.4511 89.4683 74.7792C86.148 78.1074 80.7451 78.1074 77.425 74.7792L69.9222 67.2588L81.9657 55.187Z" fill="white"/>
</g>
<defs>
<clipPath id="clip0_11_1351">
<rect width="237.694" height="149.32" fill="white"/>
</clipPath>
</defs>
</svg>
