<svg width="48" height="48" viewBox="0 0 48 48" fill="none" xmlns="http://www.w3.org/2000/svg">
<path d="M17.1429 17.1429H30.8572M17.1429 24H30.8572M17.1429 30.8571H30.8572M37.7143 35.4286V12.5714C37.7143 11.359 37.2327 10.1962 36.3754 9.33894C35.5181 8.48163 34.3553 8 33.1429 8H14.8572C13.6448 8 12.482 8.48163 11.6247 9.33894C10.7674 10.1962 10.2858 11.359 10.2858 12.5714V35.4286C10.2858 36.641 10.7674 37.8038 11.6247 38.6611C12.482 39.5184 13.6448 40 14.8572 40H33.1429C34.3553 40 35.5181 39.5184 36.3754 38.6611C37.2327 37.8038 37.7143 36.641 37.7143 35.4286V35.4286Z" stroke="#1A406F" stroke-width="2" stroke-linecap="round" stroke-linejoin="round"/>
<path d="M17.1429 17.1429H30.8572M17.1429 24H30.8572M17.1429 30.8571H30.8572M37.7143 35.4286V12.5714C37.7143 11.359 37.2327 10.1962 36.3754 9.33894C35.5181 8.48163 34.3553 8 33.1429 8H14.8572C13.6448 8 12.482 8.48163 11.6247 9.33894C10.7674 10.1962 10.2858 11.359 10.2858 12.5714V35.4286C10.2858 36.641 10.7674 37.8038 11.6247 38.6611C12.482 39.5184 13.6448 40 14.8572 40H33.1429C34.3553 40 35.5181 39.5184 36.3754 38.6611C37.2327 37.8038 37.7143 36.641 37.7143 35.4286V35.4286Z" stroke="#1A406F" stroke-width="2" stroke-linecap="round" stroke-linejoin="round"/>
</svg>
